<?xml version="1.0" encoding="UTF-8" standalone="no"?>
<svg
   xmlns:dc="http://purl.org/dc/elements/1.1/"
   xmlns:cc="http://creativecommons.org/ns#"
   xmlns:rdf="http://www.w3.org/1999/02/22-rdf-syntax-ns#"
   xmlns:svg="http://www.w3.org/2000/svg"
   xmlns="http://www.w3.org/2000/svg"
   xmlns:sodipodi="http://sodipodi.sourceforge.net/DTD/sodipodi-0.dtd"
   xmlns:inkscape="http://www.inkscape.org/namespaces/inkscape"
   xml:space="preserve"
   width="2522px"
   height="2385px"
   style="shape-rendering:geometricPrecision; text-rendering:geometricPrecision; image-rendering:optimizeQuality; fill-rule:evenodd; clip-rule:evenodd"
   viewBox="0 0 25220 23850"
   id="svg5756"
   version="1.1"
   inkscape:version="0.92.3 (2405546, 2018-03-11)"
   sodipodi:docname="03_2_South-Western_01.svg"><defs
   id="defs79"><inkscape:path-effect
     is_visible="true"
     id="path-effect3441"
     effect="spiro" /><inkscape:path-effect
     is_visible="true"
     id="path-effect4212"
     effect="spiro" /><inkscape:perspective
     id="perspective225"
     inkscape:persp3d-origin="1796.7756 : 1356.189 : 1"
     inkscape:vp_z="3593.5513 : 2034.2834 : 1"
     inkscape:vp_y="0 : 1000 : 0"
     inkscape:vp_x="0 : 2034.2834 : 1"
     sodipodi:type="inkscape:persp3d" /><style
     id="style6"
     type="text/css">
   
    .str0 {stroke:none}
    .str2 {stroke:#CCC0A3;stroke-width:2.10359;stroke-linecap:butt;stroke-linejoin:miter;stroke-opacity:1;fill-rule:evenodd}
    .str3 {stroke:#54473F;stroke-width:2.10317}
    .str4 {stroke:#5C4740;stroke-width:4.20634}
    .l2 {fill:none}
    .l0 {fill:#ffe9b2}
  </style></defs>
<metadata
   id="metadata5863">
   <rdf:RDF>
   <cc:Work
   rdf:about="">
   <dc:format>image/svg+xml</dc:format>
   <dc:type
   rdf:resource="http://purl.org/dc/dcmitype/StillImage" />
   <dc:title></dc:title>
   </cc:Work>
   </rdf:RDF>
   </metadata>
<sodipodi:namedview
   pagecolor="#ffffff"
   bordercolor="#666666"
   borderopacity="1"
   objecttolerance="10"
   gridtolerance="10"
   guidetolerance="10"
   inkscape:pageopacity="0"
   inkscape:pageshadow="2"
   inkscape:window-width="1456"
   inkscape:window-height="853"
   id="namedview5861"
   showgrid="false"
   inkscape:zoom="0.08838835"
   inkscape:cx="-453.33142"
   inkscape:cy="793.88489"
   inkscape:window-x="116"
   inkscape:window-y="200"
   inkscape:window-maximized="0"
   inkscape:current-layer="layer2" />

<path
   style="fill:#e0e0ff;stroke:#878787;stroke-width:30;stroke-linejoin:bevel"
   d="m 12255.176,12881.36 -25,-105.2 -60,-70.2 -30,-15 20,-135.4 30,-200.5 80,-35.1 -45,-115.3 345.1,40.1 120,-40.1 360.1,-260.6 160,-160.4 20,20 5,80.3 85.1,15 50,-60.2 125,-5 90,100.3 -80,40.1 80,35.1 v 80.2 l 115,155.3 75,20.1 45.1,65.2 105,60.1 -65,160.4 30,205.5 45,-50.1 100,175.4 -85,75.2 -70,-110.3 -90.1,85.3 -50,-60.2 v -80.2 l -105,-55.1 -30,-95.3 -130,195.5 -110,-125.3 25,255.6 -320.1,-85.2 -40,100.3 -210,-100.3 -70.1,-205.5 -215,135.4 -230.1,-45.2 -30,195.5 -110,-30 z"
   id="_142981528"
   inkscape:label="#_Vidnoe"
   inkscape:connector-curvature="0" />
<path
   style="fill:#e0ffe0;stroke:#878787;stroke-width:30;stroke-linejoin:bevel"
   d="m 6188.67,12671.9 90.02,-100.3 -55.01,-130.3 150.02,-140.3 410.1,-70.2 225.04,-245.6 260.06,-100.3 -170.05,-145.3 15.02,-270.7 120.02,-95.3 -280.06,-390.9 65.02,-130.3 -45.01,-195.5 75.01,-50.2 -140.03,-155.3 120.02,-145.4 275.07,125.3 4.99,-190.5 115.03,30.1 225.05,-325.8 430.08,40.1 95.02,110.3 380.08,-35.1 120.03,175.4 235.05,-70.2 160.03,270.7 335.06,150.4 305.07,-5 42.4292,49.859 182.2731,143.798 35.3577,-43.357 135.04,10.1 105,95.2 185,-195.5 265.1,100.3 v -185.5 l 195,-55.1 50.1,25 35,-40.1 35,25.1 117.579,-164.585 8.434,-15.196 -106.013,-65.819 -10,10 -15,-10 -45.1,-5 10.1,-55.2 80,-45.1 h 95 l 10,50.2 h 15 l 25,-60.2 35,5 -10,50.1 -75,130.4 -10,15 -5,370.9 82.368,247.638 22.198,54.516 -17.4,86.718 -83.666,-56.926 -62.566,66.883 -22.836,78.684 -20.506,-62.842 -73.335,121.761 132.585,43.546 190.611,-222.94 57.547,99.162 40,110.2 -40,30.1 -30,-50.1 -65,85.2 -73.684,-110.465 -6.316,115.465 -65,-5 -65,-5 -20,115.3 -25,35.1 -55.1,-65.2 -65,165.4 -116.749,-30.984 8.599,-49.011 32.471,1.616 5.019,-42.971 -37.896,-4.743 -16.39,93.984 -75.054,-17.991 -180.1,80.2 30.1,85.2 -120.1,125.3 -30,-40.1 -5,20 -35,-30 -90,40.1 -60,135.3 -210.05,-45.1 -15.01,95.2 -85.02,-60.1 -160.02,155.4 -55.02,-210.5 -275.06,65.1 100.02,75.2 -25,35.1 -95.02,-40.1 -50.01,105.2 135.02,20.1 -155.03,155.4 10,-115.3 -470.09,60.1 -105.02,145.4 -315.07,25.1 5.01,180.4 -205.05,170.4 -440.09,75.2 v 95.3 l -240.05,-125.3 -65.01,125.3 -40.02,-145.4 -215.04,-15 -15,260.6 -345.07,-360.9 -255.06,240.6 -160.03,-195.5 z"
   id="_142172784"
   inkscape:label="#_Odintsovo" />
<path
   style="fill:#ffffe0;stroke:#878787;stroke-width:30;stroke-linejoin:bevel"
   d="m 9654.38,10481.4 240.06,-120.3 20,-180.4 110.06,-15.1 40,-170.39 -95.04,-110.26 165.04,-215.54 -30,-160.4 -145.05,-45.11 -85.01,-105.26 90.01,-45.11 155.05,-75.19 235,160.39 130.1,15.05 -75.1,60.14 115.1,20.06 v -70.18 l 170,30.08 -65,-55.15 45,-80.19 60,60.15 30,-65.16 65,175.43 125.1,105.27 45,-120.31 60,40.1 60,-20.04 35,75.19 h 115 l 35,35.08 -40,40.09 -30,100.26 -80,15.03 -20,-30.07 15,-30.07 -5,-70.18 -65,20.05 -30,-10.02 -105,90.22 15,35.09 -40,90.23 80,5 -45,25.07 20,35.09 10,75.17 45,45.09 v -60.12 l 30,65.12 80,-80.16 90,10.03 -57.331,144.7 -11.832,27.939 4.163,-12.209 -35,-20.1 -20,45.1 h -95 l -80,45.1 -155.373,-1.646 38.784,150.273 103.427,79.478 -16.838,42.595 -50.1,25.1 -195,55.1 v 185.5 l -265.1,-100.3 -185,195.5 -105,-95.2 -135.04,-10.1 -35.3577,43.357 -182.2731,-143.798 -42.4292,-49.859 20.01,-20.1 z"
   id="_186807760"
   inkscape:label="#_Krasnogorsk" />








































<path
   style="fill:#e0ffe0;stroke:#878787;stroke-width:30;stroke-linejoin:bevel"
   d="m 11204.976,13307.46 15,-165.4 80,50.1 114.364,-149.19 116.667,-58.013 31.14,146.885 185.266,67.919 -55.736,93.751 30.064,96.516 183.435,47.732 -24.3,-144.58 115.542,-73.467 -17.564,-119.451 73.942,-5.955 29.483,-66.825 30.527,-58.719 52.37,-37.203 110,30 30,-195.5 230.1,45.2 215,-135.4 70.1,205.5 -145.1,290.7 -150,75.2 15,85.3 -155,245.6 90,75.1 -160.1,35.1 -35,150.4 80.1,100.3 325,70.1 15,345.9 75,170.4 -60,50.1 -85,-110.2 -80,75.2 -195,-45.2 9.9,245.6 -145,-50.1 -50,235.6 -85,-125.3 -110,140.3 -160.1,-285.7 -205,250.7 -359.819,161.908 60.338,-409.682 33.891,-18.286 -71.346,-94.31 -74.673,3.49 8.058,-64.925 -9.468,-55.049 40.053,16.613 58.201,34.284 33.132,-33.324 54.052,5.06 26.149,-42.438 -16.339,-56.172 -98.725,-112.525 84.131,-57.044 9.334,-59.509 91.733,-43.469 -82.3,-67.974 79.922,-99.917 36.155,4.589 40.268,-31.538 -3.602,40.814 24.89,36.664 43.167,-50.404 57.156,54.743 -67.84,-416.407 -147.203,-20.544 -8.033,-88.07 -51.429,-29.157 -190.333,-15.575 z"
   id="_186892232"
   inkscape:label="#_Podolsk"
   inkscape:connector-curvature="0" />












<path
   style="fill:#ffe0e0;stroke:#878787;stroke-width:30;stroke-linejoin:bevel"
   d="m 9439.34,12040.3 -100.02,-75.2 275.06,-65.1 55.02,210.5 -265.07,50.1 -135.02,-20.1 50.01,-105.2 95.02,40.1 z"
   id="_186947840"
   inkscape:label="#_Krasnoznamensk" />



<path
   style="fill:#ffe0e0;stroke:#878787;stroke-width:30;stroke-linejoin:bevel"
   d="m 10109.5,11333.5 -5,-175.4 h 170 v 110.3 l -125,70.2 z"
   id="_186999008"
   inkscape:label="#_Vlasikha" />




<path
   style="fill:#ffffff;stroke:#000000;stroke-width:40;stroke-linejoin:bevel"
   d="m 9474.3321,10675.513 51.6808,30.538 -30.5385,61.077 73.7562,18.044 36.3012,36.514 71.301,-45.34 167.3361,2.462 -15.331,-46.693 -66.5945,26.268 -64.2871,-40.78 68.964,-63.315 150.3168,118.774 -62.5295,92.443 -138.2857,23.881 -51.4364,-43.698 -44.1277,89.084 -102.0086,-9.998 37.9002,92.795 -46.6751,2.115 1.2867,-25.949 -55.5479,-1.728 -0.6629,22.565 -42.1644,7.254 -53.6821,-62.202 42.6599,-33.572 62.7873,-11.817 -2.5527,-48.958 -10.8772,-12.875 -40.0764,2.394 -11.9904,21.846 -22.7119,17.362 -129.5422,-70.13 38.429,-38.782 -22.6455,-39.184 -25.2813,-20.07 -36.4139,60.108 -154.3426,1.017 28.6425,-137.808 -78.156,125.741 -58.0893,-0.492 -10.7184,-11.807 -22.7916,-4.021 -19.5512,17.324 -24.9702,-84.1 37.8392,-26.234 44.1624,-6.025 68.197,-3.397 -25.6117,-43.989 126.758,-28.532 2.5617,-51.067 27.9029,-17.924 73.0738,41.865 26.2728,-0.84 65.3914,-2.09 35.1212,56.165 -9.3963,37.587 140.9481,28.19 0,0 z"
   id="_142580002"
   inkscape:label="#_Border2_Konezavod" />




<path
   style="fill:#ffffff;stroke:#000000;stroke-width:40;stroke-linejoin:bevel"
   d="m 10854.6,10501.5 50.1,25 35,-40.1 35,25.1 117.579,-164.585 8.434,-15.196 -106.013,-65.819 -10,10 -15,-10 -45.1,-5 10.1,-55.2 -155.373,-1.646 38.784,150.273 103.427,79.478 -16.838,42.595 z"
   id="_142580007"
   inkscape:label="#_Border7_Rublevo" />


<g
   inkscape:groupmode="layer"
   id="layer2"
   inkscape:label="Moscow"
   style="display:inline"><path
     d="m 9173.6168,14596.228 61.1031,63.837 61.608,7.561 41.0173,5.574 -6.1387,36.986 41.2987,-0.956 -2.6836,22.277 -192.5961,45.456 -18.9146,82.994 -36.1211,6.919 -66.041,-17.222 -59.6995,22.274 12.1126,34.932 -35.1829,80.803 24.3353,29.046 -15.778,29.79 -36.0178,-22.126 -30.1238,58.502 35.3776,11.581 -0.9016,57.543 8.2588,130.273 55.7097,32.747 -7.1761,46.888 44.9389,81.228 67.9537,173.37 39.4557,-21.045 24.1103,21.347 18.1392,-9.166 45.8498,-6.546 32.6749,-0.04 12.8528,40.12 1.9311,134.678 -38.7445,27.811 7.593,35.203 20.8043,6.939 12.4724,-11.494 15.72,14.881 1.7784,30.171 36.1374,19.652 13.952,40.906 150.1946,4.573 v -38.792 l 229.9998,-14.559 0.8958,-34.798 159.6455,-35.969 2.9857,-59.736 49.9729,-9.126 10.911,30.079 32.4132,-35.482 45.367,13.45 -7.147,-193.083 34.977,-54.873 5.471,-29.613 -47.935,5.43 18.329,-148.062 -18.44,-27.995 7.767,-122.875 35.693,8.501 62.059,-49.177 44.176,3.81 60.21,-66.938 -414.3848,-324.992 -441.3623,-241.943 -141.9327,-53.694 -62.8132,8.063 0.5505,80.699 16.7389,14.073 -25.4123,29.317 v 0 0 0 h -1e-4 v 0 0 z"
     id="path4281-23"
     inkscape:connector-curvature="0"
     style="clip-rule:evenodd;fill:#ddff55;fill-opacity:1;fill-rule:evenodd;stroke:#ccc0a3;stroke-width:8.45777035;stroke-linecap:butt;stroke-linejoin:miter;stroke-opacity:1;image-rendering:optimizeQuality;shape-rendering:geometricPrecision;text-rendering:geometricPrecision" /><path
     d="m 11135.875,13973.673 -467.009,-4.452 -136.233,81.025 -65.569,330.468 -76.338,166.342 5.55,85.794 131.691,276.51 34.77,39.764 91.37,76.555 12.649,76.985 38.957,-8.957 8.356,71.389 -25.06,25.153 1.347,56.031 103.731,29.4 16.167,-65.494 72.894,-6.783 1.489,-54.29 90.819,-26.194 279.582,-109.138 54.686,-319.979 36.422,-22.368 1.506,-22.711 -52.321,-4.579 12.788,-21.632 -4.178,-13.559 -30.633,0.201 -11.01,-15.517 4.123,-18.617 -42.009,-3.624 -39.419,-6.755 24.091,-47.244 -14.463,-45.512 3.333,-27.837 30.591,9.341 73.739,51.349 23.063,-29.004 56.313,-1.497 31.399,-37.914 -130.24,-99.208 -91.521,-15.153 39.214,-53.115 12.425,-98.213 -107.062,-196.963 z"
     id="path4281-76"
     inkscape:connector-curvature="0"
     style="clip-rule:evenodd;fill:#ddff55;fill-opacity:1;fill-rule:evenodd;stroke:#ccc0a3;stroke-width:8.45777035;stroke-linecap:butt;stroke-linejoin:miter;stroke-opacity:1;image-rendering:optimizeQuality;shape-rendering:geometricPrecision;text-rendering:geometricPrecision" /><path
     d="m 9312.5808,13661.039 223.0962,-23.235 825.329,190.612 166.854,228.99 41.824,29.767 29.575,177.322 -30.006,36.824 -65.713,20.153 -11.38,79.084 -23.884,-11.62 6.432,100.238 -35.346,8.286 -24.081,48.218 -18.86,-4.355 -0.432,90.089 48.615,-15.528 20.76,21.957 19.506,-19.809 15.766,40.933 28.61,240.222 45.798,55.764 -27.172,14.299 54.107,44.385 -48.428,81.27 -101.798,4.325 -15.767,16.902 -60.854,-35.948 -2.497,-33.172 -56.382,-42.17 -64.669,38.518 -2.864,45.705 -116.451,-51.55 -46.658,-25.829 -41.983,11.996 -1.324,-24.995 -32.74,7.074 18.072,-44.734 -120.6694,-125.683 -72.4977,-29.261 -10.449,-43.669 -9.0194,41.932 -60.8295,-13.882 17.6722,-43.828 -178.5029,-76.271 -213.6584,-140.666 -100.1705,47.358 -11.8206,-65.223 -21.3168,8.267 -7.603,-45.466 -31.6772,8.211 -25.2377,-20.078 -56.246,-375.294 52.9957,-227.085 z"
     id="path4281-15"
     inkscape:connector-curvature="0"
     style="clip-rule:evenodd;fill:#ddff55;fill-opacity:1;fill-rule:evenodd;stroke:#ccc0a3;stroke-width:8.45777035;stroke-linecap:butt;stroke-linejoin:miter;stroke-opacity:1;image-rendering:optimizeQuality;shape-rendering:geometricPrecision;text-rendering:geometricPrecision" /><path
     d="m 9248.145,14264.827 63.4758,-63.9 -186.4235,-112.072 -0.4035,-45.653 23.6633,-43.072 -82.2742,-180.246 -197.1435,-94.74 -94.4424,-552.645 -428.0195,25.418 -8.9227,130.864 62.8472,35.651 47.9049,126.913 66.9247,24.462 -35.6814,42.188 129.6423,130.838 -56.8254,70.618 49.7458,63.376 -19.6176,34.053 224.3327,221.634 48.9553,18.094 2.6867,28.65 107.0388,114.585 25.8067,62.638 67.4631,75.807 22.6176,-20.712 106.1632,92.647 33.9036,-179.355 z"
     id="path4281-17"
     inkscape:connector-curvature="0"
     style="clip-rule:evenodd;fill:#ddff55;fill-opacity:1;fill-rule:evenodd;stroke:#ccc0a3;stroke-width:8.46000004;stroke-linecap:butt;stroke-linejoin:miter;stroke-miterlimit:4;stroke-dasharray:none;stroke-opacity:1;image-rendering:optimizeQuality;shape-rendering:geometricPrecision;text-rendering:geometricPrecision" /><path
     d="m 9013.9072,13836.88 1.1619,-27.711 20.39,2.691 3.8411,14.878 26.9718,4.077 -16.5184,11.27 -7.4333,41.266 48.4327,62.412 -16.4058,40.893 19.1442,31.531 62.0127,-12.599 29.5418,-116.048 21.1266,19.337 46.0272,-13.222 91.7315,-139.554 -22.9931,-10.117 1.9653,-35.471 47.3548,-10.298 30.5536,-36.266 62.5322,-1.676 25.2006,32.377 47.3148,-8.288 46.2436,11.401 223.6671,-234.728 19.3075,-144.428 8.9806,-27.04 -31.2442,9.198 -81.5673,55.871 -6.5496,-37.008 -35.4619,-32.234 -6.7312,-28.449 -88.4916,-30.078 2.7514,-60.281 -114.4453,-17.138 1.5947,38.956 -25.3966,28.77 -51.8111,0.404 -5.348,95.753 -80.1277,-30.041 -4.8435,-39.206 -39.6139,-29.503 -4.2416,-28.209 -23.3766,-2.333 -9.1259,8.715 -16.1184,-2.614 -10.6001,19.043 -35.9596,0.585 31.7249,-321.853 -201.6196,-38.478 16.8573,-146.808 -92.3926,-35.83 -1.4986,87.028 -500.0755,-21.473 -10.3355,354.212 -60.0404,9.638 -5.2217,94.019 307.2508,21.483 -33.9565,27.615 31.6571,6.151 50.9379,-40.187 30.7999,-8.763 52.6386,24.171 -53.8044,73.283 36.8986,43.072 32.8196,-25.798 -16.683,49.766 -19.1935,80.929 -14.5492,116.478 20.4153,25.02 47.1314,107.194 9.4178,93.048 37.2496,15.231 -2.0625,-17.25 46.1135,13.198 -10.2614,36.01 72.4637,34.38 z"
     id="path4281-245"
     inkscape:connector-curvature="0"
     style="clip-rule:evenodd;fill:#ddff55;fill-opacity:1;fill-rule:evenodd;stroke:#ccc0a3;stroke-width:8.45777035;stroke-linecap:butt;stroke-linejoin:miter;stroke-opacity:1;image-rendering:optimizeQuality;shape-rendering:geometricPrecision;text-rendering:geometricPrecision" /><path
     d="m 9534.5263,13689.677 1.1507,41.201 25.8482,25.943 6.1069,38.969 50.2586,-40.634 10.3243,47.424 12.2784,43.197 -31.2595,29.325 69.0285,70.138 60.8518,7.59 -8.3334,63.213 17.3981,5.834 8.8216,-39.454 17.1158,1.103 8.6293,26.82 71.7267,-30.879 4.8896,-33.078 63.6059,19.683 7.4931,33.34 24.7715,8.058 15.6954,-40.671 23.3729,10.54 35.0713,26.604 35.02,-9.311 -19.098,-25.813 54.187,-0.655 10.098,17.803 65.306,-14.09 52.99,-89.047 40.629,-30.312 64.888,-5.559 35.813,-21.295 95.473,-153.744 -106.456,-120.991 -342.64,-149.324 -70.0426,-48.564 -41.927,4.161 -40.0782,21.112 -35.3454,-5.38 -1.5854,-31.823 -49.8554,16.764 -8.6653,43.107 -33.4993,9.403 -51.0519,59.696 -23.5399,-16.111 -32.0661,71.061 11.8447,20.488 -5.3998,81.769 -54.5527,69.058 z"
     id="path4281-48"
     inkscape:connector-curvature="0"
     style="clip-rule:evenodd;fill:#ddff55;fill-opacity:1;fill-rule:evenodd;stroke:#ccc0a3;stroke-width:8.45777035;stroke-linecap:butt;stroke-linejoin:miter;stroke-opacity:1;image-rendering:optimizeQuality;shape-rendering:geometricPrecision;text-rendering:geometricPrecision" /><path
     d="m 10866.199,14104.93 53.654,-4.143 30.621,-48.039 14.474,12.63 30.957,-3.319 117.421,-89.29 23.284,6.75 -21.243,30.492 -2.676,42.761 -14.297,47.632 37.514,9.377 59.277,0.537 -17.732,32.837 35.096,28.667 28.559,4.934 -26.731,31.447 17.967,30.171 -2.611,36.076 -36.237,-7.343 -9.072,58.292 100.86,28.128 48.484,48.522 73.537,29.634 -12.943,-56.819 -38.474,-58.166 -61.82,-50.946 52.297,-23.092 34.155,-42.465 1.373,-57.036 110.462,-31.398 -85.419,-90.969 53.852,-67.857 40.25,-17.699 26.593,-48.323 20.464,12.779 2.249,46.173 31.193,44.659 41.363,-39.051 -16.905,-45.196 28.384,-29.78 -23.587,-75.236 27.359,-9.844 -27.229,-65.95 31.229,-13.426 -39.901,-34.309 24.404,-41.784 -6.685,-57.979 -35.635,-14.371 -19.468,22.891 -25.874,-16.405 -2.811,-22.702 -65.282,15.572 -3.4,-61 -23.019,6.496 -16.084,-22.252 30.203,-18.26 -32.795,-42.999 -35.505,36.314 5.858,-33.999 -186.888,-22.623 63.549,-92.635 -122.275,-21.196 67.84,-70.57 -136.865,-7.994 -308.073,395.403 -102.957,348.355 -2.092,136.476 29.648,20.166 34.053,-45.499 97.283,-18.311 -11.734,36.261 48.222,6.793 z"
     id="path4281-14"
     inkscape:connector-curvature="0"
     style="clip-rule:evenodd;fill:#ddff55;fill-opacity:1;fill-rule:evenodd;stroke:#ccc0a3;stroke-width:8.45777035;stroke-linecap:butt;stroke-linejoin:miter;stroke-opacity:1;image-rendering:optimizeQuality;shape-rendering:geometricPrecision;text-rendering:geometricPrecision" /><path
     d="m 10362.645,13579.898 53.733,49.421 1.868,77.41 -36.578,63.031 -26.531,89.419 38.324,41.575 46.682,28.201 -42.602,36.747 3.863,105.7 61.493,-27.606 68.776,19.82 72.191,-46.071 113.255,-81.496 33.388,32.077 44.813,-49.825 1.745,-35.572 -34.981,0.762 13.932,-194.995 67.068,-13.712 49.035,-153.055 69.871,-74.994 6.25,-62.245 46.085,18.863 67.811,-37.611 -48.134,-28.947 37.982,-28.753 8.413,-99.105 -25.314,-175.881 -547.88,-18.066 -466.203,187.7 -41.9272,173.604 134.1372,92.707 80.98,19.727 17.072,65.583 38.76,63.497 48.137,-14.335 13.272,-54.922 28.784,-2.318 z"
     id="path4281-27"
     inkscape:connector-curvature="0"
     style="clip-rule:evenodd;fill:#ddff55;fill-opacity:1;fill-rule:evenodd;stroke:#ccc0a3;stroke-width:8.45777035;stroke-linecap:butt;stroke-linejoin:miter;stroke-opacity:1;image-rendering:optimizeQuality;shape-rendering:geometricPrecision;text-rendering:geometricPrecision" /><path
     d="m 10724.394,13241.236 59.416,3.087 -4.457,-16.365 -0.541,-63.563 91.871,-135.99 41.267,-181.192 -30.556,-90.819 -12.188,-45.938 -189.618,56.62 -111.608,277.525 25.043,115.62 -17.114,25.357 32.666,18.035 -2.505,74.689 17.309,-4.517 25.177,-28.116 z"
     id="path4281-71"
     inkscape:connector-curvature="0"
     style="clip-rule:evenodd;fill:#ddff55;fill-opacity:1;fill-rule:evenodd;stroke:#ccc0a3;stroke-width:8.45777035;stroke-linecap:butt;stroke-linejoin:miter;stroke-opacity:1;image-rendering:optimizeQuality;shape-rendering:geometricPrecision;text-rendering:geometricPrecision" /><path
     d="m 10275.648,13159.392 18.915,-54.288 53.284,24.815 13.865,-29.145 52.351,-1.269 21.429,12.79 100.5,-13.787 29.429,-56.9 68.993,-32.35 36.711,-73.739 -48.934,-31.99 72.629,-89.441 61.304,44.34 13.941,-35.47 -13.245,-26.111 -49.371,3.614 2.825,-29.349 59.885,-32.919 73.453,-7.208 23.084,-9.562 67.464,-27.032 75.033,-115.708 21.017,-187.942 -830.44,-175.196 -292.3154,139.69 0.6187,34.344 -40.7863,29.021 -12.1636,73.903 45.1735,16.697 1.1411,40.624 -27.1897,15.415 9.2181,165.513 86.4845,-7.303 -18.0579,133.597 -37.1271,13.394 3.4559,85.043 42.0724,33.5 -7.6613,80.945 -112.5119,21.266 -106.7599,6.259 -7.3171,20.226 295.029,244.78 58.251,-53.025 -55.759,-20.452 2.601,-17.756 185.066,-2.047 -4.072,-49.968 20.974,-14.422 55.947,0.876 39.053,36.902 38.677,-28.116 z"
     id="path4281-5"
     inkscape:connector-curvature="0"
     style="clip-rule:evenodd;fill:#ddff55;fill-opacity:1;fill-rule:evenodd;stroke:#ccc0a3;stroke-width:8.45777035;stroke-linecap:butt;stroke-linejoin:miter;stroke-opacity:1;image-rendering:optimizeQuality;shape-rendering:geometricPrecision;text-rendering:geometricPrecision" /><path
     d="m 11423.16,13048.017 83.041,-34.039 46.168,-188.492 -47.791,-46.687 -161.257,-71.865 -70.108,-268.943 -57.557,-36.819 -187.69,-15.562 12.629,13.279 -21.034,49.125 -31.745,8.299 31.339,33.948 -13.525,7.323 -26.07,-2.341 -11.698,14.58 35.622,25.821 5.997,30.203 -1.923,26.427 -40.259,4.608 -28.45,25.002 -29.133,0.07 -7.027,41.149 25.875,11.124 -7.35,24.381 -52.631,5.921 -3.372,19.406 19.805,7.878 -5.679,23.304 -18.188,8.591 10.745,63.328 38.012,17.974 -14.961,24.743 2.836,49.754 -38.813,85.612 12.366,24.022 162.953,6.698 -2.713,30.483 -28.189,26.731 -34.102,-10.588 -19.661,20.962 45.866,23.741 -6.846,9.609 -35.569,15.975 -11.472,71.958 66.577,-3.24 -0.941,-57.294 46.819,-3.046 9.506,43.12 42.581,21.442 11.676,-7.865 20.788,14.898 88.03,1.671 25.74,-102.207 74.729,46.029 16.624,-38.271 76.746,-33.911 z"
     id="path4281-24"
     inkscape:connector-curvature="0"
     style="clip-rule:evenodd;fill:#aaffcc;fill-opacity:1;fill-rule:evenodd;stroke:#ccc0a3;stroke-width:8.45777035;stroke-linecap:butt;stroke-linejoin:miter;stroke-opacity:1;image-rendering:optimizeQuality;shape-rendering:geometricPrecision;text-rendering:geometricPrecision" /><path
     sodipodi:nodetypes="ccccccccccccccccccccccccccccccccccccccccccccccccc"
     d="m 11436.66,12788.138 66.166,-10.413 15.793,57.886 36.584,-6.187 51.371,-75.239 78.057,-77.804 319.731,346.468 64.59,-40.376 36.104,2.112 59.563,7.688 -3.213,23.237 10.168,1.82 23.836,-29.942 -4.6,-46.485 54.738,32.385 27.004,-3.443 19.027,-17.509 10.03,20.373 25.51,-6.354 -18.111,-176.57 -21.973,-3.972 11.752,-20.412 -10.075,-5.727 -15.511,20.63 -8.36,-26.41 -12.469,-0.971 -44.895,29.269 2.225,143.533 -45.963,-33.668 -75.064,15.331 -215.567,-200.599 -87.417,-24.796 110.565,-10.757 -298.456,-201.386 -203.888,-81.319 -126.095,52.444 -32.91,123.148 10.539,66.338 23.518,-20.34 31.269,27.85 -13.893,19.009 29.184,11.038 29.174,29.373 -46.959,5.027 9.043,32.882 -8.813,65.439 41.051,-50.927 69.052,9.01 z"
     id="path4281-8"
     inkscape:connector-curvature="0"
     style="clip-rule:evenodd;fill:#aaffcc;fill-opacity:1;fill-rule:evenodd;stroke:#ccc0a3;stroke-width:8.45777035;stroke-linecap:butt;stroke-linejoin:miter;stroke-opacity:1;image-rendering:optimizeQuality;shape-rendering:geometricPrecision;text-rendering:geometricPrecision" /><path
     sodipodi:nodetypes="cccccccccccccccccccc"
     class="l0"
     d="m 11920.978,12842.983 15.54,12.368 23.392,15.171 -9.208,73.666 17.352,3.608 22.861,24.087 23.359,1.845 46.217,-23.537 46.457,7.287 -3.509,16.645 31.124,8.302 10.428,-79.594 -22.037,-13.645 27.768,-174.442 -285.372,-40.194 -79.688,7.219 2.378,9.191 68.204,17.508 63.146,99.292 z"
     id="path4281-9"
     inkscape:connector-curvature="0"
     style="clip-rule:evenodd;fill:#aaffcc;fill-opacity:1;fill-rule:evenodd;stroke:#ccc0a3;stroke-width:8.45777035;stroke-linecap:butt;stroke-linejoin:miter;stroke-opacity:1;image-rendering:optimizeQuality;shape-rendering:geometricPrecision;text-rendering:geometricPrecision"><title
       id="title3285">Щербинка</title></path><path
     sodipodi:nodetypes="ccccccccccccccccccccccccccccccccccccccccc"
     d="m 11983.416,13351.769 -24.961,-115.039 79.919,-39.99 -30.916,-107.439 84.277,-33.895 14.267,-72.347 -45.744,-15.726 -72.071,28.28 -46.432,-48.085 -0.901,-33.014 9.601,-45.87 -13.339,-9.177 -7.395,11.862 -19.105,-16.69 7.053,-11.566 -22.819,-12.602 17.809,-19.611 -61.246,-94.06 -64.391,-16.857 -48.611,-4.674 -50.102,-21.613 -20.581,4.079 -70.848,63.545 9.818,19.33 -98.027,124.961 -16.541,-1.064 -36.619,82.837 42.896,47.279 48.103,80.356 -2.483,30.555 8.662,24.427 136.598,44.374 39.295,0.165 10.605,50.71 -45.132,47.156 39.743,50.722 101.352,54.73 123.053,-4.491 z"
     id="path4281-4"
     inkscape:connector-curvature="0"
     style="clip-rule:evenodd;fill:#aaffcc;fill-opacity:1;fill-rule:evenodd;stroke:#ccc0a3;stroke-width:8.45777035;stroke-linecap:butt;stroke-linejoin:miter;stroke-opacity:1;image-rendering:optimizeQuality;shape-rendering:geometricPrecision;text-rendering:geometricPrecision" /><path
     d="m 9816.1345,12179.017 77.5191,105.636 10.3687,79.272 258.8147,-118.65 7.352,79.083 52.942,12.682 20.396,11.018 73.28,-19.132 -1.757,-28.008 23.444,-8.631 14.574,23.999 -27.391,75.399 11.807,15.286 47.898,-2.125 -1.872,-21.619 25.671,25.47 61.672,-1.983 15.724,-42.793 0.448,58.416 28.743,13.998 11.853,-64.246 29.29,8.774 0.812,18.394 62.276,11.102 149.04,-50.639 23.654,-71.963 -200.195,-175.242 -90.89,-143.305 34.665,-68.081 -156.573,-137.696 -108.133,-8.412 -48.397,30.214 4.154,53.758 -29.119,13.855 -24.382,37.155 -98.335,5.317 -22.745,-37.652 -20.63,-14.871 -53.5225,40.38 -7.0898,76.017 -28.9574,1.882 -45.8675,-56.503 -94.9714,39.942 8.638,46.662 -46.1778,-5.607 5.8033,35.186 -25.7592,18.725 z"
     id="path4281-1"
     inkscape:connector-curvature="0"
     style="clip-rule:evenodd;fill:#aaffcc;fill-opacity:1;fill-rule:evenodd;stroke:#ccc0a3;stroke-width:8.45777035;stroke-linecap:butt;stroke-linejoin:miter;stroke-opacity:1;image-rendering:optimizeQuality;shape-rendering:geometricPrecision;text-rendering:geometricPrecision" /><path
     d="m 10028.4,11993.325 -59.945,-34.665 3.3967,-73.611 28.7313,-27.005 28.827,-19.843 29.182,25.972 18.752,34.538 100.723,-13.821 16.239,-31.71 32.287,-20.209 3.521,-47.01 55.52,-30.249 47.844,0.877 26.92,23.063 -39.412,41.082 -55.95,44.72 -43.256,41.627 -18.992,13.406 14.669,24.984 33.046,-12.718 -5.176,42.733 -18.139,28.314 -35.094,26.155 10.966,33.107 -48.83,3.717 -36.129,11.194 -24.686,-15.304 -51.721,11.743 -17.764,-44.288 10.011,-22.098 z"
     id="path4283-4"
     inkscape:connector-curvature="0"
     style="clip-rule:evenodd;fill:#aaffcc;fill-opacity:1;fill-rule:evenodd;stroke:#ccc0a3;stroke-width:8.45777035;stroke-linecap:butt;stroke-linejoin:miter;stroke-opacity:1;image-rendering:optimizeQuality;shape-rendering:geometricPrecision;text-rendering:geometricPrecision" /><path
     d="m 11276.335,12451.405 15.47,-49.487 -26.655,-83.837 -100.435,-47.845 -10.679,-146.835 -96.911,-49.396 -130.24,-46.705 -105.84,-24.698 -232.738,105.456 27.657,31.816 -26.426,21.903 -73.255,27.688 16.831,70.888 21.821,-19.82 8.065,68.889 39.235,25.635 10.163,-37.219 34.546,-0.974 1.988,-30.947 49.557,-6.006 4.252,33.21 28.196,-7.062 13.661,21.397 18.824,-35.093 32.096,18.671 -23.172,45.79 -2.145,19.057 -53.017,5.45 -36.892,-28.121 -20.528,36.061 -31.243,9.499 -13.183,29.855 20.691,37.413 44.603,-13.844 4.806,41.827 26.858,-6.662 4.557,-40.052 56.569,-4.959 24.319,21.558 30.554,-22.32 14.584,55.64 111.574,-12.657 34.752,-62.344 42.83,0.201 -1.401,-18.642 173.775,28.317 71.926,39.302 z"
     id="path4281-7-7"
     inkscape:connector-curvature="0"
     style="clip-rule:evenodd;fill:#aaffcc;fill-opacity:1;fill-rule:evenodd;stroke:#ccc0a3;stroke-width:8.45777035;stroke-linecap:butt;stroke-linejoin:miter;stroke-opacity:1;image-rendering:optimizeQuality;shape-rendering:geometricPrecision;text-rendering:geometricPrecision" /><path
     d="m 10994.727,12057.631 25.016,26.881 37.78,-5.082 117.167,64.209 107.245,-99.408 -0.88,-52.544 59.229,-93.753 -19.497,-5.983 7.241,-24.933 125.576,11.65 57.797,-107.889 -22.458,-20.484 0.337,-59.981 48.984,-60.921 -111.229,-178.267 -89.67,17.731 -47.635,266.83 -270.347,-53.128 -5.861,55.76 -106.243,40.279 -6.098,-31.375 -52.962,-18.991 -60.618,109.929 17.481,95.833 20.328,91.448 68.367,50.211 39.434,-8.615 1.03,-31.637 29.131,33.044 19.422,29.756 z"
     id="path4281-7-5"
     inkscape:connector-curvature="0"
     style="clip-rule:evenodd;fill:#aaffcc;fill-opacity:1;fill-rule:evenodd;stroke:#ccc0a3;stroke-width:8.45777035;stroke-linecap:butt;stroke-linejoin:miter;stroke-opacity:1;image-rendering:optimizeQuality;shape-rendering:geometricPrecision;text-rendering:geometricPrecision" /><path
     id="path4281-7"
     d="m 11512.943,11778.083 67.973,38.814 -2.79,52.194 9.345,38.069 10.799,20.221 74.919,19.813 32.043,-70.57 -170.277,-244.257 -49.086,54.277 -1.894,61.683 z"
     inkscape:connector-curvature="0"
     style="clip-rule:evenodd;fill:#aaffcc;fill-opacity:1;fill-rule:evenodd;stroke:#ccc0a3;stroke-width:8.45777035;stroke-linecap:butt;stroke-linejoin:miter;stroke-opacity:1;image-rendering:optimizeQuality;shape-rendering:geometricPrecision;text-rendering:geometricPrecision" /><path
     d="m 11520.227,12472.492 -29.366,-21.168 -23.554,-0.213 -44.849,-17.883 -19.51,0.21 -42.127,50.011 -30.856,-55.989 -49.076,32.089 10.102,-65.858 -11.906,-26.067 -43.633,-27.871 -14.41,-33.204 -56.555,-38.58 -7.462,-47.514 -44.995,7.951 39.254,-90.37 23.512,5.499 107.491,-102.362 -4.234,-55.166 65.022,-86.249 -23.508,-9.37 4.966,-23.39 129.306,7.794 58.703,-99.623 73.135,45.473 -7.645,72.188 18.416,33.166 71.487,27.609 41.172,-67.647 283.751,225.076 56.249,224.235 -38.065,58.221 -374.265,163.839 -25.736,-41.703 -22.942,-2.058 1.336,-29.144 z"
     id="path4245-4"
     inkscape:connector-curvature="0"
     style="clip-rule:evenodd;fill:#aaffcc;fill-opacity:1;fill-rule:evenodd;stroke:#ccc0a3;stroke-width:8.45777035;stroke-linecap:butt;stroke-linejoin:miter;stroke-opacity:1;image-rendering:optimizeQuality;shape-rendering:geometricPrecision;text-rendering:geometricPrecision" /><path
     sodipodi:nodetypes="ccccccccccccccccccccccccccccccccccccccccccccccccccccccccccccccccccccccccccccccccccccccccccccccccccccccccccccccccccccccccccccccccccccccccccccccccccccccccccccccccccccccccccccccccccccccccccccccccccccccccccccccccccccccccccccccccccccccccccccccccccccccccccccccccccccccccccccccccccccccccccccccccccccccccccccccccccccccccccccccccccccccccccccccccccccccccccccccccccccccccccccccccccccccccccccccccccccccccccccccccccccccccccccccccccccccccccccccccccccccccccccccccc"
     inkscape:connector-curvature="0"
     id="path4247-4"
     d="m 11231.321,11072.761 c 0.638,-0.292 0.385,-0.201 -0.04,-0.04 v 0.04 c -0.754,0.343 -2.591,1.154 -6.414,2.797 l -0.261,0.224 -22.784,13.759 1.753,3.58 -1.715,2.312 10.963,5.668 -1.492,1.715 1.715,1.044 -1.417,2.946 -2.945,3.58 -2.872,3.17 11.187,12.007 5.817,6.115 -1.454,1.044 0.485,0.187 -2.611,2.349 -1.752,1.492 0.261,0.186 0.261,0.224 0.224,0.41 -5.333,4.214 -0.485,0.223 h -0.708 l -0.485,-0.223 h -0.261 l -0.224,-0.187 v -0.186 h -0.223 l -0.746,0.186 0.224,0.41 -0.224,0.634 -0.485,-0.596 -1.23,-2.126 -0.709,0.41 -6.339,-6.712 -6.041,4.438 -6.078,4.661 -16.78,-12.418 -8.726,5.743 -6.041,4.848 2.424,2.722 -1.939,1.305 -2.2,-2.759 -2.424,2.125 -0.224,-2.536 -0.522,-16.034 -0.261,-6.115 -0.522,-18.123 -0.04,-10.777 -0.261,-5.034 -0.261,-9.732 -0.224,-4.848 -0.04,-3.169 v -0.187 l -0.484,-8.651 -0.04,-3.58 v -1.491 l -0.224,-1.455 -0.746,-3.579 -1.939,-4.848 -0.261,-0.224 -1.678,-4.623 -2.685,0.223 -3.43,-6.973 -0.224,-1.454 -0.07,0.04 -1.454,0.447 -0.485,0.634 -3.393,0.821 0.223,0.447 -0.484,0.187 -0.224,-0.187 -1.939,0.41 v 0.448 h -0.746 v -0.224 l -4.363,1.081 0.224,0.411 -0.969,0.223 v -0.447 l -1.94,0.447 v 0.411 l -0.484,0.223 -0.224,-0.223 -0.97,0.223 v 0.411 l -0.484,0.223 h -0.485 l -0.224,-0.223 -2.2,0.447 -0.708,0.186 h -0.522 l -0.224,-0.186 -2.648,0.634 -0.261,0.41 -0.223,0.634 -4.363,1.715 -8.502,3.394 -8.465,3.617 -8.017,4.213 0.224,0.634 -0.485,0.41 2.461,3.804 v 0.224 l 0.746,0.82 v 0.224 l 2.163,3.356 1.939,-0.858 1.006,-0.41 1.939,-0.447 5.333,0.41 0.224,-2.312 3.878,0.41 0.223,-2.536 h 4.4 l -0.969,8.428 -4.363,-0.187 h -0.746 l -5.071,1.492 h -2.424 l -2.424,0.857 1.678,2.946 1.007,1.678 2.648,5.072 0.522,1.491 0.224,0.187 -0.485,0.223 0.969,2.312 0.485,0.821 0.97,1.678 1.491,2.349 0.485,0.634 -0.485,0.186 2.685,5.892 -0.261,0.858 9.956,-3.841 v 0.224 l 1.715,2.088 0.709,1.268 h -0.224 l -10.441,4.027 -0.485,-2.088 -0.223,-0.224 -0.485,0.04 -4.139,1.268 1.23,4.847 5.109,-0.671 0.746,2.126 -11.895,2.573 -1.492,-6.974 -2.424,1.082 -0.224,2.946 -0.223,0.41 -0.224,0.224 -0.97,2.312 -0.26,0.633 -1.194,1.492 h -2.908 l 0.969,1.044 1.231,1.902 0.969,0.186 h 0.224 v 0.224 l 0.746,1.044 0.223,2.536 -5.817,0.447 -0.745,-0.634 v -0.223 l -4.139,-4.214 0.223,-2.088 h -0.969 l -0.448,8.837 -8.726,0.448 1.007,14.132 -19.427,1.306 -1.007,-7.16 h -0.485 l -3.132,0.224 h -1.716 l -3.393,0.224 -0.261,-6.563 -0.224,-1.455 -11.186,0.672 -1.231,-10.33 4.848,-4.251 -0.224,-2.088 -0.522,-3.803 12.119,-11.411 -1.454,-1.268 -14.543,12.269 -5.071,4.027 -2.909,2.535 -0.485,0.411 v 2.722 l 0.709,0.634 0.522,12.864 -0.224,0.448 -21.553,18.383 -3.394,-1.678 -5.593,-2.498 -0.746,-0.224 -0.484,-0.186 -0.485,-1.678 -0.224,-0.858 -1.454,1.044 -2.909,5.929 -5.295,14.991 -1.678,8.651 -1.23,5.481 -0.448,6.116 v 4.847 l 7.085,14.133 -0.708,7.57 0.484,1.491 0.224,0.187 -0.224,0.857 -3.654,0.634 -2.163,0.224 -1.454,0.41 v 0.224 l 0.485,2.535 -2.424,0.411 v 0.41 l -1.939,0.447 -8.502,2.536 -0.709,1.715 -1.193,0.821 -1.23,1.081 0.261,2.722 -1.492,0.224 -0.224,-2.536 -0.745,-0.857 -0.224,-6.936 -0.04,-0.224 h 0.261 v -0.41 l -3.654,-6.75 -0.522,-2.722 3.617,-10.142 v -9.062 l -3.17,-6.525 -0.261,-0.224 h -0.224 l -1.23,-0.82 -5.78,8.241 v 0.186 l -6.787,9.285 0.485,0.224 -8.204,11.634 -0.484,-0.224 -5.818,8.241 -3.393,5.072 -2.908,4.027 -1.678,2.312 0.484,0.224 -5.332,7.793 -1.678,2.349 0.709,0.41 h 0.261 l 20.658,10.889 h 0.223 l 0.485,0.447 v 0.187 l 0.261,0.223 v 0.187 l 0.224,0.41 v 0.448 l -0.224,0.41 v 0.41 l -1.939,5.295 6.563,5.482 -3.878,3.355 -7.756,-6.488 -7.756,10.329 -16.035,-8.39 -3.878,-1.901 7.98,-10.143 0.97,-1.454 0.223,-0.224 0.224,-1.044 4.848,-6.339 -1.939,-1.045 h -0.261 l -0.485,-0.447 -0.708,0.634 -12.082,16.705 -2.909,4.214 0.97,0.448 h 0.223 l 13.872,6.264 2.163,0.448 1.454,1.864 2.946,1.082 3.132,1.23 0.485,-0.82 4.4,2.312 1.454,0.596 4.624,2.312 1.194,1.268 0.969,0.41 -0.485,0.634 13.126,6.749 47.432,24.127 h 0.224 l 0.969,0.634 8.241,-10.143 5.78,-6.973 v -0.224 l 3.915,2.312 22.859,14.282 6.525,-9.099 9.434,-13.312 2.909,1.492 6.041,-9.286 8.949,-14.169 -4.139,-3.58 -3.654,-3.132 -3.394,-2.946 -4.139,-3.804 -7.532,-6.525 -3.915,-3.133 -3.17,-2.946 -0.224,0.411 v -0.411 l 0.746,-1.081 0.485,-0.634 0.708,-1.268 0.709,-1.268 0.484,-0.633 0.262,-1.268 0.969,-1.902 2.387,-5.892 1.23,-2.946 -1.23,0.634 -1.455,0.821 -1.678,0.634 0.224,-0.821 0.97,-3.617 0.932,-3.766 0.485,-1.081 1.454,-4.438 0.485,-4.847 0.484,-0.821 0.97,-1.268 0.969,-1.267 3.133,-9.919 1.939,0.41 4.363,2.312 -0.224,3.579 9.509,6.302 -7.272,8.017 21.367,9.658 1.939,-3.579 -2.163,-1.268 -5.854,-2.946 3.132,-8.651 4.587,-5.705 5.108,3.132 4.139,1.268 3.617,-5.892 4.848,-6.563 24.797,4.997 -0.745,1.044 -0.224,0.224 -5.817,6.749 8.763,3.99 8.502,3.99 0.969,-1.268 9.919,-11.41 19.614,-15.438 1.231,1.044 7.495,-5.705 h 1.939 l 0.746,0.186 0.485,0.634 0.223,0.41 h 0.485 0.485 l 0.484,-0.857 0.262,-2.312 0.223,-0.187 0.224,-0.857 0.485,-1.044 0.484,-0.448 0.224,-0.41 1.977,-1.044 1.901,-1.716 3.17,-2.125 0.969,-0.82 2.648,-2.126 0.261,0.187 18.421,-13.947 0.485,0.411 16.034,14.095 1.939,-2.126 v -5.891 l 1.454,-3.58 h 0.224 l 1.678,-1.492 2.685,-0.634 6.302,-0.447 0.746,-0.186 0.223,-0.04 -1.976,-8.614 -1.678,-4.028 -1.231,-1.677 -2.423,-2.723 0.969,-0.634 3.17,4.214 0.969,1.902 0.97,2.498 1.976,7.197 0.708,2.722 0.262,1.044 0.484,-0.186 2.163,-0.224 3.878,-5.705 12.38,-4.251 0.97,-0.41 0.484,-0.448 0.97,-1.044 3.953,-4.288 0.82,1.193 1.204,-0.933 0.921,-1.23 13.984,-22.597 -2.573,-13.349 35.984,-39.154 43.703,25.058 5.37,-42.621 33.746,24.461 10.702,25.208 88.6,-30.689 0.522,-21.702 30.875,2.125 -36.991,-157.957 -171.717,1.417 -115.372,-28.414 -35.947,9.881 -26.811,1.417 33.113,104.223 9.807,29.161 c 1.479,5.206 2.631,9.201 3.654,12.641 -2.87,-21.668 11.163,37.548 0,0 0.434,3.279 1.252,8.342 2.61,15.959 l 33.446,45.717"
     style="clip-rule:evenodd;fill:#ffbffc;fill-opacity:1;fill-rule:evenodd;stroke:#ccc0a3;stroke-width:8.4577713;stroke-linecap:butt;stroke-linejoin:miter;stroke-opacity:1;image-rendering:optimizeQuality;shape-rendering:geometricPrecision;text-rendering:geometricPrecision" /><path
     sodipodi:nodetypes="cccccccccccccccccccccccccccccccccccccccccccccccccccccccccccccccc"
     d="m 10766.082,11830.862 -26.979,21.789 -11.621,14.107 -21.933,-20.965 -43.022,14.611 17.337,-38.432 -6.156,-6.083 -17.839,37.054 -27.126,-32.006 -50.531,45.091 -6.574,-42.843 -40.01,22.77 0.191,63.702 -19.762,4.513 -13.185,-40.554 -50.461,-37.807 -74.032,-72.627 16.71,-15.784 29.028,6.018 42.539,-42.75 17.535,-33.516 -8.033,-47.422 29.965,-49.619 81.54,-60.323 82.846,-1.842 23.308,11.123 47.665,4.777 -8.728,-54.865 15.239,-5.228 7.704,8.585 1.368,20.543 -14.579,2.364 2.51,29.061 25.841,1.198 42.235,25.793 32.852,-13.762 3.481,-37.234 39.599,-0.499 7.556,-63.448 -28.341,-31.563 12.793,-26.394 115.29,20.747 13.855,21.464 -24.124,26.305 20.069,12.411 -11.285,37.34 -26.782,-5.254 0.255,21.499 -15.371,3.676 -26.133,53.448 -11.415,51.095 29.054,49.563 34.094,17.104 40.358,-22.187 4.627,56.298 -110.109,52.12 -6.244,-42.592 -26.456,13.333 -23.911,-16.903 -66.963,94.849 -31.671,-13.783 11.933,11.934 v 0 z"
     id="path4245-8"
     inkscape:connector-curvature="0"
     style="clip-rule:evenodd;fill:#aaffcc;fill-opacity:1;fill-rule:evenodd;stroke:#ccc0a3;stroke-width:8.45777035;stroke-linecap:butt;stroke-linejoin:miter;stroke-opacity:1;image-rendering:optimizeQuality;shape-rendering:geometricPrecision;text-rendering:geometricPrecision" /><path
     d="m 11802.944,11448.631 -1.038,-21.794 -11.416,-3.632 -9.34,-17.642 -18.68,-25.426 -26.464,-7.265 -14.528,4.151 -16.087,2.076 -10.377,-6.746 -11.935,-31.652 -13.491,-26.983 -18.162,-14.529 -10.377,1.038 2.594,-23.869 8.821,-8.821 -15.566,-15.048 -77.316,93.401 -84.061,54.484 -18.68,33.209 -35.803,15.567 21.275,30.614 24.906,40.474 77.316,122.978 -2.335,24.128 2.501,4.992 170.031,-147.947 z"
     id="path4237"
     inkscape:connector-curvature="0"
     style="clip-rule:evenodd;fill:#ffbffc;fill-opacity:1;fill-rule:evenodd;stroke:#ccc0a3;stroke-width:8.45777035;stroke-linecap:butt;stroke-linejoin:miter;stroke-opacity:1;image-rendering:optimizeQuality;shape-rendering:geometricPrecision;text-rendering:geometricPrecision" /><path
     d="m 11890.367,11344.063 -51.489,-91.687 -23.481,9.453 -15.567,-12.973 -5.707,-22.312 -17.124,-5.189 h -24.907 l -3.632,9.34 -19.718,-6.745 -10.378,-11.416 -8.821,10.378 16.085,31.133 -24.388,32.691 h -18.68 l -8.821,-27.502 -21.794,-19.199 -14.529,12.973 15.567,15.048 -9.34,9.34 -1.556,22.312 9.858,1.557 18.161,17.123 15.567,28.021 9.341,26.463 8.821,6.227 18.68,-1.557 14.01,-3.113 24.388,5.708 16.086,21.793 12.972,21.794 10.378,3.113 -0.249,23.33 24.066,-23.86 z"
     id="path4239"
     inkscape:connector-curvature="0"
     style="clip-rule:evenodd;fill:#ffbffc;fill-opacity:1;fill-rule:evenodd;stroke:#ccc0a3;stroke-width:8.45777035;stroke-linecap:butt;stroke-linejoin:miter;stroke-opacity:1;image-rendering:optimizeQuality;shape-rendering:geometricPrecision;text-rendering:geometricPrecision" /><path
     d="m 10974.425,11703.664 c 10.008,-4.141 20.687,-7.285 30.284,-12.036 4.256,-3.628 7.758,-10.134 12.459,-12.058 12.466,3.966 24.933,7.933 37.399,11.899 2.555,5.578 7.116,10.891 8.473,16.626 -0.848,6.114 -5.682,12.85 -0.165,17.971 3.566,3.315 5.223,13.359 9.989,12.441 5.807,-2.903 11.613,-5.806 17.419,-8.709 6.015,12.561 10.429,26.082 17.488,38.018 3.878,4.396 7.647,12.89 10.346,6.053 4.933,1.411 10.977,10.573 15.054,6.01 20.548,-23.082 41.096,-46.164 61.644,-69.246 -5.138,-5.576 -9.674,-3.633 -13.935,1.741 -7.977,-2.012 -17.828,0.06 -23.437,-7.113 -4.594,-5.173 -5.454,-13.094 -6.182,-19.889 -5.61,-6.536 -14.43,-11.21 -15.122,-20.6 -1.497,-7.318 -5.051,-14.903 -5.298,-22.059 2.572,-5.545 7.624,-10.978 8.686,-16.592 -3.314,-8.169 -8.464,-16.187 -10.656,-24.449 2.919,-8.453 3.786,-18.041 8.029,-25.76 3.615,-4.621 10.14,-8.11 8.263,-14.867 -0.708,-5.39 2.984,-15.181 -5.855,-12.441 -7.842,-0.377 -16.137,0.745 -23.703,-0.541 -3.618,-3.949 -12.576,-5.039 -12.255,-11.096 4.224,-5.881 -1.806,-7.73 -0.323,-14.116 1.56,-13.774 3.12,-27.548 4.68,-41.322 5.332,-2.834 13.789,-5.724 3.472,-8.28 -1.93,-5.27 -0.113,-12.818 -0.592,-18.971 -0.154,-14.081 1.125,-28.563 0.08,-42.396 -1.892,-7.546 -8.417,-6.19 -14.557,-5.575 -7.543,0.881 -16.059,-0.126 -22.99,1.941 -15.477,19.491 -30.954,38.983 -46.432,58.474 -5.227,-3.194 -10.455,-6.389 -15.683,-9.583 7.26,-6.969 14.521,-13.939 21.781,-20.908 -3.342,-5.731 -7.388,-10.644 -13.953,-12.639 -5.451,-3.11 -10.94,-6.017 -17.344,-4.078 -3.775,2.41 0.872,11.505 0.476,16.598 -0.866,4.468 5.367,15.119 -0.853,14.926 -6.574,0 -13.148,0 -19.722,0 -6.818,5.64 -4.06,9.089 3.439,11.453 5.531,2.861 11.063,5.722 16.594,8.584 -4.645,7.84 -9.29,15.68 -13.935,23.521 2.518,4.51 11.308,10.747 1.587,11.888 -5.716,4.802 -10.88,0.931 -16.07,-2.524 -8.204,-7.302 -4.16,2.751 -3.342,8.234 1.123,5.939 4.623,13.287 -4.359,13.239 -5.967,2.403 -13.143,3.278 -18.394,6.587 -8.132,14.031 -17.414,27.689 -24.84,41.95 -1.709,17.055 -2.391,34.419 -4.742,51.28 -2.379,6.142 -5.371,10.999 -12.439,7.327 -4.169,1.011 -2.819,12.901 4.749,10.802 7.041,-0.09 10.476,4.423 12.599,10.609 5.199,10.171 10.397,20.341 15.595,30.511 5.982,1.048 13.804,-1.491 16.79,5.393 4.446,4.926 7.585,11.804 15.001,12.296 1.6,0.492 3.199,0.984 4.798,1.476 z"
     id="polygon4265"
     inkscape:connector-curvature="0"
     style="clip-rule:evenodd;fill:#ffbffc;fill-opacity:1;fill-rule:evenodd;stroke:#ccc0a3;stroke-width:8.45777035;stroke-linecap:butt;stroke-linejoin:miter;stroke-opacity:1;image-rendering:optimizeQuality;shape-rendering:geometricPrecision;text-rendering:geometricPrecision" /><path
     d="m 11338.552,11532.053 c 7.753,-3.16 10.34,-8.691 7.657,-16.64 2.757,-10.738 -9.726,-5.189 -14.093,-8.878 0.195,-5.242 -9.739,-18.019 -0.182,-16.296 11.203,3.334 7.411,-5.526 5.719,-12.678 -5.516,-9.923 3.812,-9.055 11.16,-9.627 9.065,-0.985 18.13,-1.971 27.196,-2.957 -3.055,10.438 9.092,3.783 14.811,4.357 -7.32,-9.772 6.886,-4.734 12.675,-5.488 12.433,0.165 22.963,8.626 34.547,12.491 -1.087,-3.784 -7.424,-12.08 -10.528,-17.597 -7.733,-7.36 -3.571,-11.119 5.303,-13.451 11.838,-5.298 6.446,-2.886 -2.128,0.95 -8.006,6.597 -11.622,1.757 -13.849,-6.7 -22.431,-50.811 -45.088,-101.521 -67.854,-152.183 -15.963,9.844 -31.927,19.688 -47.891,29.531 -0.498,6.621 2.171,15.014 -0.16,20.609 -4.957,4.373 -15.688,4.753 -15.336,12.797 -1.224,8.32 -2.448,16.64 -3.672,24.96 9.278,6.008 20.08,10.38 25.187,20.867 3.744,8.455 13.599,9.226 20.984,13.104 2.614,6.679 5.228,13.358 7.841,20.037 -20.148,9.386 -39.341,21.212 -61.241,26.126 -10.417,1.934 -20.674,9.499 -31.272,5.061 -10.687,-2.555 -21.373,-5.11 -32.059,-7.666 -4.936,-10.743 -9.872,-21.487 -14.807,-32.231 -13.358,0 -26.716,0 -40.074,0 -2.09,17.898 -1.075,36.329 -5.342,53.853 -2.564,6.086 -13.565,0.742 -19.58,2.151 -7.32,0.349 -14.177,-2.452 -19.442,2.567 -7.994,2.29 -4.15,12.542 -6.269,18.783 -1.125,9.932 -2.25,19.863 -3.375,29.794 7.292,3.59 -5.136,12.864 5.77,15.46 5.518,5.546 12.521,6.184 19.942,5.445 5.457,1.77 18.79,-4.335 16.974,4.709 0,7.276 1.645,15.192 -5.569,19.661 -7.624,7.136 -6.8,18.949 -10.588,28.208 1.57,8.78 7.653,17.186 10.932,25.824 -2.43,6.347 -9.531,12.087 -8.967,18.823 3.313,9.177 3.829,19.977 8.887,28.14 5.179,5.891 13.564,10.24 12.274,19.24 1.584,8.323 6.734,17.562 16.278,17.384 7.404,1.677 14.684,2.935 19.439,-4.317 4.94,4.244 14.745,5.119 11.623,13.7 -0.971,9.953 -1.942,19.906 -2.913,29.858 10.743,1.451 21.487,2.902 32.231,4.353 2.391,-8.279 7.477,-11.423 15.762,-8.471 10.118,4.123 4.679,-9.037 6.015,-14.67 2.59,-4.862 13.924,-1.233 20.004,-2.707 7.921,-1.897 14.484,1.88 20.984,5.918 5.113,3.735 15.84,8.252 17.053,-1.172 7.078,-16.776 14.155,-33.551 21.233,-50.326 9.23,0.764 4.808,-11.396 7.045,-17.253 -2.956,-11.163 11.399,-3.253 8.15,-14.193 0.973,-24.395 3.431,-49.068 3.482,-73.289 -0.691,-12.551 -9.626,-3.264 -13.324,-6.391 -2.657,-7.967 -5.313,-15.934 -7.969,-23.901 3.775,-5.226 7.551,-10.453 11.326,-15.679 z"
     id="polygon4267"
     inkscape:connector-curvature="0"
     style="clip-rule:evenodd;fill:#ffbffc;fill-opacity:1;fill-rule:evenodd;stroke:#ccc0a3;stroke-width:8.45777035;stroke-linecap:butt;stroke-linejoin:miter;stroke-opacity:1;image-rendering:optimizeQuality;shape-rendering:geometricPrecision;text-rendering:geometricPrecision" /><path
     d="m 12046.305,12338.534 23.869,13.491 -2.076,29.577 10.378,4.67 53.446,3.632 14.529,16.605 0.52,19.199 8.821,5.189 57.597,-67.456 18.161,-22.832 63.824,-37.36 -10.378,-28.02 -3.113,-27.502 -18.162,27.502 h -10.377 l 1.556,-15.048 -29.058,-61.748 -87.693,-36.323 5.708,-16.605 -22.312,6.227 -92.883,-39.436 -28.02,-7.783 -13.491,26.982 16.605,17.643 11.415,23.35 -27.501,15.567 -34.247,-9.34 -11.416,20.755 15.567,4.151 -7.265,6.227 17.124,-0.519 4.67,10.897 -16.086,27.501 28.539,13.492 10.378,-6.227 11.416,7.783 -1.557,12.973 20.756,7.783 -6.746,36.323 29.059,11.416 z"
     id="path4269"
     inkscape:connector-curvature="0"
     style="clip-rule:evenodd;fill:#d2cefa;fill-opacity:1;fill-rule:evenodd;stroke:#ccc0a3;stroke-width:8.45777035;stroke-linecap:butt;stroke-linejoin:miter;stroke-opacity:1;image-rendering:optimizeQuality;shape-rendering:geometricPrecision;text-rendering:geometricPrecision" /><path
     d="m 11964.838,11496.369 56.041,43.587 66.419,14.01 33.209,-66.937 51.37,-75.24 17.643,-32.69 -118.308,-70.57 -22.312,-22.312 -46.7,63.824 38.676,25.885 z"
     id="path4281"
     inkscape:connector-curvature="0"
     style="clip-rule:evenodd;fill:#d2cefa;fill-opacity:1;fill-rule:evenodd;stroke:#ccc0a3;stroke-width:8.45777035;stroke-linecap:butt;stroke-linejoin:miter;stroke-opacity:1;image-rendering:optimizeQuality;shape-rendering:geometricPrecision;text-rendering:geometricPrecision" /><path
     id="path91"
     d="m 11878.152,10698.644 c 6.544,5.758 9.004,14.412 16.737,18.433 5.88,3.057 9.533,5.949 16.159,6.035 13.633,0.177 27.599,0.916 40.834,-2.356 10.569,-2.612 20.203,-8.581 29.055,-14.92 12.512,-8.96 22.89,-20.583 34.552,-30.625 7.187,-6.189 13.645,-13.548 21.987,-18.061 16.415,-8.88 34.119,-13.081 51.827,-13.349 6.2,-0.09 26.747,3.862 29.84,9.423 4.044,7.269 4.49,16.149 5.92,24.343 1.452,8.315 2.223,16.702 2.718,25.128 0.292,4.972 0.997,10.27 -0.785,14.92 -9.053,23.627 -18.197,47.526 -31.411,69.103 -7.735,12.632 -18.517,23.666 -30.624,32.196 l -69.104,48.687 -41.619,-69.889 -50.256,14.92 -46.331,25.914 -12.564,6.282 -92.812,71.156 -45.939,-91.878 -1.026,0.305 58.109,-17.276 40.049,-27.484 28.269,-54.183 39.196,-23.057 z"
     inkscape:connector-curvature="0"
     style="clip-rule:evenodd;fill:#ffbffc;fill-opacity:1;fill-rule:evenodd;stroke:#ccc0a3;stroke-width:8.45777035;stroke-linecap:butt;stroke-linejoin:miter;stroke-opacity:1;image-rendering:optimizeQuality;shape-rendering:geometricPrecision;text-rendering:geometricPrecision" /><path
     id="path4409-1-1"
     d="m 11015.529,10176.46 -27.706,15.214 -13.462,10.553 -18.383,14.953 -5.892,9.285 -2.461,10.068 v 1.715 c -3.119,-0.485 -7.356,-1.047 0,0.224 h -0.224 l -11.522,-1.939 -9.062,-1.715 -8.352,-1.492 -0.224,-0.224 -2.722,-0.484 -7.346,-1.492 0.26,0.261 -15.698,-2.461 -7.607,-0.485 -2.946,0.97 -0.224,0.26 -2.946,0.485 -0.745,1.716 -1.716,-0.485 -2.945,-0.746 -0.709,0.261 -0.261,0.224 -5.631,3.692 h -0.26 l -8.316,5.146 -0.746,0.484 -6.376,0.746 -0.224,0.224 h -1.23 v 0.261 l -2.2,9.546 -9.099,2.2 -2.685,0.485 -1.715,0.261 -1.455,0.261 -1.976,0.485 h -0.969 l -0.746,0.224 h -0.261 l -0.224,0.26 h -0.746 l -0.746,0.224 -0.969,0.261 -0.97,0.485 -1.715,0.484 -1.715,0.485 -0.97,0.261 -0.745,0.485 -3.692,0.969 0.261,2.462 1.23,-0.224 4.4,-1.231 0.746,7.085 0.485,4.438 1.23,-1.231 2.201,-0.969 2.2,-0.746 0.745,-0.261 2.2,-0.709 2.2,-0.746 0.261,-0.26 -1.23,-3.431 2.424,-0.485 1.23,3.207 0.485,1.454 2.237,5.892 5.37,-2.722 -0.224,-0.97 0.485,-1.715 1.23,-0.746 4.885,-3.169 1.492,-1.455 0.224,0.485 0.745,1.939 h 0.224 l -0.485,1.231 -1.23,2.946 0.522,0.261 0.708,-0.746 1.492,-0.746 0.485,-0.485 0.969,-0.261 h 1.231 l 1.454,1.231 v 0.485 l 0.261,0.745 0.746,2.685 0.224,-0.224 1.23,-0.745 1.231,-0.485 0.969,-0.746 1.231,-0.709 h 0.261 l 1.23,-1.006 2.2,-1.939 1.455,-0.485 1.976,-0.746 1.454,-0.485 v -0.746 l -0.224,-0.745 -1.006,-1.939 v -0.261 -0.224 -1.716 l 2.722,-1.715 0.708,-0.522 1.231,-0.969 1.976,-0.746 1.939,-0.97 1.976,0.485 h 0.97 l 0.746,0.485 1.976,1.491 2.424,1.455 1.23,0.746 2.946,1.454 2.946,0.261 2.685,1.715 1.007,0.969 0.708,1.977 0.261,1.454 -1.491,1.007 -1.194,0.224 -0.261,-0.709 1.455,-2.237 -1.194,-1.454 -1.006,-0.261 -2.2,-0.97 -1.977,-0.745 -0.485,1.23 -0.969,-1.454 -0.261,0.224 -8.8,6.637 -0.261,0.97 -7.57,4.661 -8.092,5.146 -4.661,-0.261 -0.484,2.461 -13.76,9.583 1.491,1.454 0.97,0.97 0.485,0.261 0.522,0.224 1.939,1.715 0.969,0.522 0.746,0.485 0.261,0.224 1.715,1.006 1.454,0.485 v 0.709 l -1.715,0.522 -0.224,0.484 h -2.945 l -1.007,0.224 -3.431,0.261 h -0.708 -1.231 l -6.153,0.224 -1.454,-0.485 -5.407,0.261 -5.146,2.461 -0.224,0.224 -0.485,0.485 -1.715,1.492 0.485,0.484 0.485,1.231 2.2,3.17 1.715,1.715 0.485,0.485 0.485,0.484 0.745,-0.224 5.407,2.462 1.455,1.193 0.261,0.522 0.484,1.193 1.455,2.946 0.745,0.522 1.977,1.454 1.939,2.946 1.23,2.2 2.2,6.6 2.461,2.946 0.224,1.231 -4.623,0.485 0.484,1.23 -2.946,0.485 -5.145,2.237 -2.462,6.6 -1.454,4.177 -0.485,0.708 -0.522,1.231 -0.708,2.2 -1.976,4.437 -0.485,1.455 -0.746,1.491 -0.709,1.939 -0.745,1.492 -0.97,2.424 -0.522,1.006 4.661,2.685 1.231,35.313 5.63,3.17 2.201,1.454 v -2.685 -1.939 l -0.97,-21.59 v -0.485 -5.631 -0.746 l -0.224,-4.884 -0.522,-10.814 -0.224,-4.139 v -0.746 l -0.261,-5.631 0.485,0.224 2.946,1.976 1.976,0.97 1.715,1.23 5.407,3.207 11.746,7.085 0.746,0.261 22.038,11.523 12.268,8.315 15.438,10.553 2.2,1.454 -5.891,13.499 -3.431,2.2 -7.085,1.939 -3.915,4.176 -0.746,1.492 -0.97,1.454 v 0.261 l -0.485,0.97 -0.745,1.23 -0.261,0.224 -0.97,2.237 -0.261,0.224 2.722,1.492 v 0.224 l -0.484,0.746 -1.007,1.23 -0.485,0.709 -0.969,1.23 -0.261,0.485 -0.97,1.715 h -0.261 l -0.485,0.746 -2.423,-1.939 -14.73,8.577 -20.583,11.746 -10.031,-3.431 -9.583,-2.685 -2.685,-0.746 -5.407,30.876 -2.424,7.607 -5.183,3.17 7.607,5.145 8.092,5.407 4.661,2.685 17.898,0.746 15.177,-3.17 1.492,-0.522 1.939,-0.224 4.437,-1.23 2.685,-0.485 1.454,-0.261 3.468,-0.708 2.685,-0.485 1.715,-0.261 1.455,-0.261 4.922,-0.969 6.115,-1.455 5.631,-1.715 5.631,-2.237 2.722,-1.455 2.946,-2.684 2.908,-4.438 2.238,-3.43 1.193,-2.424 1.752,-3.692 1.194,-3.915 1.715,-5.146 1.715,-5.892 0.522,-0.969 0.224,-0.746 0.97,-0.746 2.461,-2.424 5.146,-4.176 5.146,-5.631 4.922,-5.631 1.454,-1.976 2.946,-3.431 1.976,-2.684 2.424,-4.661 4.176,-5.146 4.885,-5.146 2.461,-2.946 4.661,-5.146 5.146,-5.407 4.4,-4.661 5.147,-4.139 4.176,-3.431 4.922,-5.407 3.431,-3.915 2.685,-2.722 2.46,-3.17 0.485,-0.261 2.946,-3.654 0.97,-1.231 1.715,-2.685 1.976,-5.406 1.455,-4.177 2.2,-6.861 1.715,-5.631 0.746,-3.915 0.485,-4.4 v -4.177 -4.4 l -0.485,-3.691 -0.746,-5.407 -0.224,-3.431 -1.23,-9.061 -1.231,-7.831 -1.23,-4.176 -1.715,-4.177 -1.716,-3.43 -1.976,-3.916 -1.715,-2.946 -2.2,-2.945 -1.231,-1.455 7.383,-7.122 3.655,-3.17 0.745,-0.745 5.631,-4.4 2.946,-0.261 6.6,-0.709 1.231,-0.261 6.861,-12.977 0.522,-0.521 1.454,-1.716 18.384,-10.031 9.546,-11.037 -1.939,-9.807 -1.716,-3.655 c 0,0 -4.813,-2.555 -4.698,-4.81 l -0.932,-1.342 h -0.522 l -1.455,-2.201 -38.482,-24.499 -8.092,-1.491 z m -230.634,26.998 -4.55,0.112 -3.505,0.112 -3.579,0.261 -3.058,0.373 -2.461,0.447 -4.027,0.858 -3.953,0.932 -10.068,2.983 -20.024,7.644 3.02,8.055 9.21,23.455 1.044,3.431 0.261,7.569 -0.41,6.675 4.885,-2.051 -0.261,-0.559 1.231,-0.56 0.261,0.597 18.793,-7.831 20.696,-8.912 2.796,-32.292 0.448,-3.021 0.783,-3.244 1.119,-3.095 0.783,-1.566 0.149,-0.373 h -3.766 z"
     style="clip-rule:evenodd;fill:#ffe9b2;fill-rule:evenodd;stroke:#ccc0a3;stroke-width:3.57976532;stroke-linecap:butt;stroke-linejoin:miter;stroke-miterlimit:4;stroke-dasharray:none;stroke-opacity:1;image-rendering:optimizeQuality;shape-rendering:geometricPrecision;text-rendering:geometricPrecision"
     inkscape:connector-curvature="0" /><path
     inkscape:connector-curvature="0"
     id="path4409"
     d="m 11162.597,10124.571 -4.848,5.332 -7.383,-2.983 -4.811,-1.752 -11.932,30.39 5.966,4.289 0.336,0.633 -0.485,5.557 0.858,4.027 0.112,0.596 v 0.187 l -0.746,8.875 -1.23,6.525 -2.387,20.696 1.417,0.522 -0.224,1.193 4.811,1.231 1.23,0.298 h 0.112 l 1.231,-5.109 2.163,-1.678 0.521,-0.41 0.56,-0.522 4.363,-5.929 2.722,1.305 0.932,-1.902 -2.573,-1.342 v 0.07 l -0.597,-0.224 2.685,-5.556 0.448,-1.156 -0.07,-0.07 0.373,-0.746 0.559,-1.081 0.746,0.149 0.08,-0.373 1.827,0.261 0.149,-0.149 h 0.224 0.224 l 2.573,0.373 1.118,0.187 -0.08,0.335 1.193,0.187 h 0.485 l 0.187,-0.373 h 1.23 0.149 1.38 l 2.722,-7.682 -6.488,-3.878 1.119,-7.01 5.817,-11.001 0.596,-1.156 0.522,0.15 0.07,-0.113 1.044,0.41 0.56,0.224 0.298,0.112 3.505,0.373 h 0.07 l 0.56,-3.356 v -0.223 l 1.417,0.223 16.743,2.387 0.857,0.112 -0.671,-2.275 -9.36,-1.342 -7.42,-1.081 -0.746,-0.112 1.753,-8.726 -7.458,-0.187 1.976,-3.132 0.07,-0.07 1.193,-2.125 -0.07,-0.224 -3.617,-2.163 -2.051,-1.193 -2.461,-2.648 -1.566,-1.64 -0.149,-0.113 -0.336,-0.335 -0.783,-0.821 z m -148.411,53.361 -27.706,15.214 -13.462,10.553 -18.383,14.953 -5.892,9.285 -2.461,10.068 v 1.715 c -3.119,-0.486 -7.356,-1.047 0,0.224 h -0.224 l -11.522,-1.939 -9.062,-1.716 -8.352,-1.491 -0.224,-0.224 -2.722,-0.485 -7.346,-1.491 0.261,0.261 -15.699,-2.461 -7.607,-0.485 -2.946,0.969 -0.224,0.262 -2.945,0.484 -0.746,1.716 -1.715,-0.485 -2.946,-0.746 -0.709,0.261 -0.261,0.224 -5.63,3.691 h -0.262 l -8.315,5.146 -0.746,0.485 -6.376,0.746 -0.224,0.224 h -1.23 v 0.261 l -2.201,9.546 -9.098,2.2 -2.685,0.484 -1.715,0.261 -1.455,0.262 -1.976,0.484 h -0.969 l -0.746,0.224 h -0.261 l -0.224,0.261 h -0.746 l -0.745,0.224 -0.97,0.261 -0.97,0.485 -1.715,0.484 -1.715,0.485 -0.97,0.261 -0.745,0.485 -3.692,0.969 0.261,2.461 1.231,-0.223 4.4,-1.231 0.745,7.085 0.485,4.438 1.231,-1.231 2.2,-0.97 2.2,-0.745 0.746,-0.261 2.2,-0.709 2.2,-0.746 0.261,-0.261 -1.231,-3.43 2.424,-0.485 1.231,3.207 0.484,1.454 2.238,5.892 5.369,-2.722 -0.223,-0.97 0.484,-1.715 1.231,-0.746 4.885,-3.169 1.491,-1.455 0.224,0.485 0.746,1.939 h 0.224 l -0.485,1.231 -1.231,2.946 0.522,0.26 0.709,-0.745 1.491,-0.746 0.485,-0.485 0.97,-0.261 h 1.23 l 1.454,1.231 v 0.485 l 0.262,0.745 0.745,2.685 0.224,-0.224 1.231,-0.745 1.23,-0.485 0.97,-0.746 1.23,-0.709 h 0.261 l 1.231,-1.006 2.2,-1.939 1.454,-0.485 1.976,-0.746 1.455,-0.485 v -0.745 l -0.224,-0.746 -1.007,-1.939 v -0.261 -0.224 -1.715 l 2.722,-1.716 0.709,-0.522 1.23,-0.969 1.977,-0.746 1.939,-0.97 1.976,0.485 h 0.97 l 0.745,0.485 1.977,1.492 2.424,1.454 1.23,0.746 2.946,1.454 2.946,0.261 2.685,1.715 1.006,0.97 0.709,1.976 0.261,1.454 -1.492,1.007 -1.193,0.224 -0.261,-0.709 1.454,-2.237 -1.193,-1.454 -1.007,-0.261 -2.2,-0.97 -1.976,-0.746 -0.485,1.231 -0.969,-1.454 -0.261,0.223 -8.801,6.638 -0.261,0.97 -7.569,4.661 -8.092,5.146 -4.661,-0.261 -0.485,2.461 -13.76,9.583 1.492,1.454 0.969,0.97 0.485,0.261 0.522,0.224 1.939,1.715 0.97,0.522 0.745,0.485 0.261,0.223 1.716,1.007 1.454,0.485 v 0.708 l -1.715,0.523 -0.224,0.484 h -2.946 l -1.007,0.224 -3.43,0.261 h -0.709 -1.23 l -6.153,0.224 -1.454,-0.485 -5.407,0.261 -5.146,2.461 -0.224,0.224 -0.485,0.485 -1.715,1.491 0.485,0.485 0.485,1.23 2.2,3.17 1.715,1.715 0.485,0.485 0.484,0.485 0.746,-0.224 5.407,2.461 1.454,1.193 0.261,0.523 0.485,1.193 1.454,2.946 0.746,0.522 1.977,1.454 1.939,2.946 1.23,2.2 2.2,6.6 2.461,2.946 0.224,1.23 -4.624,0.485 0.485,1.231 -2.946,0.484 -5.146,2.238 -2.461,6.6 -1.454,4.176 -0.485,0.709 -0.522,1.23 -0.708,2.2 -1.977,4.438 -0.485,1.454 -0.745,1.492 -0.709,1.939 -0.746,1.491 -0.969,2.424 -0.522,1.007 4.661,2.685 1.231,35.313 5.63,3.169 2.2,1.455 v -2.685 -1.939 l -0.969,-21.591 v -0.484 -5.631 -0.746 l -0.224,-4.885 -0.522,-10.814 -0.224,-4.139 v -0.746 l -0.261,-5.63 0.485,0.223 2.946,1.977 1.976,0.969 1.715,1.231 5.407,3.207 11.746,7.085 0.746,0.261 22.038,11.522 12.268,8.316 15.438,10.552 2.2,1.455 -5.892,13.498 -3.43,2.2 -7.085,1.94 -3.915,4.176 -0.746,1.491 -0.97,1.455 v 0.261 l -0.484,0.969 -0.746,1.231 -0.261,0.224 -0.97,2.237 -0.261,0.224 2.722,1.491 v 0.224 l -0.484,0.746 -1.007,1.23 -0.485,0.709 -0.97,1.23 -0.261,0.485 -0.969,1.715 h -0.261 l -0.485,0.746 -2.424,-1.939 -14.729,8.577 -20.584,11.746 -10.03,-3.431 -9.584,-2.685 -2.685,-0.745 -5.407,30.875 -2.423,7.607 -5.184,3.17 7.607,5.146 8.092,5.406 4.661,2.685 17.899,0.746 15.177,-3.169 1.417,-0.485 1.491,4.363 7.085,19.129 11.299,-1.231 5.631,-0.484 7.346,-0.746 8.091,-0.746 0.97,-0.224 5.892,-0.745 h 0.745 l 4.662,-0.97 4.661,-3.654 8.315,-1.231 v -2.461 l 0.97,-0.485 -0.485,-3.43 h -0.969 l -0.224,-1.492 -0.261,-9.807 -0.224,-12.492 0.224,-1.454 1.491,-3.431 21.554,6.862 8.091,-1.007 6.116,4.922 -1.231,1.23 5.407,1.716 -10.031,9.807 7.57,2.424 23.045,3.691 0.261,-9.061 v -1.231 l 2.424,0.224 3.691,1.231 0.746,0.484 2.685,-0.223 3.169,0.223 1.492,-2.461 1.715,-2.908 1.939,0.708 1.716,-0.969 1.491,-4.4 -0.485,-0.485 7.831,-14.729 1.976,-4.177 3.17,-2.685 5.892,-5.145 0.224,-3.431 v -1.454 l -0.97,-19.13 0.708,-9.061 -0.969,-1.492 1.231,-1.23 -1.231,-1.939 10.292,-11.523 6.376,-7.122 5.407,-6.115 3.654,-4.177 1.007,-0.969 2.946,-2.946 0.485,-0.746 0.224,0.261 -0.224,0.97 -0.485,0.969 0.485,0.97 0.969,-0.97 5.892,-6.6 -0.485,-0.746 5.37,-5.63 0.485,-0.746 v -0.97 l -6.6,-7.346 11.261,-8.576 15.699,-9.099 8.837,-5.369 2.909,-2.201 2.946,-1.976 7.383,-4.4 6.339,-4.661 0.261,-0.261 -0.261,-0.485 -0.97,-1.715 -1.23,-2.2 v -0.224 l -2.424,-2.946 -3.691,-4.176 -0.224,-0.485 -3.692,-2.685 -4.4,-2.237 -7.122,-2.909 -8.838,-3.691 -12.976,-5.892 -4.4,-1.454 -7.869,-4.177 -0.708,-0.745 -4.661,-2.424 -0.485,-0.261 -0.261,-0.224 -0.708,-0.261 -8.353,-5.631 -5.407,-3.654 -4.139,-3.207 -2.946,-1.715 -2.461,-2.461 -8.092,-6.6 -12.231,-10.069 -0.04,0.04 -0.895,0.336 0.04,-0.41 0.187,-0.187 5.63,-4.4 2.946,-0.261 6.6,-0.708 1.231,-0.261 6.861,-12.977 0.522,-0.522 1.454,-1.715 18.384,-10.031 9.546,-11.038 -1.939,-9.807 -1.715,-3.654 c 0,0 -4.814,-2.555 -4.699,-4.811 l -0.932,-1.342 h -0.522 l -1.454,-2.2 -38.483,-24.499 z m -230.634,26.997 -4.55,0.112 -3.505,0.112 -3.58,0.261 -3.057,0.373 -2.461,0.448 -4.028,0.857 -3.952,0.933 -10.068,2.983 -20.025,7.644 3.021,8.055 9.21,23.454 1.044,3.431 0.261,7.57 -0.41,6.675 4.885,-2.051 -0.261,-0.56 1.231,-0.559 0.261,0.597 18.793,-7.831 20.696,-8.912 2.797,-32.293 0.447,-3.02 0.783,-3.244 1.119,-3.095 0.783,-1.566 0.149,-0.373 h -3.766 z m 307.897,257.296 -2.909,15.4 13.648,9.285 -2.349,12.306 12.566,9.695 1.529,12.604 -16.444,13.014 1.193,18.122 6.563,14.021 0.932,137.597 32.74,123.577 -4.661,20.583 14.021,11.224 22.485,3.767 41.167,-12.194 117.014,29.98 170.486,-1.864 -10.068,-43.927 -5.481,-13.349 -29.123,-33.486 -3.095,-1.864 9.434,-14.133 -3.915,-10.217 -9.435,-3.916 -4.698,-7.868 h -3.17 l -12.566,-11.783 -10.963,-21.963 -23.791,-14.953 -17.824,19.427 -249.987,-220.379 0.186,-20.323 -8.8,-6.413 h -6.339 l -6.003,-1.678 z m -1878.1837,66.71 -4.8849,7.272 -0.5966,1.081 -0.895,1.342 -1.7153,2.797 -1.9763,3.319 -2.3492,3.878 -1.0069,3.766 -0.6712,2.536 -0.5593,2.125 -0.522,2.051 7.9053,2.2 23.8278,7.122 -0.075,1.268 -0.3356,5.295 -0.1492,2.2 -0.4101,3.021 -0.8204,3.58 -0.8204,2.498 -2.1627,5.519 -2.7594,6.6 -2.0137,4.512 -1.6034,3.692 -0.1492,1.268 3.0205,3.393 -0.5221,0.671 -1.3051,-0.41 -1.0441,0.149 -0.7831,0.04 -1.1186,-0.04 -0.8577,-0.07 -1.0814,-0.224 -2.7221,-0.597 -1.9017,-0.633 -0.9323,-0.672 -0.8203,-0.559 -4.0646,-1.193 -3.4306,-0.97 -4.2882,-1.193 -1.8272,-0.261 -0.8949,-0.149 -4.1392,-0.559 1.2306,-6.191 0.037,-4.81 -1.9017,-4.698 -0.075,0.969 -0.261,4.139 0.5966,0.709 -0.2237,3.729 -0.2611,4.288 -0.2983,1.529 -0.075,0.149 -0.9322,3.282 -0.6339,0.112 -0.5966,0.149 0.1118,3.095 -1.0441,10.217 -0.261,3.58 -0.1492,3.729 -1.4543,0.07 -1.2678,0.112 -1.3051,0.07 -1.3052,0.07 h -0.3356 l -0.783,0.07 -3.99,0.261 -0.4847,0.04 -0.4475,6.19 -2.7967,7.98 -1.3424,2.797 -0.1492,0.186 -0.9322,1.38 -1.5662,0.336 -1.5661,-0.112 -9.3223,-1.343 0.2237,-0.969 -0.6339,-0.448 -4.251,-2.834 -0.1118,-0.112 -10.1053,-8.166 -1.6781,-0.634 0.1118,-0.411 -0.3356,-1.193 -5.3323,-1.379 -3.99,-1.007 -2.0509,-0.448 1.1933,-1.379 2.9458,-4.587 2.9086,-1.492 -3.6171,-1.305 -4.773,-1.305 -0.8576,-0.298 -1.8645,-0.709 -1.0068,-0.41 -1.1933,-1.603 -0.9322,-1.305 -1.0068,-1.455 -0.7831,-1.193 -0.3356,-0.559 -0.4474,-0.932 -2.5357,-6.153 -1.5662,-3.766 -2.5729,-6.153 0.037,-0.597 1.2678,-2.386 0.2984,-0.373 1.9763,-0.932 0.1491,-0.187 0.2984,-1.566 1.9017,-10.926 -3.2069,-11.709 -0.4474,-1.193 -0.2238,-0.186 -1.3797,-3.655 -1.1186,-2.647 -0.7085,-1.79 0.2983,-0.149 0.4102,-0.187 0.1491,-0.07 3.1696,8.204 0.4102,0.485 2.8712,-0.522 4.8104,10.18 2.2746,7.122 25.6177,-3.953 28.4144,-4.064 3.4306,-19.764 -7.1223,-3.803 -12.7156,-13.387 -46.6115,17.228 -1.156,0.373 -3.2068,1.267 -0.4102,0.15 -1.156,0.41 -13.536,5.22 -16.5191,6.228 -10.7766,3.99 -11.8207,4.437 -6.712,2.61 -2.3865,0.97 -6.0036,2.274 -1.7526,0.672 -9.9189,3.729 -1.9018,0.745 -0.9322,0.522 -4.0272,1.753 -0.7831,0.186 -0.7458,0.336 -1.8645,0.671 v 0.224 l -0.6712,0.336 -0.2983,-0.113 -0.9695,0.113 -3.5425,1.193 -1.8644,0.746 -0.1865,0.223 -0.2983,-0.04 -2.6475,0.858 -0.8577,0.41 -3.4306,1.268 -1.4916,0.82 -0.1864,0.336 -0.3729,-0.149 -3.7662,1.23 0.1491,15.55 -0.1864,0.186 h -1.156 l -1.7899,0.04 -1.7898,0.523 -4.6239,3.654 -5.668,5.258 -4.8103,4.735 -2.834,3.506 -1.1186,1.491 -5.929,7.756 -0.7458,1.007 -5.7053,7.57 -3.7662,4.997 -7.607,10.105 -4.1018,6.563 -19.726,0.969 -4.6984,-0.112 -13.8716,-5.481 -6.7494,-2.648 -13.1631,-4.698 -6.2645,-2.871 v 3.915 l -0.4848,3.319 0.4102,5.444 -3.5425,1.939 -3.1323,1.007 -1.4543,0.895 -0.6339,1.081 -2.0509,11.075 -1.9763,1.976 -3.8781,2.163 -0.2983,0.149 -4.4374,2.536 -6.8613,-1.193 -8.7629,-1.828 -0.037,3.17 0.3357,2.759 -0.7831,2.387 -0.8204,2.498 0.5966,4.512 -1.1932,3.319 0.7085,5.519 -1.1187,2.125 -0.1491,0.261 0.2237,2.834 v 2.499 l -5.2951,-3.766 -2.0509,-1.492 -1.3051,2.573 2.0136,1.529 7.5324,4.959 2.1255,1.38 0.4848,0.858 0.2983,0.596 0.1491,0.56 0.5221,2.386 0.1864,0.932 3.2069,12.306 1.2678,2.946 0.9323,2.983 0.261,1.64 0.1118,4.699 0.1118,0.708 2.7221,8.502 0.075,0.858 0.5221,2.125 -0.5221,0.113 1.1933,5.071 1.3051,5.519 -2.9459,0.634 h -0.2235 l 1.1187,3.542 -0.9322,0.559 0.037,1.678 0.075,5.631 -0.1865,0.112 0.075,0.522 -0.783,0.56 0.1491,0.335 -5.7425,3.692 -5.3324,-1.119 0.1865,0.709 0.1491,0.634 -1.417,0.07 -3.5425,-0.746 -3.9153,-0.97 -0.9323,-0.783 -0.2983,-0.932 -1.8271,-0.41 -5.9663,-0.04 -6.8239,1.454 -1.3425,-0.149 -0.6712,-0.149 -0.783,0.04 -1.3052,0.41 -0.6339,0.261 -1.1186,0.746 -1.8272,0.671 -0.6712,0.298 -0.9323,-2.125 -1.7898,-4.587 -3.095,3.244 -1.8645,-1.342 -0.9695,-2.088 -1.678,-3.729 -2.0882,3.915 1.7526,1.939 4.1763,4.624 1.7899,3.692 0.8577,1.715 13.9834,-4.139 17.0412,-0.186 14.8784,2.796 12.5665,2.946 11.9698,1.529 6.0409,-1.081 11.3359,-1.007 6.5256,0.447 1.7153,0.448 2.2747,-0.97 1.3051,-0.895 4.4747,-2.2 2.6848,-0.969 7.9799,-2.611 3.9527,-0.634 9.7325,1.418 4.6238,1.789 3.7289,2.312 5.7799,5.817 0.783,2.872 1.0069,-0.933 1.0068,-0.932 -4.3256,-6.898 -2.3865,-3.841 -2.3865,-3.356 0.3729,-3.356 15.6615,3.915 0.3356,-1.454 3.0204,-7.309 0.5593,-0.373 -0.522,-2.349 0.2983,-0.335 6.6002,-22.821 0.1864,-1.231 -5.2205,0.261 -13.7224,0.447 -4.1018,0.04 -4.9968,0.224 -5.8171,0.373 -2.3865,0.336 -5.7425,1.603 -9.3223,2.983 -5.0341,1.977 -3.4679,1.118 -1.3424,0.261 -0.7458,-0.149 -0.261,-0.07 -1.0068,-0.559 -0.8204,-0.746 -0.7085,-0.97 -0.6339,-1.379 -0.3356,-1.604 0.037,-1.641 0.4102,-5.705 0.1118,-7.01 -0.3356,-1.082 -0.6712,-0.671 -0.7831,-0.335 -13.0139,1.305 -3.2814,0.522 -0.5967,-2.461 -1.0441,-3.282 -1.0068,-2.423 -1.0068,-1.828 -1.156,-1.305 -1.0441,-1.044 -0.6712,-0.783 -1.0441,-1.603 -1.1932,-2.014 -1.156,-1.156 -1.3797,-0.932 -0.522,-0.634 -0.2983,-0.858 -0.075,-0.671 0.2237,-1.753 v -0.82 l 7.1223,-1.156 1.1186,0.07 1.678,-0.112 1.4543,-0.261 1.2306,-0.336 0.7458,-0.112 0.7457,0.07 0.5594,0.187 0.4847,0.335 0.4848,0.746 3.356,5.817 0.4848,0.932 0.6712,1.492 0.8204,1.976 1.1559,3.655 0.6339,1.976 0.5221,1.305 0.6339,1.081 0.7458,0.933 0.7831,0.559 0.8576,0.373 1.1187,0.336 1.0814,1.454 0.7831,0.298 0.8203,0.82 0.4102,1.306 -0.1118,7.085 -0.4102,5.742 v 1.529 l 0.2983,1.492 0.5966,1.267 0.6713,0.895 0.7085,0.672 0.9695,0.559 0.783,0.149 1.2306,-0.224 3.3933,-1.118 5.0713,-1.939 9.3223,-3.021 5.7799,-1.603 2.4238,-0.373 5.8544,-0.373 4.9967,-0.224 4.1019,-0.04 13.7224,-0.41 5.3696,-0.298 0.037,-0.224 1.0068,-0.149 1.9763,-2.648 0.075,-0.522 0.4102,-0.559 0.4474,-0.112 7.3087,-9.136 2.6848,-3.692 6.4138,-8.576 3.1696,-4.326 3.1323,-4.512 2.4238,-3.169 0.2237,-0.821 1.6407,-1.901 2.8713,-3.804 4.2883,-6.153 2.4238,-3.915 2.6102,-6.451 1.1933,-3.916 0.8576,-3.057 0.3729,-5.295 h -0.3354 l 0.1118,-1.231 0.2983,0.04 0.2237,-3.43 0.037,-6.563 0.8949,-5.892 0.5966,-7.458 0.5594,-5.146 0.5593,-6.637 0.261,-3.058 0.7832,-9.284 0.5594,-8.39 0.3729,-5.295 -0.3356,-0.04 0.1491,-1.902 0.3356,0.04 0.3356,-3.356 0.4848,-6.153 h -0.1492 l 0.5967,-8.017 0.2983,-1.678 1.7526,0.373 6.8612,0.485 6.8612,-1.828 0.8204,-3.654 12.0444,-3.878 1.7526,9.024 6.0035,12.753 0.2983,0.634 1.6408,3.02 3.0204,4.475 1.9017,-0.671 9.0613,-5.594 0.4848,0.933 0.1491,-0.113 0.2984,0.07 1.2678,2.424 0.4102,0.783 0.6339,1.529 -2.1255,3.953 1.156,1.38 0.5593,0.969 -1.939,1.604 2.4983,2.423 -4.0272,4.401 -3.4679,4.101 -1.7899,1.455 -1.0441,-1.156 -1.7526,1.901 -2.0509,2.461 -1.1186,0.933 -1.6408,3.281 0.3356,1.119 1.156,1.081 5.2205,4.065 -4.7357,4.885 2.7967,8.8 0.7457,2.163 0.4848,1.491 -8.6511,19.875 3.3187,1.231 -4.9594,10.627 -7.4579,-1.566 0.075,2.424 1.4543,26.55 -0.5594,1.231 -2.2746,1.006 -2.6102,0.07 -12.8648,-2.834 -2.3865,-1.939 -3.1323,-0.149 -1.7899,21.777 21.4786,-0.149 11.224,0.04 6.5257,-0.187 2.4983,0.187 10.702,-0.07 0.1118,0.932 0.8577,0.932 2.0509,3.58 1.0441,0.709 0.7458,1.64 0.522,3.207 0.2983,3.58 0.3357,0.186 -1.2306,1.79 0.075,1.343 1.939,4.773 0.5221,1.491 0.3729,1.343 1.2305,5.556 2.2374,11 -0.075,0.261 6.2646,-1.38 5.295,-1.081 8.7257,-1.529 7.2714,-1.193 11.4105,-2.76 10.18,-1.976 10.1054,-1.827 7.607,-1.529 1.4542,-0.186 0.2611,-3.841 1.0441,-4.214 1.0813,-2.797 0.7458,-3.356 0.634,-1.454 1.6407,-4.512 1.417,-1.156 -1.7153,-3.505 -0.075,-3.729 0.6339,-2.051 2.9086,-1.491 7.8307,-3.804 8.0918,-3.915 1.6407,-0.858 4.4002,-2.161 5.7798,-2.685 7.2341,-3.281 2.2001,-0.858 2.0509,-0.709 2.0882,-0.596 1.9017,-0.448 0.8204,-0.112 8.3528,-1.23 1.7153,-0.299 0.8203,-0.07 1.9764,-0.298 -0.2238,-0.186 -1.1932,-2.499 -1.2679,0.522 -0.4847,-0.708 -0.8204,-1.268 -0.7085,-1.082 -0.1491,-0.372 -0.7085,-1.567 -0.5594,0.262 -0.5593,-1.306 0.8204,-0.484 -0.9323,-2.275 v -0.04 h -0.074 l -1.2306,0.82 -0.4475,-2.013 0.2611,-0.224 0.1864,-0.261 0.1865,-0.224 2.0509,-1.715 -2.1628,-2.871 -2.9086,-3.841 -1.6034,-2.126 1.4543,-1.156 1.3797,-1.081 1.0068,-0.821 9.6206,-8.129 12.0071,15.065 2.7594,3.692 2.6849,3.206 0.2983,0.448 2.9458,4.325 2.2001,3.953 2.3492,-1.454 1.156,-0.597 -0.4475,-0.932 0.8949,-0.597 -0.074,-0.112 1.4542,-1.007 0.037,-0.04 v -0.04 l 0.8576,-0.559 2.4238,3.505 7.5697,-3.393 7.3087,-3.244 0.895,-0.448 3.4679,-1.454 1.5288,-0.671 1.5662,-0.522 1.7526,-0.448 0.9695,-0.112 1.2678,-0.112 1.0068,-0.04 1.8272,0.149 0.522,-0.336 1.1933,-0.223 1.3424,-1.231 0.895,-1.193 -8.2783,-13.2 4.7358,-3.841 h 1.2678 l 11.597,3.02 7.1222,6.973 -7.0104,6.936 -6.8239,2.797 -1.9763,0.149 -1.3052,-1.081 -1.3797,1.305 -0.6339,2.051 -1.5288,-0.224 -1.417,-0.149 -2.2001,0.186 -0.8576,0.112 -1.5289,0.373 -0.7085,0.187 -0.7458,0.298 -0.4847,0.186 -3.8408,1.678 -1.4543,0.597 -7.3087,3.281 -4.5866,2.089 -1.3051,0.559 1.7153,1.79 1.0068,1.379 0.4848,-0.372 0.9322,1.267 0.2238,0.299 2.0136,3.132 1.1559,1.566 1.9764,3.655 4.1391,3.579 0.1491,-0.186 16.7429,15.549 1.1932,-1.64 1.0441,-1.454 4.1764,3.654 2.2001,-3.431 2.6475,-3.542 1.6408,-2.238 -3.095,-2.498 3.0204,-6.041 1.6034,-3.244 1.3424,-2.722 1.0814,-2.163 3.3933,-5.183 4.512,-3.132 2.6476,-0.672 30.5025,-14.915 3.0578,-0.746 3.2441,-0.41 3.4306,0.186 5.5934,1.454 -1.2305,14.804 -1.6035,6.078 -0.8203,3.133 -4.3256,16.407 -3.9153,0.746 -17.4141,-27.594 -11.6715,16.109 -3.1696,-2.648 -2.4238,2.946 -2.6103,-1.939 -2.6848,3.058 -0.037,0.484 5.929,4.848 -0.6712,0.746 -2.2747,2.685 -1.3051,1.566 -6.5256,7.719 -8.0172,9.434 -0.9695,0.969 1.678,1.753 -0.2237,0.224 1.939,1.902 1.7153,1.827 1.7153,1.827 1.7526,1.827 1.3797,1.417 1.3424,1.454 1.678,1.753 1.3797,1.529 0.4102,0.484 -6.451,7.682 -19.6142,21.18 -8.2409,11.15 h -3.1696 l -3.6543,-12.119 -3.3933,-6.861 -6.4511,-5.407 -11.8952,-16.594 -1.8645,-5.332 1.3051,-3.841 -2.2,-7.048 -4.0645,-6.637 -10.8512,-6.228 -19.0921,-4.996 -14.3563,0.04 h -0.7458 l -16.7429,4.288 -8.6511,5.668 -2.2373,3.207 -5.5561,12.641 -1.156,8.576 0.7831,13.499 -2.0509,11.746 2.3492,1.753 0.8204,0.373 3.7289,1.193 -4.251,14.207 1.7153,1.417 3.8035,0.04 11.2986,-2.386 0.1119,-0.15 1.8644,-0.41 1.3797,-0.708 2.0882,-0.299 5.7798,1.94 0.9323,1.267 3.5797,1.678 0.7831,0.858 4.8103,4.512 1.7526,1.231 0.4848,-0.597 1.3797,1.118 3.0577,1.865 1.7153,1.342 2.7221,2.312 0.9322,0.709 1.1933,0.671 1.0441,0.448 0.9322,0.41 7.9799,2.312 0.7085,0.261 2.7967,1.193 6.4137,7.868 2.4984,-1.417 0.1492,-0.04 2.4611,0.746 0.4102,3.468 0.3728,2.312 0.1119,0.149 3.1695,0.895 0.037,-0.336 2.9831,0.224 14.692,6.414 10.1426,8.837 6.1527,4.288 2.312,-3.728 30.2415,18.159 1.0441,1.007 4.3629,0.485 h 3.617 l 11.1868,-1.156 3.3187,-1.231 3.729,-2.647 3.7289,-3.916 1.7526,-2.796 1.3051,-2.946 1.1933,-3.319 1.3051,-3.654 0.1491,-2.126 2.2747,-13.797 0.075,-1.156 2.0136,-2.684 19.1293,-15.55 6.5629,-4.661 0.1492,0.186 75.8463,-73.907 -0.4475,-3.17 4.2137,-3.094 4.0272,-2.201 4.9968,-1.379 3.2069,0.149 4.2136,0.634 3.5052,1.156 0.1492,-0.336 0.1864,-0.857 -1.2305,-1.119 -2.0136,0.41 -3.4679,-1.007 -5.3697,0.187 -2.9085,-0.672 -4.1019,-0.335 -0.8203,-0.224 0.1491,-0.932 -12.4546,-3.319 2.8713,-6.936 0.1865,-0.41 -0.037,-1.119 0.2983,-1.864 -1.4915,-0.559 0.2983,-2.014 1.4916,0.336 1.7525,-25.991 1.6408,-11.709 -5.3697,-21.143 -18.6446,-20.77 -0.7085,3.729 -19.8751,-9.844 -19.726,-0.522 0.5593,-1.641 -0.7085,0.149 -0.4102,0.112 -1.4915,0.336 -0.7085,0.186 v 0.112 l -1.1187,0.411 -0.1492,0.112 0.1865,0.857 -1.2679,0.448 -0.2237,-0.932 -0.8576,0.708 -0.5967,0.261 -0.5593,0.224 -0.5593,0.261 -0.5967,0.224 -0.2237,-0.858 -0.6712,0.261 -0.7458,0.261 0.1492,0.559 -0.5594,0.336 -0.037,-0.04 v -0.04 l -0.5966,0.224 v 0.04 l 0.3729,1.789 -1.9764,0.448 -0.3356,-1.529 -2.6475,0.97 -0.7831,0.223 0.037,0.672 -3.3933,2.162 -0.5966,0.933 -1.8645,1.454 -2.5729,2.2 -0.7831,-0.97 -0.5593,0.485 -0.7458,1.715 -1.4543,1.492 -1.4543,1.641 -1.3797,1.566 0.1492,0.112 -1.1933,1.641 -1.0814,1.491 -1.4542,2.051 -1.0441,1.641 -0.1119,-0.04 -1.1559,1.715 0.037,0.04 -1.0441,1.715 -1.0814,1.716 1.0068,0.783 -0.783,1.678 -0.1865,-0.149 0.261,1.715 -0.6339,1.044 -0.8949,1.119 -0.4475,0.08 -0.7085,1.193 h -0.5593 l -1.156,2.461 -1.1187,3.58 -1.0441,-0.41 -1.1559,2.983 v 0.224 l -1.3052,-0.149 -0.037,0.186 -0.3356,-0.112 0.075,-0.149 -5.2951,-2.2 -1.5288,-0.709 -3.729,-1.678 -0.8576,-1.38 0.5966,-2.349 0.4102,-4.064 3.2815,1.379 -0.4475,-0.895 -3.6544,-3.654 v -0.969 l 1.9764,-0.746 0.4101,1.044 3.1323,-1.417 0.4475,0.335 2.3865,-4.81 -2.5729,-1.641 0.2237,-2.349 0.2983,-3.095 2.6103,-4.102 2.1254,-2.051 2.5357,2.275 2.1628,-0.522 -0.075,-0.373 0.037,-0.634 11.6343,-12.604 10.2172,-8.725 0.9323,0.298 -5.0341,-6.936 -6.9358,-8.912 -6.0408,9.583 -15.6988,3.133 -10.7766,6.563 -1.3424,-1.604 -12.38,5.668 -5.668,-8.278 -2.1628,-0.559 -1.8644,-0.485 -8.3901,-5.78 -2.6475,2.61 -2.1255,0.448 1.1187,1.379 1.4542,-1.267 2.5357,-2.275 2.7221,2.088 1.4916,0.895 1.939,1.566 1.7153,2.312 0.4102,0.299 2.4611,2.088 2.6103,2.013 -5.1087,4.475 -1.417,1.268 -0.1118,0.07 -1.4543,1.268 0.2611,0.969 -0.2611,4.102 -0.3728,3.132 -0.3729,2.35 -0.895,5.183 -0.7458,0.447 -1.1932,0.07 h -0.261 l -0.2984,3.99 -1.4542,0.04 -1.5662,0.04 -5.8917,0.149 -3.1323,-0.41 -4.0645,-0.41 -1.5661,-0.299 -0.7831,0.15 -1.7899,0.447 -2.9458,0.932 -2.4238,1.417 -0.1865,-0.186 -2.3492,1.864 -6.6002,-8.278 0.5966,-0.522 3.3188,-2.983 3.9153,-3.468 2.834,-2.536 -0.3356,-0.41 0.7458,-0.671 0.1118,-0.08 0.4848,-1.156 0.8203,-3.356 1.4916,-1.268 7.1595,-6.525 1.4543,-1.268 4.1764,-3.767 -2.0136,-2.535 -4.251,-5.668 v 3.02 l -1.4543,3.133 -3.5052,1.156 -7.9426,-3.767 -14.2817,-9.322 1.2678,-1.79 1.7526,-2.088 1.4543,-1.715 1.4542,-1.678 1.4543,-1.753 1.417,-1.715 1.4543,-1.716 1.7153,-1.976 0.261,-1.268 -4.0645,-8.091 -0.3729,-15.737 -2.0136,-2.162 -1.8645,-1.977 -1.1186,-1.23 -1.1933,-1.231 -1.156,-1.23 -1.1186,-1.231 -1.156,-1.23 -1.156,-1.231 -1.1187,-1.23 -0.1118,-0.113 -1.0441,-1.118 -1.1559,-1.231 -1.1187,-1.23 -1.0441,-1.119 -0.1118,-0.112 -1.1187,-1.193 -0.9695,-1.045 -0.1865,-0.186 -1.1559,-1.231 -0.8577,-0.93 -0.2983,-0.336 -1.1559,-1.23 -1.1187,-1.194 2.1627,-2.2 0.8204,0.858 1.8645,-1.865 0.1118,-0.112 0.2983,-0.261 0.8949,-0.932 -3.6543,-3.803 1.156,-1.194 -0.5221,-0.223 -2.2001,-0.933 -2.461,-1.118 -1.9764,-1.007 -1.5288,-2.2 -6.1528,-3.692 z m 586.5967,108.549 -8.241,2.387 -5.3323,0.484 -5.2578,1.268 -2.3118,-1.156 -0.4848,-0.07 -11.2241,21.628 -1.2305,0.634 -5.9663,-1.305 -11.6342,-0.932 -1.8645,8.837 -2.3119,4.736 0.1491,1.678 -0.9695,3.617 -1.0814,3.729 1.1932,0.298 -0.261,0.932 -7.607,15.326 -3.5051,11.299 -0.037,-0.04 -1.7155,0.41 -6.6001,3.841 1.8645,0.82 0.037,1.268 1.8271,0.932 -1.678,2.163 -2.6848,-2.163 4.139,8.316 2.8714,4.81 3.4306,4.4 3.8407,4.96 2.0136,1.566 11.9326,4.362 5.8171,3.282 7.0104,5.892 2.9831,1.305 4.2136,1.193 10.1055,0.41 3.2068,1.119 7.1969,6.115 8.6138,6.862 0.037,-1.939 0.4474,-2.723 2.9085,-5.108 2.0137,-6.712 0.1864,-0.932 3.9527,-0.523 0.6712,-2.461 -3.617,-0.112 0.037,-1.379 v -5.445 l 3.6169,0.113 14.2447,-1.753 2.1626,-1.193 2.3493,-1.343 1.6035,-1.379 0.2609,-0.56 0.895,-0.485 7.8307,-3.803 2.3493,-0.112 6.0781,0.671 0.7458,-1.342 -13.536,-11.933 1.0441,-1.454 0.895,0.559 0.8949,0.41 0.6339,0.224 2.6102,0.709 0.7832,0.112 2.8712,0.186 1.0068,-0.112 1.2305,-0.224 1.0069,-0.298 0.5593,-0.224 1.4542,-0.634 1.2679,-0.82 1.156,-0.858 1.1932,-1.006 3.2069,-2.76 1.8644,-1.753 1.0068,1.194 0.8205,1.491 11.0748,9.397 0.9322,0.821 2.6104,4.474 0.2236,0.411 1.5662,3.244 6.2646,-8.801 1.7152,-3.43 5.8545,-11.411 0.2237,-0.447 6.0035,-12.157 18.3837,10.964 7.4205,17.376 -0.5967,9.285 -2.3865,4.773 -1.8643,2.163 -12.4174,17.638 -1.7525,2.759 -0.4848,-0.373 -2.5357,3.692 v 1.343 l -0.9695,1.528 -2.0137,2.462 -2.9085,1.715 -2.7968,3.356 -3.2067,2.946 -4.0273,2.684 -2.0509,1.343 -3.8409,1.417 -5.034,1.23 -5.3696,1.194 -0.8576,-0.336 h -0.4848 l -13.2004,0.07 -4.2136,0.932 -1.0069,0.113 -1.8645,2.722 -1.5289,1.79 -0.3355,0.112 -6.7121,1.006 -0.1864,0.485 -0.037,2.312 -13.0513,-2.013 -10.3664,-1.007 -3.8781,-2.983 -0.037,-0.04 -0.2236,-0.448 -7.0477,-14.468 -3.8407,-0.373 -2.2001,0.41 -2.3493,3.916 -16.7801,2.088 -4.7357,-1.454 -0.4475,1.827 -0.5594,3.356 -16.1462,-4.624 -20.6956,0.783 -9.7324,-3.058 -17.153,-12.268 -9.8444,-1.827 -8.8002,3.542 -7.1968,7.421 -1.4171,10.18 -0.3356,17.116 1.8645,14.804 -0.261,7.271 -3.9527,5.444 -1.4916,-1.603 -1.3424,1.342 -10.441,8.055 -4.5865,-7.011 -47.5065,-1.268 -12.1189,13.089 -9.1733,3.17 -5.2205,1.006 -0.2983,5.295 26.9974,7.421 -3.5424,14.692 -2.9086,3.58 -7.3832,0.04 -19.0548,-2.573 -4.5494,0.671 -5.4814,1.678 -3.8408,-0.634 -5.1832,-2.573 -4.5493,-2.498 -0.6712,2.349 -3.3187,-1.156 -2.6476,0.261 -0.1122,-1.604 0.1122,-0.633 3.3187,-0.373 2.4612,0.895 0.5593,-1.343 1.5661,-5.854 -0.4847,-3.207 -0.634,-3.654 10.3292,1.006 8.2036,-4.512 3.5425,-5.668 0.8576,-4.922 -0.5967,-9.807 -1.1185,-5.519 -2.0882,-7.905 -6.9732,-15.885 -11.4105,-10.926 -6.5629,-3.058 -11.8579,-16.519 -4.9222,-4.437 -2.0882,-2.61 -6.451,-3.319 -9.024,-2.387 -5.7799,-1.529 -5.6306,2.424 -6.5257,1.119 -8.6511,-1.865 -9.024,0.04 -13.2003,-10.627 -14.3564,12.38 -1.0814,-7.868 -75.8463,73.907 3.4307,4.475 0.2237,9.621 2.3492,2.274 0.5966,1.79 8.9867,0.485 2.1628,0.783 0.2983,2.498 -0.4101,4.251 -0.7458,4.102 -0.4102,4.065 -0.4475,9.322 -0.2983,3.953 2.573,-0.373 4.1018,0.969 3.1323,-1.715 1.8644,-3.655 2.4984,-1.752 h 3.7662 l -0.7831,1.193 2.0137,5.109 1.3051,3.244 2.3119,6.675 -1.939,15.661 -0.5967,3.916 -0.3728,4.512 14.5428,-4.028 13.0139,4.028 -2.0136,18.309 -4.2883,19.278 -1.1932,2.349 -0.4102,0.04 0.3729,7.607 22.9328,-0.596 0.2238,4.512 4.4374,-0.149 v -0.187 l 7.9053,-0.149 3.0577,5.034 -6.451,8.912 -3.6171,1.79 -0.2237,2.2 0.261,5.631 -5.8544,0.223 v -0.298 l -14.0207,0.559 v 0.262 l -0.075,5.183 -3.1323,0.04 0.037,-0.08 v -0.633 l -8.1663,-0.447 -0.5966,-4.475 -16.6683,-0.261 -3.1323,-0.04 1.0068,-4.773 4.2882,-21.553 9.3596,-0.149 -0.6712,-15.736 -8.6511,-21.852 -4.8103,-4.698 -14.1326,4.922 -1.0068,0.336 -2.7594,-4.475 -1.156,-0.895 -2.4611,-3.766 -7.4578,3.915 0.075,1.604 -4.1018,5.742 -1.1933,0.932 2.1628,1.641 -0.2983,1.119 -2.6849,3.169 -0.8203,0.746 -1.9763,-2.946 -3.5798,3.095 -12.5665,4.4 -2.4238,2.462 1.3424,5.145 0.075,1.007 0.7458,0.224 0.4102,1.492 3.9526,6.003 1.0068,0.298 0.8577,0.113 1.1933,-2.573 1.1932,-1.305 5.4815,-0.373 -0.075,2.834 -0.522,1.081 -0.9322,1.268 -0.4848,1.641 v 0.261 l 1.9763,0.969 7.346,1.902 -0.1491,0.634 v 0.783 l -0.7831,5.332 -0.2983,1.119 -3.5425,1.23 -0.6339,0.746 -0.3356,1.119 v 1.342 l 0.3729,3.282 1.2305,5.892 0.1865,2.423 -8.5393,2.275 -1.678,-3.729 -0.7458,-1.864 -0.8949,-2.536 -2.0136,-4.102 -5.1832,-7.905 -1.3424,-1.492 -0.7831,-0.746 -1.678,-2.498 -0.2611,0.149 -1.5288,-2.237 2.0509,-2.648 -0.6712,-4.81 0.037,-3.58 -0.6712,-1.566 -8.2782,4.102 -1.3424,-2.014 -8.8748,3.282 -1.5289,-2.573 -3.6544,1.193 -0.6712,-0.746 -3.6543,2.088 28.3025,25.283 15.214,13.573 3.4306,1.902 2.9086,0.522 7.346,-0.04 v 0.633 l 0.1491,0.634 -2.2,5.594 4.2136,-0.224 2.5357,1.603 2.9086,5.37 41.4656,-1.752 21.4786,-2.014 -0.2238,-9.807 v -0.04 -0.04 -0.746 l 7.7562,-0.261 h 5.1086 l -0.2983,-2.834 1.3051,0.04 0.2611,2.834 13.6478,0.41 1.5289,-1.044 11.7834,0.186 13.4614,-0.633 1.6034,0.112 18.8683,-1.156 8.5019,-0.485 0.075,-0.671 -1.7899,0.07 -0.1865,-4.4 -3.0577,0.224 -0.3355,-3.506 1.6779,-0.149 0.4475,0.41 h 0.6712 3.2069 0.2611 l 0.6338,-3.43 -8.5765,-7.868 -2.2747,-4.773 -1.5661,-1.716 -2.2001,-1.118 -7.4951,-8.577 -11.4478,-12.007 -0.8204,-0.07 -2.9085,2.722 0.6712,2.237 0.522,2.275 -3.8407,5.109 -4.3629,-2.723 -1.6034,4.773 3.9153,2.611 -1.3797,3.915 -1.6034,-0.261 -0.6339,0.634 -7.6443,-1.268 1.7526,-7.01 6.3392,-12.753 3.3187,-4.102 4.1018,-2.647 2.3865,-0.634 17.4141,-11.113 5.1086,-2.274 v 0.07 l 10.1427,25.282 7.9053,10.963 6.2646,4.81 10.2172,2.238 34.4926,-4.587 24.4244,-3.654 10.2173,-4.587 9.3968,-9.098 7.085,-12.53 2.5357,-11.858 v -21.59 l -1.6034,-15.363 1.1932,-11.895 5.929,-13.723 7.1595,-7.57 9.807,-5.593 10.7766,-8.763 2.0137,1.38 0.6712,0.708 7.7561,7.719 23.4177,25.469 0.2983,0.335 10.5528,11.635 3.8408,4.176 8.6883,9.397 1.9391,2.013 0.037,0.04 0.5966,-0.223 2.0136,-0.597 0.1122,0.41 2.0135,-0.671 1.8646,-0.485 2.3865,-0.485 1.8271,-0.261 1.9763,-0.223 9.6579,-0.933 6.3018,-0.559 4.2884,-0.373 9.9189,-0.484 7.6443,-0.373 1.3797,-0.04 9.2105,-0.56 -0.037,-0.447 10.8139,-0.97 12.1563,-0.224 -0.4475,-6.301 20.5463,-0.783 1.3424,-0.597 15.1395,-1.827 7.4951,1.566 0.895,1.79 0.3728,1.156 3.6172,-0.336 4.9594,-2.61 0.261,2.013 0.2237,1.716 5.8171,-1.417 13.0886,-3.058 2.9831,-0.671 2.6102,-0.559 0.7832,-0.15 -1.268,-2.722 -1.4168,-2.461 -2.4239,-3.095 11.6716,-15.512 2.4609,-3.431 4.5121,-6.302 1.5289,-2.162 8.129,-7.906 1.3797,-0.559 3.6544,6.973 1.939,-0.97 2.1254,-1.044 8.3156,-6.637 2.0882,-1.678 1.6035,-1.305 -3.8036,-3.17 -6.6374,-5.929 -0.075,-0.224 -0.9694,-1.789 -1.8272,-2.275 -1.7153,-2.051 -3.4306,-4.102 v -0.04 l -2.3865,-2.834 4.0272,-3.58 6.8612,-7.867 0.5594,-1.268 4.9222,-4.773 9.3969,-7.98 5.034,-4.848 6.6002,-10.404 -27.8179,-41.502 -7.1595,-8.913 0.5222,-1.193 0.6711,-7.346 -26.3635,-13.722 -3.2068,-7.756 -2.3865,-0.15 -14.7666,-0.745 -4.7358,-1.156 -1.6407,-0.858 1.4171,-4.512 -0.1491,-4.288 -8.5767,-7.309 -9.2477,-7.831 -7.0848,-6.003 -3.3188,-2.126 -4.1391,-1.268 -16.2209,-4.959 -9.7324,-2.946 -12.7902,-3.878 z"
     style="clip-rule:evenodd;fill:#ffbffc;fill-opacity:1;fill-rule:evenodd;stroke:#ccc0a3;stroke-width:8.4577713;stroke-linecap:butt;stroke-linejoin:miter;stroke-opacity:1;image-rendering:optimizeQuality;shape-rendering:geometricPrecision;text-rendering:geometricPrecision" /><path
     id="path4313"
     d="m 11445.904,10681.894 -24.253,-8.268 -4.613,1.538 -42.292,46.136 -252.192,-219.251 0.547,-23.288 11.375,7.651 44.854,-3.432 17.83,10.078 65.118,-4.651 40.951,-8.497 20.434,-32.465 c 0,0 83.806,14.748 108.26,15.441 26.657,-8.847 53.911,-22.199 53.911,-22.199 0,0 22.628,-10.544 46.791,-1.633 24.041,8.867 54.908,90.739 62.113,104.815 -3.777,8.205 -12.095,24.819 -16.939,35.294 -8.372,18.102 -18.546,35.758 -31.712,50.74 -7.743,8.81 -18.801,14.446 -29.598,19.027 -12.745,5.407 -27.412,5.189 -40.168,10.571 -10.086,4.254 -20.779,9.318 -27.485,17.97 -1.03,1.33 -2.028,2.825 -2.932,4.423 z"
     inkscape:connector-curvature="0"
     style="clip-rule:evenodd;fill:#ffbffc;fill-opacity:1;fill-rule:evenodd;stroke:#ccc0a3;stroke-width:8.45777035;stroke-linecap:butt;stroke-linejoin:miter;stroke-opacity:1;image-rendering:optimizeQuality;shape-rendering:geometricPrecision;text-rendering:geometricPrecision" /><path
     id="path4399"
     d="m 11852.07,10626.701 24.927,72.317 -45.258,26.452 -28.269,54.183 -40.049,27.484 -58.109,17.276 -43.189,-86.379 -85.595,43.19 -45.544,19.631 -6.282,-10.994 h -14.135 v 7.853 l -21.202,11.779 -37.693,-22.773 9.423,-14.134 -3.926,-10.209 -9.423,-3.926 -4.712,-7.853 h -3.141 l -12.564,-11.779 -10.994,-21.987 -23.785,-14.951 24.49,-26.717 4.614,-1.538 24.252,8.268 c -3.551,6.278 -5.631,14.15 -2.352,19.889 10.013,17.524 27.248,30.1 43.34,42.283 8.927,6.759 19.624,11.816 30.654,13.742 11.822,2.064 24.36,1.029 35.941,-2.114 13.538,-3.674 26.93,-9.425 38.055,-17.97 13.646,-10.482 25.338,-23.737 34.883,-38.055 6.932,-10.398 10.668,-22.769 13.741,-34.883 2.967,-11.692 4.396,-23.879 4.229,-35.94 l -1.057,-76.109 3.251,-14.907 c 0,0 3.169,-12.635 12.585,-18.382 9.416,-5.746 32.831,-10.599 50.859,-6.419 18.03,4.179 56.864,28.325 66.948,36.813 l 40.282,33.91 19.177,15.167 z"
     inkscape:connector-curvature="0"
     style="clip-rule:evenodd;fill:#ffbffc;fill-opacity:1;fill-rule:evenodd;stroke:#ccc0a3;stroke-width:8.45777035;stroke-linecap:butt;stroke-linejoin:miter;stroke-opacity:1;image-rendering:optimizeQuality;shape-rendering:geometricPrecision;text-rendering:geometricPrecision" /><path
     d="m 11579.668,10996.382 c 5.236,-5.496 10.471,-10.992 15.707,-16.488 2.123,3.898 11.208,6.866 6.933,11.621 -3.674,5.272 5.253,7.737 9.243,5.173 4.245,0.417 12.649,-4.432 7.589,-8.485 -4.584,-3.723 -5.897,-10.471 -1.971,-15.161 5.373,-4.848 1.199,-8.899 -2.715,-12.972 -4.163,-3.992 -7.548,-8.012 -1.802,-12.372 4.27,3.08 8.787,8.196 11.809,0.971 7.841,-8.962 15.683,-17.924 23.525,-26.886 7.317,3.483 14.208,8.422 22.676,7.968 5.948,-0.891 9.414,3.42 13.062,7.351 4.055,4.055 8.11,8.11 12.165,12.165 -4.712,3.927 -9.423,7.854 -14.135,11.781 7.692,0.422 15.257,0.07 22.34,-3.259 5.816,-2.631 12.323,-1.009 18.494,-1.453 1.565,-4.737 1.294,-11.538 3.994,-15 5.887,0.7 9.866,-1.669 11.814,-7.303 3.4,-6.88 8.863,-12.201 14.03,-17.746 -15.364,-30.727 -30.727,-61.454 -46.091,-92.182 -3.634,-1.668 -4.836,-8.963 -7.554,-12.753 -12.22,-24.439 -24.44,-48.879 -36.661,-73.319 -30.686,15.19 -60.924,31.339 -91.901,45.907 -13.078,5.637 -26.156,11.274 -39.235,16.911 -3.308,-3.547 -3.746,-12.04 -9.72,-10.992 -4.694,0.589 -13.154,-2.586 -10.699,5.153 0.435,5.45 -7.907,5.736 -11.263,8.956 -4.546,1.499 -9.185,8.138 -13.616,3.301 -10.307,-6.227 -20.614,-12.454 -30.921,-18.681 9.729,11.47 20.094,22.547 29.428,34.261 7.771,16.334 9.58,34.563 14.177,51.906 11.917,52.06 23.835,104.12 35.753,156.18 8.581,-1.475 18.357,0.777 25.525,-5.106 5.316,-3.69 12.591,-7.102 18.403,-2.559 5.266,4.715 8.74,1.403 11.827,-3.644 3.403,-4.083 6.806,-8.166 10.209,-12.248 -6.807,-3.666 -13.613,-7.331 -20.419,-10.996 z"
     id="polygon4401"
     inkscape:connector-curvature="0"
     style="clip-rule:evenodd;fill:#ffbffc;fill-opacity:1;fill-rule:evenodd;stroke:#ccc0a3;stroke-width:8.45777035;stroke-linecap:butt;stroke-linejoin:miter;stroke-opacity:1;image-rendering:optimizeQuality;shape-rendering:geometricPrecision;text-rendering:geometricPrecision" /><path
     d="m 11342.985,11270.585 c -6.964,-24.038 -12.791,-48.604 -20.463,-72.314 -16.255,-23.781 -32.509,-47.562 -48.763,-71.343 9.662,-1.659 12.767,-10.304 16.697,-18.071 -1.422,-7.602 -8.503,-16.48 1.477,-21.231 10.464,-10.464 20.929,-20.929 31.393,-31.393 13.73,7.176 27.459,14.353 41.189,21.53 1.871,-12.169 3.743,-24.337 5.615,-36.505 12.168,6.551 24.337,13.103 36.505,19.654 1.56,9.049 3.119,18.097 4.679,27.146 30.266,-10.297 60.531,-20.593 90.796,-30.889 2.926,-6.519 -1.796,-23.094 7.038,-21.844 9.199,1.354 18.397,2.707 27.595,4.061 -6.697,-12.215 7.763,-8.454 15.344,-9.887 8.591,-2.665 17.69,-13.403 26.973,-5.758 8.483,6.699 12.015,-8.779 18.095,-12.845 6.926,-6.915 -11.681,-8.893 -15.892,-13.655 -0.753,-3.899 11.056,-15.08 15.12,-16.339 11.996,3.807 -0.306,16.594 11.217,16.527 9.987,0.69 18.111,-7.469 7.455,-14.335 -3.164,-8.38 10.914,-15.097 0.885,-21.241 -9.939,-5.236 -5.648,-19.833 3.717,-9.25 6.245,-3.502 11.77,-12.935 17.738,-18.716 5.701,-6.638 10.77,-16.486 19.514,-7.641 8.117,5.982 20.684,-0.03 26.181,10.223 4.769,6.213 18.975,12.854 6.23,18.273 -14.142,7.639 0.894,7.677 9.052,4.954 7.326,-4.937 18.387,-1.683 24.51,-4.754 -2.896,-8.435 10.977,-20.982 9.204,-10.453 -8.094,12.744 -3.465,28.659 -5.247,42.977 -3.878,19.469 -11.583,38.308 -16.931,57.536 -19.189,14.729 -40.17,27.407 -58.219,43.44 -16.423,17.829 -35.04,33.913 -46.844,55.415 -3.733,7.349 -11.97,14.826 -12.96,22.097 18.749,25.205 37.499,50.409 56.248,75.614 -29.801,34.189 -58.957,69.096 -89.16,102.838 -28.074,19.947 -57.424,38.735 -84.704,59.404 -6.344,10.153 -11.029,22.119 -18.388,31.163 -11.424,5.109 -22.848,10.219 -34.272,15.328 -24.582,-54.967 -48.413,-110.449 -73.942,-164.882 -2.111,-5.391 -19.256,-14.475 -4.682,-14.834 z"
     id="polygon4405"
     inkscape:connector-curvature="0"
     style="clip-rule:evenodd;fill:#ffbffc;fill-opacity:1;fill-rule:evenodd;stroke:#ccc0a3;stroke-width:8.45777035;stroke-linecap:butt;stroke-linejoin:miter;stroke-opacity:1;image-rendering:optimizeQuality;shape-rendering:geometricPrecision;text-rendering:geometricPrecision" /><path
     id="path4407"
     d="m 11995.824,10867.54 -11.64,10.847 c -10.766,10.033 -16.263,26.678 -18.736,41.186 -2.309,13.546 -1.892,27.969 1.873,41.185 12.586,44.188 48.358,58.891 88.923,64.659 l -115.133,150.629 -29.952,30.889 -86.709,84.89 -2.319,-2.058 -6.987,-25.724 -16.421,-15.923 -4.569,-19.656 -15.913,-6.553 -27.144,0.936 -4.782,8.119 -14.996,-4.568 -13.95,-11.548 -7.387,9.88 15.608,30.085 -25.1,32.435 -17.759,-1.277 -8.419,-22.032 -8.939,-11.655 -13.507,-10.421 -60.831,-76.014 27.145,-42.223 37.441,-39.314 54.29,-39.313 16.85,-54.29 0.935,-37.442 6.304,-12.606 0.368,-0.03 8.638,-14.134 9.423,-10.209 -11.784,-23.569 11.632,23.266 92.813,-71.156 12.564,-6.282 46.331,-25.913 50.257,-14.92 41.582,69.827 v 0 z"
     inkscape:connector-curvature="0"
     style="clip-rule:evenodd;fill:#ffbffc;fill-opacity:1;fill-rule:evenodd;stroke:#ccc0a3;stroke-width:8.45777035;stroke-linecap:butt;stroke-linejoin:miter;stroke-opacity:1;image-rendering:optimizeQuality;shape-rendering:geometricPrecision;text-rendering:geometricPrecision" /><path
     sodipodi:nodetypes="cccccccccccccccccccccccccccccccccccccccccccccccccccccccccccccccccccccccccccccccccc"
     d="m 12149.565,12716.289 -41.512,5.708 -18.161,-11.935 -37.361,42.549 -24.906,7.265 -22.832,-6.227 -3.822,15.048 40.718,25.106 -7.589,31.783 -20.355,-1.62 -3.371,13.036 -26.007,-0.907 -3.502,4.21 -34.707,-13.681 -7.134,20.625 -12.119,-3.696 1.295,-36.065 11.732,-4.544 11.036,-2.91 4.531,-22.516 11.415,-31.133 -19.718,-28.021 -14.01,-16.085 -22.831,-14.529 -42.549,-10.378 -3.114,-28.539 -17.643,-14.529 -60.191,6.226 -8.302,-22.831 -30.096,9.34 -14.01,-21.793 -20.756,-1.557 -26.983,6.746 -17.642,24.388 -10.897,1.557 -11.415,-5.709 3.631,-37.879 -11.934,-9.859 6.746,-42.03 62.786,-26.464 14.529,7.265 100.665,-46.182 14.01,-27.501 82.504,-77.835 57.079,18.162 12.453,2.076 h 23.869 l 27.502,-35.804 6.227,-15.567 22.831,14.01 -1.557,29.577 9.859,4.151 52.927,3.633 15.049,16.604 1.038,20.237 9.339,2.075 55.003,-62.786 -7.783,76.796 -3.633,24.907 -15.047,67.976 14.009,1.556 -14.009,94.439 -18.681,-7.265 -3.632,52.409 37.777,39.825 18.263,33.858 12.714,18.134 31.912,32.199 -7.187,27.707 35.362,24.388 -7.575,17.308 8.091,15.281 -20.208,16.84 -0.504,9.78 -22.977,22.778 -7.989,2.012 -6.964,-11.854 -10.004,7.531 5.369,10.277 -2.691,11.32 -102.747,-71.358 z"
     id="path4445"
     inkscape:connector-curvature="0"
     style="clip-rule:evenodd;fill:#d2cefa;fill-opacity:1;fill-rule:evenodd;stroke:#ccc0a3;stroke-width:8.45777035;stroke-linecap:butt;stroke-linejoin:miter;stroke-opacity:1;image-rendering:optimizeQuality;shape-rendering:geometricPrecision;text-rendering:geometricPrecision" /><path
     sodipodi:nodetypes="ccccccccccccccccccccccccccccccccccccccccccccccccccccccccccccccccccccccccccccccccccccccccccccccccccccccccccccc"
     id="path4205"
     class="str3"
     d="m 10256.04,11872.452 4.792,-0.849 16.783,-12.698 11.195,-20.973 10.207,-10.784 13.79,-14.066 38.681,-22.34 28.563,-40.974 16.255,9.678 c 0,0 -14.048,32.5 -13.565,33.996 2.173,7.723 -9.986,34.348 -9.986,34.348 0,0 3.536,34.369 3.526,25.325 l 8.121,14.106 2.27,13.595 -3.069,15.577 -21.236,12.275 10.532,23.952 -0.212,13.403 -14.425,7.896 -15.618,-4.038 -49.432,-58.105 -25.997,21.684 8.805,14.358 -0.742,18.534 11.923,13.613 11.924,13.612 11.923,13.613 11.924,13.613 -17.311,-12.042 -17.312,-12.042 -17.311,-12.042 -17.311,-12.042 -10.179,-3.421 -11.372,3.799 -10.306,-4.47 -23.974,17.435 -10.542,-14.197 -5.5,-15.539 44.549,-32.824 13.884,-21.39 12.379,-1.983 z m 255.078,278.946 11.181,-7.987 3.994,0.799 311.478,-145.357 -11.18,-9.584 6.389,-6.39 -9.584,-5.59 -8.785,2.396 -3.994,-3.195 2.396,-2.396 0.799,-19.168 -15.973,-4.792 0.798,-17.571 12.779,-15.973 7.986,3.994 5.591,-2.397 -3.993,-4.791 14.376,-11.182 -0.799,-11.98 2.396,-15.174 -8.786,-4.792 -2.395,-6.39 h -10.383 v -4.792 h -5.591 l -1.597,-4.792 -9.584,-3.993 3.993,-5.591 -11.181,-13.577 -23.96,0.799 -12.779,-7.987 -13.577,16.772 v 13.577 l -13.577,10.383 0.798,-6.389 -19.167,-13.578 -3.195,-1.597 -21.564,12.779 -23.161,0.798 15.174,-26.356 h -4.791 l 3.194,-9.583 h -6.389 l -11.182,27.154 -24.758,-24.758 h -6.389 l -18.369,22.362 -29.551,23.96 -10.383,-29.551 3.195,-10.382 -35.94,15.973 -31.148,27.155 28.752,33.544 -21.564,14.376 -1.598,33.544 -6.389,13.577 -16.772,7.986 -15.174,46.323 -22.363,21.564 11.98,41.53 -22.363,5.591 v 42.329 l 23.162,-9.584 h 13.577 l 4.792,17.571 z"
     inkscape:connector-curvature="0"
     style="clip-rule:evenodd;fill:#ffbffc;fill-opacity:1;fill-rule:evenodd;stroke:#54473f;stroke-width:8.45608139;stroke-linecap:butt;stroke-linejoin:miter;stroke-opacity:1;image-rendering:optimizeQuality;shape-rendering:geometricPrecision;text-rendering:geometricPrecision" /><path
     id="path3509"
     d="m 8821.1652,14286.489 -10.7393,34.627 7.7797,10.105 -6.0039,51.921 -18.4766,27.44 -12.5151,-4.777 -13.7413,24.48 26.2564,26.848 22.0705,-17.884 5.3696,-24.481 8.9636,-6.553 19.6605,7.737 30.4421,-66.212 -48.3269,-16.109 14.9251,-37.587 z"
     class="str4"
     inkscape:connector-curvature="0"
     style="clip-rule:evenodd;fill:#ddff55;fill-opacity:1;fill-rule:evenodd;stroke:#ccc0a3;stroke-width:8.46000004;stroke-linecap:butt;stroke-linejoin:miter;stroke-miterlimit:4;stroke-dasharray:none;stroke-opacity:1;image-rendering:optimizeQuality;shape-rendering:geometricPrecision;text-rendering:geometricPrecision" /></g><g
   style="display:inline"
   inkscape:label="Moscow copy"
   id="g6239"
   inkscape:groupmode="layer" /></svg>