<?xml version="1.0" encoding="UTF-8" standalone="no"?>
<svg
   xmlns:dc="http://purl.org/dc/elements/1.1/"
   xmlns:cc="http://creativecommons.org/ns#"
   xmlns:rdf="http://www.w3.org/1999/02/22-rdf-syntax-ns#"
   xmlns:svg="http://www.w3.org/2000/svg"
   xmlns="http://www.w3.org/2000/svg"
   xmlns:sodipodi="http://sodipodi.sourceforge.net/DTD/sodipodi-0.dtd"
   xmlns:inkscape="http://www.inkscape.org/namespaces/inkscape"
   xml:space="preserve"
   width="2522px"
   height="2385px"
   style="shape-rendering:geometricPrecision; text-rendering:geometricPrecision; image-rendering:optimizeQuality; fill-rule:evenodd; clip-rule:evenodd"
   viewBox="0 0 25220 23850"
   id="svg5756"
   version="1.1"
   inkscape:version="0.92.3 (2405546, 2018-03-11)"
   sodipodi:docname="Russia_Moscow_oblast_locator_map.svg"><defs
   id="defs79" />
<metadata
   id="metadata5863">
   <rdf:RDF>
   <cc:Work
   rdf:about="">
   <dc:format>image/svg+xml</dc:format>
   <dc:type
   rdf:resource="http://purl.org/dc/dcmitype/StillImage" />
   <dc:title></dc:title>
   </cc:Work>
   </rdf:RDF>
   </metadata>
<sodipodi:namedview
   pagecolor="#ffffff"
   bordercolor="#666666"
   borderopacity="1"
   objecttolerance="10"
   gridtolerance="10"
   guidetolerance="10"
   inkscape:pageopacity="0"
   inkscape:pageshadow="2"
   inkscape:window-width="2000"
   inkscape:window-height="835"
   id="namedview5861"
   showgrid="false"
   inkscape:zoom="0.2798779"
   inkscape:cx="153.58667"
   inkscape:cy="1132.447"
   inkscape:window-x="476"
   inkscape:window-y="59"
   inkscape:window-maximized="0"
   inkscape:current-layer="svg5756" />
<path
   style="fill:#e0ffe0;stroke:#878787;stroke-width:30;stroke-linejoin:bevel"
   d="m 11774.8,8296 -95,-80.2 75,-35.09 20,-95.23 135.1,-90.23 10,-35.09 -120.1,10.03 -5,40.1 -50,-15.04 -5,-140.35 20,-115.28 120.1,-150.37 -75.1,-55.15 45,-160.39 -90,-120.3 60,-15.03 -35,-105.27 260.1,-95.24 230,30.08 290.1,250.63 180,-10.03 45,20.04 -5,95.25 -90,20.04 -65,310.77 115,65.16 -25,35.09 565.1,486.22 -50,35.07 v 5.02 l -35,20.05 10,20.05 10,5.01 -10,10.03 -25,15.03 5,5.02 25,35.08 h 10 l -40,75.19 -50,-10.03 -15,15.05 50,75.18 -50,-5.01 -30,85.22 45,85.2 65,30.07 120.1,150.38 v 15.04 l -60.1,55.13 -65,180.45 15,95.24 230.1,-45.12 105,70.19 -105,160.39 -180.1,15.03 5,45.12 -135,10.03 v 135.33 l -370.1,-330.83 -75,-10.01 -50,-5.02 h -135 l -335.1,-130.32 -120,10.02 -15,5.01 30,-40.1 -5,-165.41 25,-15.04 15,-5 10,-45.12 -30,-20.05 v -65.16 l 65,5.01 -5,-50.13 -30,-25.06 -155,40.11 20,85.21 h -35 l -25,-100.26 -35.1,-5 65.1,-85.22 -55.1,-75.18 20.1,-75.19 -150.1,-130.32 -165,105.26 -15,-65.16 -100,30.07 5,-85.2 305,-55.15 20,-50.13 z"
   id="_186521280"
   inkscape:label="#_Mytyschi" />
<path
   style="fill:#e0e0ff;stroke:#878787;stroke-width:30;stroke-linejoin:bevel"
   d="m 12264.9,12897.4 -25,-105.2 -60,-70.2 -30,-15 20,-135.4 30,-200.5 80,-35.1 -45,-115.3 345.1,40.1 120,-40.1 360.1,-260.6 160,-160.4 20,20 5,80.3 85.1,15 50,-60.2 125,-5 90,100.3 -80,40.1 80,35.1 v 80.2 l 115,155.3 75,20.1 45.1,65.2 105,60.1 -65,160.4 30,205.5 45,-50.1 100,175.4 -85,75.2 -70,-110.3 -90.1,85.3 -50,-60.2 v -80.2 l -105,-55.1 -30,-95.3 -130,195.5 -110,-125.3 25,255.6 -320.1,-85.2 -40,100.3 -210,-100.3 -70.1,-205.5 -215,135.4 -230.1,-45.2 -30,195.5 -110,-30 z"
   id="_142981528"
   inkscape:label="#_Vidnoe" />
<path
   style="fill:#e0ffe0;stroke:#878787;stroke-width:30;stroke-linejoin:bevel"
   d="m 6188.67,12671.9 90.02,-100.3 -55.01,-130.3 150.02,-140.3 410.1,-70.2 225.04,-245.6 260.06,-100.3 -170.05,-145.3 15.02,-270.7 120.02,-95.3 -280.06,-390.9 65.02,-130.3 -45.01,-195.5 75.01,-50.2 -140.03,-155.3 120.02,-145.4 275.07,125.3 4.99,-190.5 115.03,30.1 225.05,-325.8 430.08,40.1 95.02,110.3 380.08,-35.1 120.03,175.4 235.05,-70.2 160.03,270.7 335.06,150.4 305.07,-5 42.4292,49.859 182.2731,143.798 35.3577,-43.357 135.04,10.1 105,95.2 185,-195.5 265.1,100.3 v -185.5 l 195,-55.1 50.1,25 35,-40.1 35,25.1 117.579,-164.585 8.434,-15.196 -106.013,-65.819 -10,10 -15,-10 -45.1,-5 10.1,-55.2 80,-45.1 h 95 l 10,50.2 h 15 l 25,-60.2 35,5 -10,50.1 -75,130.4 -10,15 -5,370.9 82.368,247.638 22.198,54.516 -17.4,86.718 -83.666,-56.926 -62.566,66.883 -22.836,78.684 -20.506,-62.842 -73.335,121.761 132.585,43.546 190.611,-222.94 57.547,99.162 40,110.2 -40,30.1 -30,-50.1 -65,85.2 -73.684,-110.465 -6.316,115.465 -65,-5 -65,-5 -20,115.3 -25,35.1 -55.1,-65.2 -65,165.4 -116.749,-30.984 8.599,-49.011 32.471,1.616 5.019,-42.971 -37.896,-4.743 -16.39,93.984 -75.054,-17.991 -180.1,80.2 30.1,85.2 -120.1,125.3 -30,-40.1 -5,20 -35,-30 -90,40.1 -60,135.3 -210.05,-45.1 -15.01,95.2 -85.02,-60.1 -160.02,155.4 -55.02,-210.5 -275.06,65.1 100.02,75.2 -25,35.1 -95.02,-40.1 -50.01,105.2 135.02,20.1 -155.03,155.4 10,-115.3 -470.09,60.1 -105.02,145.4 -315.07,25.1 5.01,180.4 -205.05,170.4 -440.09,75.2 v 95.3 l -240.05,-125.3 -65.01,125.3 -40.02,-145.4 -215.04,-15 -15,260.6 -345.07,-360.9 -255.06,240.6 -160.03,-195.5 z"
   id="_142172784"
   inkscape:label="#_Odintsovo" />
<path
   style="fill:#ffffe0;stroke:#878787;stroke-width:30;stroke-linejoin:bevel"
   d="m 9654.38,10481.4 240.06,-120.3 20,-180.4 110.06,-15.1 40,-170.39 -95.04,-110.26 165.04,-215.54 -30,-160.4 -145.05,-45.11 -85.01,-105.26 90.01,-45.11 155.05,-75.19 235,160.39 130.1,15.05 -75.1,60.14 115.1,20.06 v -70.18 l 170,30.08 -65,-55.15 45,-80.19 60,60.15 30,-65.16 65,175.43 125.1,105.27 45,-120.31 60,40.1 60,-20.04 35,75.19 h 115 l 35,35.08 -40,40.09 -30,100.26 -80,15.03 -20,-30.07 15,-30.07 -5,-70.18 -65,20.05 -30,-10.02 -105,90.22 15,35.09 -40,90.23 80,5 -45,25.07 20,35.09 10,75.17 45,45.09 v -60.12 l 30,65.12 80,-80.16 90,10.03 -57.331,144.7 -11.832,27.939 4.163,-12.209 -35,-20.1 -20,45.1 h -95 l -80,45.1 -155.373,-1.646 38.784,150.273 103.427,79.478 -16.838,42.595 -50.1,25.1 -195,55.1 v 185.5 l -265.1,-100.3 -185,195.5 -105,-95.2 -135.04,-10.1 -35.3577,43.357 -182.2731,-143.798 -42.4292,-49.859 20.01,-20.1 z"
   id="_186807760"
   inkscape:label="#_Krasnogorsk" />
<path
   style="fill:#e0e0ff;stroke:#878787;stroke-width:30;stroke-linejoin:bevel"
   d="m 10694.6,8747.12 5,65.16 180,-80.2 120.1,70.17 60,-25.06 125,-105.26 40,-65.16 80,5.02 40,-90.23 55,15.04 v 30.07 h 75.105 l 100,-30.07 15,65.16 -5,55.14 5,40.09 -50,-5 -20,55.13 65,30.07 -10.005,90.22 75,-70.16 45,20.04 -60,140.35 65,105.26 -40,240.6 100,20.06 15.005,55.13 -175,125.32 h -125 l -95,60.14 -80.1,-30.07 -50,-190.48 -45,-5.01 -10,-110.28 65,-5.01 -25,-75.18 65,-10.03 -25,-110.27 120.1,-115.29 -90.1,-35.09 -55,45.12 -180,-70.18 -25,20.05 15,20.05 -25,20.05 -30,-25.06 -35,30.07 65,95.25 -40,30.07 -20,-30.07 -50.1,40.09 65.1,75.18 35,-45.11 115,75.19 -55,75.19 30,25.07 -40,125.3 60,35.09 -15,75.19 -60.005,20.04 -60,-40.1 -45,120.31 -125.1,-105.27 -65,-175.43 -30,65.16 -60,-60.15 -44.99,-25.07 -20,-85.2 70,-115.29 160,95.23 55,-175.42 -80,-40.12 10,135.35 -45,5.01 5,-95.24 -160,15.04 -45,-95.23 75,-15.04 -105,-80.21 -55.01,165.42 -85.1,-220.55 110.11,-30.07 55,-10.03 z"
   id="_186808720"
   inkscape:label="#_Khimki" />
<path
   style="fill:#ffe0e0;stroke:#878787;stroke-width:30;stroke-linejoin:bevel"
   d="m 11589.8,8601.76 165,-105.26 150.1,130.32 -20.1,75.19 55.1,75.18 -65.1,85.22 35.1,5 25,100.26 -70.1,25.06 75.1,290.72 -40.1,5.02 -125,90.22 -15,-55.13 -100,-20.06 40,-240.6 -65,-105.26 60,-140.35 -45,-20.04 -75,70.16 10,-90.22 -65,-30.07 5,-20.04 15,-35.09 50,5 -5,-40.09 z"
   id="_186813992"
   inkscape:label="#_Dolgoprudny" />
<path
   style="fill:#ffffe0;stroke:#878787;stroke-width:30;stroke-linejoin:bevel"
   d="m 11744.8,7995.25 50,15.04 5,-40.1 120.1,-10.03 -10,35.09 -135.1,90.23 -20,95.23 -75,35.09 95,80.2 30,80.19 -20,50.13 -305,55.15 -5,85.2 h -75.1 v -30.07 l 0.05,-77.69 -80.055,-22.56 55,-70.17 -65,-30.08 -10,-120.3 90,-55.13 -9.9,-65.16 75,45.1 240,-295.74 45,10.03 z"
   id="_186815192"
   inkscape:label="#_Lobnya" />
<path
   style="fill:#ffe0e0;stroke:#878787;stroke-width:30;stroke-linejoin:bevel"
   d="m 13675.2,10501.5 10,35.1 -40,15 20,55.1 25,10.1 -5,65.1 -215,50.1 v -25 -270.7 l 120,-45.1 -5,75.2 z"
   id="_186816128"
   inkscape:label="#_Reutov" />
<path
   style="fill:#e0ffe0;stroke:#878787;stroke-width:30;stroke-linejoin:bevel"
   d="m 11399.7,8536.6 -55,-15.04 -40,90.23 -80,-5.02 -40,65.16 -125,105.26 -60,25.06 -120.1,-70.17 -180,80.2 -5,-65.16 h -120 l 15,-170.42 h -60 l 40,-45.12 -350.1,-245.61 -135,80.21 -60,-75.19 -110.06,25.06 130.06,215.53 -70.05,45.12 40.05,160.39 -30.04,75.19 200.04,15.04 165,120.3 -40,-210.53 65,-100.24 130.1,40.1 15,80.2 -110.1,30.07 85.1,220.55 55,-165.42 105,80.21 -75,15.04 45,95.23 160,-15.04 -5,95.24 45,-5.01 -10,-135.35 80,40.12 -55,175.42 -160,-95.23 -70,115.29 20,85.2 45,25.07 -45,80.19 65,55.15 -170,-30.08 v 70.18 l -115.1,-20.06 75.1,-60.14 -130.1,-15.05 -235,-160.39 -155.05,75.19 -85.02,-125.32 -105.02,50.13 55.01,-110.28 -75.01,20.06 -65.02,-200.5 -130.03,-30.08 25.02,-370.91 -290.07,80.19 -85.01,-295.73 -755.16,-145.36 v -125.32 l -250.06,-395.98 -160.02,25.06 -185.05,-140.34 -35.01,-85.22 85.02,-25.06 25.02,80.2 130.02,-340.85 -185.04,-150.37 125.02,-110.27 -55,-40.1 70.01,-85.22 -30.01,-140.35 280.06,-105.26 35.01,-70.17 260.06,-30.08 15,-250.62 115.02,-145.35 -30.01,-150.38 180.04,10.02 V 5759.7 l 230.05,-50.13 235.04,100.25 20.01,-115.28 -230.04,-170.43 265.05,-5 -105.03,-250.63 130.03,-15.04 v 85.22 l 370.08,421.04 5.01,105.26 230.04,85.21 70.04,145.36 -135.05,140.35 15,135.34 450.05,-30.08 125.1,245.61 90,45.12 75,110.27 -205,320.8 65,345.86 100,-15.04 145,175.43 -170,85.22 -10,165.4 190,250.63 45,-45.12 320.1,75.19 -20,-100.25 110,60.15 35,-50.12 90.1,85.22 9.9,65.16 -90,55.13 10,120.3 65,30.08 -55,70.17 80.05,22.56 z"
   id="_186818312"
   inkscape:label="#_Solnechnogorsk" />
<path
   style="fill:#e0e0ff;stroke:#878787;stroke-width:30;stroke-linejoin:bevel"
   d="m 13440.2,9293.47 -230.1,45.12 -15,-95.24 65,-180.45 60.1,-55.13 v -15.04 l 4.9,-10.03 v -15.03 h 80.1 l -25,-60.16 35,-30.07 75,30.07 50,-35.08 265.1,25.07 40,-40.1 70,-25.06 65,5 50,80.2 -15,60.15 -45,-5.02 -5,-45.1 h -120 l -5,65.16 -115.1,75.19 95.1,125.31 -70.1,75.18 75,25.06 40.1,-25.06 45,50.13 -30,205.51 -75,40.1 -35.1,-30.07 -330,120.29 -85,5.02 -90.1,-75.19 -5,-45.12 180.1,-15.03 105,-160.39 z"
   id="_186824720"
   inkscape:label="#_Korolev" />
<path
   style="fill:#ffe0e0;stroke:#878787;stroke-width:30;stroke-linejoin:bevel"
   d="m 13620.2,8747.12 -5,-45.11 85,-165.41 h 130.1 l 145,130.32 90,-25.06 30,15.04 -15,150.37 -35,20.05 -25,-40.1 -80,-5.01 -25,50.13 -70,25.06 -110.1,-100.25 -5,50.12 -60,-10.02 z"
   id="_186825848"
   inkscape:label="#_Ivanteevka" />
<path
   style="fill:#ffffe0;stroke:#878787;stroke-width:30;stroke-linejoin:bevel"
   d="m 13130.1,6466.46 95,25.06 5,130.32 85.1,-35.09 385,-65.16 500.1,285.71 120.1,-65.16 45,160.4 75,75.18 485.1,-50.11 40,45.1 h 215 l -5,5.01 -215,175.44 -35,-25.06 -65,45.11 15,50.12 -145.1,85.22 180.1,135.33 -75,100.25 -145.1,-95.23 -75,110.27 110,145.37 105.1,-60.16 45,30.07 -45,150.38 h 60 l 135,190.48 -70,225.55 -65,-120.29 -125,-10.03 -75.1,75.19 -110,-145.37 -140,140.35 -220.1,-10.02 75.1,90.23 -145.1,110.27 70,210.52 -100,10.02 -95,-70.17 -50,10.02 90,110.28 -90,25.06 -145,-130.32 h -130.1 l -85,165.41 5,45.11 50,50.13 60,10.02 5,-50.12 110.1,100.25 -40,40.1 -265.1,-25.07 -50,35.08 -75,-30.07 -35,30.07 25,60.16 h -80.1 v 15.03 l -4.9,10.03 -120.1,-150.38 -65,-30.07 -45,-85.2 30,-85.22 50,5.01 -50,-75.18 15,-15.05 50,10.03 40,-75.19 h -10 l -25,-35.08 30,-15.04 -10,-5.01 10,-10.03 10,5.02 10,-20.06 -5,-30.07 v -5.02 l 50,-35.07 -565.1,-486.22 25,-35.09 -115,-65.16 65,-310.77 90,-20.04 5,-95.25 -45,-20.04 65,-240.6 -85,-165.41 230.1,-215.54 z"
   id="_186826872"
   inkscape:label="#_Pushkino" />
<path
   style="fill:#e0e0ff;stroke:#878787;stroke-width:30;stroke-linejoin:bevel"
   d="m 9344.32,4962.72 155.03,-30.08 -110.02,-85.2 35.01,-160.41 -285.06,-275.68 205.04,-200.49 95.02,-195.49 255.06,-5.02 140.03,-115.28 -60.02,-95.24 -180.04,-55.13 30.01,-110.28 75.02,50.13 50,35.09 270.1,-431.08 -135.06,-115.29 70.02,-120.3 -115.03,-220.54 205.07,-95.24 25,-80.19 -170.06,-135.34 140.06,-45.11 -10,-100.25 100,-55.14 305,220.55 745.2,947.35 135,431.07 715.2,-255.64 30,120.31 185,145.36 275.1,80.19 255,-390.97 270.1,-160.39 135,110.27 -20,115.29 60,20.05 70,195.49 -20,150.36 85.1,120.31 -30.1,75.18 155.1,40.09 145,245.61 -170,145.37 -100,200.5 100,195.48 -210.1,315.79 15,165.4 -140,130.33 120,310.77 -220,125.31 240,25.07 50,300.74 -85,45.12 -95,-25.06 -175,220.54 -230.1,215.54 85,165.41 -65,240.6 -180,10.03 -290.1,-250.63 -230,-30.08 -260.1,95.24 35,105.27 -60,15.03 90,120.3 -45,160.39 75.1,55.15 -120.1,150.37 -20,115.28 -45,-10.03 -240,295.74 -75,-45.1 -90.1,-85.22 -35,50.12 -110,-60.15 20,100.25 -320.1,-75.19 -45,45.12 -190,-250.63 10,-165.4 170,-85.22 -145,-175.43 -100,15.04 -65,-345.86 205,-320.8 -75,-110.27 -90,-45.12 -125.1,-245.61 -450.05,30.08 -15,-135.34 135.05,-140.35 -70.04,-145.36 -230.04,-85.21 -5.01,-105.26 -370.08,-421.04 v -85.22 l -20.01,-145.36 60.02,-60.15 -80.01,-10.02 z"
   id="_186827496"
   inkscape:label="#_Dmitrov" />
<path
   style="fill:#e0ffe0;stroke:#878787;stroke-width:30;stroke-linejoin:bevel"
   d="m 13825.2,9293.47 -75,-25.06 70.1,-75.18 -95.1,-125.31 115.1,-75.19 5,-65.16 h 120 l 5,45.1 45,5.02 15,-60.15 -50,-80.2 -65,-5 25,-50.13 80,5.01 25,40.1 35,-20.05 15,-150.37 -30,-15.04 -90,-110.28 50,-10.02 95,70.17 100,-10.02 -70,-210.52 145.1,-110.27 -75.1,-90.23 220.1,10.02 140,-140.35 110,145.37 75.1,-75.19 125,10.03 65,120.29 70,-225.55 -135,-190.48 195,-45.12 95,-175.43 255.1,-235.58 85,-5.02 145,-130.32 45,-130.32 735.2,-616.54 75,190.48 345.1,-85.21 -145,300.75 120,225.55 -30,245.61 90,75.19 -15,165.41 50,165.42 -160,95.23 115,5.01 65,120.31 -110,45.1 -130,-105.26 -100.1,50.13 15,-150.38 -70,-60.14 -75,70.17 -20,-25.07 20,-130.32 -215,-65.16 115,85.22 -65,50.11 115,85.22 15,80.19 -155,-65.16 30,95.23 -120,-10.01 -90.1,15.03 135.1,115.29 -75.1,-5.02 -135,180.45 -490.1,-145.36 -20,180.45 205,40.1 15.1,220.55 -145.1,80.19 -30,-115.28 -135,100.25 -7.099,-91.7194 -132.241,10.1967 -37.499,92.3073 -88.427,-3.1581 -79.735,203.5634 -213.954,3.0237 -56.816,269.4803 -170.509,144.7353 3.188,266.3223 92.892,-17.5715 35.1,-5.01 5,35.08 h 30 l 10,-50.12 115,65.16 85,45.12 -35,150.37 115,10.02 185.1,55.14 30,-50.12 40,35.08 -75,100.25 15,135.38 -300.1,45.1 -100,-105.29 -15,80.19 -180.1,-30.1 -155,60.2 -75,-135.35 -190,-150.38 -125.1,80.21 -85,-65.17 25,-25.06 -10,-80.21 -155,-5 -135,-115.29 75,-40.1 30,-205.51 -45,-50.13 z"
   id="_186830176"
   inkscape:label="#_Schelkovo" />
<path
   style="fill:#e0e0ff;stroke:#878787;stroke-width:30;stroke-linejoin:bevel"
   d="m 14725.4,7704.54 -110,-145.37 75,-110.27 145.1,95.23 75,-100.25 -180.1,-135.33 145.1,-85.22 -15,-50.12 65,-45.11 35,25.06 215,-175.44 5,-5.01 1115.3,-967.4 20,20.05 -95,100.25 80,85.21 -15,110.28 160,165.4 -735.2,616.54 -45,130.32 -145,130.32 -85,5.02 -255.1,235.58 -95,175.43 -195,45.12 h -60 l 45,-150.38 -45,-30.07 z"
   id="_186830584"
   inkscape:label="#_Krasnoarmeysk" />
<path
   style="fill:#e0ffe0;stroke:#878787;stroke-width:30;stroke-linejoin:bevel"
   d="m 13235.1,2626.92 230.1,40.09 210,-215.52 145.1,-15.04 310,-160.41 200.1,230.58 175,-165.41 -110,-250.62 160,-155.39 20,-85.21 30,-100.24 195.1,10.01 120,-90.22 h 365.1 l 180,85.21 v -260.64 l 315.1,250.62 -35,185.45 110,210.53 -90,205.52 75,491.22 125,85.2 -90,200.51 165,100.24 20,180.44 -385.1,285.71 -60,135.35 105,110.26 240.1,-15.03 -230,200.5 225,115.29 -20,220.55 285.1,-40.1 70,180.44 -155.1,340.85 320.1,55.13 40,160.4 -220,40.11 100,105.26 -90,340.84 135,70.17 -40,210.53 -85,85.21 -1115.3,967.4 h -215 l -40,-45.1 -485.1,50.11 -75,-75.18 -45,-160.4 -120.1,65.16 -500.1,-285.71 -385,65.16 -85.1,35.09 -5,-130.32 85,-45.12 -50,-300.74 -240,-25.07 220,-125.31 -120,-310.77 140,-130.33 -15,-165.4 210.1,-315.79 -100,-195.48 100,-200.5 170,-145.37 -145,-245.61 -155.1,-40.09 30.1,-75.18 -85.1,-120.31 20,-150.36 -70,-195.49 -60,-20.05 20,-115.29 -135,-110.27 110,-200.5 -195,-295.74 25,-195.48 z"
   id="_186831808"
   inkscape:label="#_SergievPosad" />
<path
   style="fill:#ffe0e0;stroke:#878787;stroke-width:30;stroke-linejoin:bevel"
   d="m 16040.7,8245.87 135,-180.45 75.1,5.02 -135.1,-115.29 90.1,-15.03 120,10.01 -30,-95.23 155,65.16 -15,-80.19 -115,-85.22 65,-50.11 -115,-85.22 215,65.16 -20,130.32 20,25.07 100,165.41 -60,-65.16 -205,195.48 195,50.13 -20,280.69 -270,-20.04 -5,150.36 -150.1,-40.1 -85,100.26 h -180 l -55,-115.29 -15.1,-220.55 -205,-40.1 20,-180.45 z"
   id="_186707080"
   inkscape:label="#_Chernogolovka" />
<path
   style="fill:#e0e0ff;stroke:#878787;stroke-width:30;stroke-linejoin:bevel"
   d="m 16311.317,10894.083 -35.517,244.017 -90.1,75.2 -305,70.1 -55,65.2 h -190.1 v -75.2 l -135,-20.1 -145,85.3 -90,10 5,-170.4 -250.1,-85.3 20,-80.2 -185,-20 -85,-195.5 -55.1,10 -20,-55.1 80,-45.1 160.1,75.2 45,-75.2 -175,-95.2 -5,-80.2 -270.1,-75.2 75,-150.4 -50,-245.6 155,-60.2 180.1,30.1 15,-80.19 100,105.29 300.1,-45.1 -15,-135.38 75,-100.25 -40,-35.08 -10,-155.39 155,15.04 5,-170.42 -95,-230.58 10,-100.25 -130.1,-95.23 10.1,-50.13 160,-5.01 -25,-205.51 145,15.04 -110,-150.38 135,-100.25 30,115.28 145.1,-80.19 55,115.29 h 180 l 85,-100.26 150.1,40.1 5,-150.36 270,20.04 20,-280.69 -195,-50.13 205,-195.48 60,65.16 -100,-165.41 75,-70.17 70,60.14 -15,150.38 100.1,-50.13 130,105.26 110,-45.1 -65,-120.31 -115,-5.01 160,-95.23 55,150.36 195,60.16 -9.9,285.71 140,60.15 15,10.02 -235.1,135.34 140.1,215.53 160,-45.11 -30,330.81 270,135.35 -150,60.15 -95,395.98 55,220.55 -105,85.21 15,140.39 -445.1,170.4 5,185.4 -35,170.5 -90,-305.8 -130.1,-50.1 25,-65.2 -125,-90.2 -245,55.1 25,40.1 -205.1,235.6 45,230.6 81.275,58.9 z"
   id="_186709296"
   inkscape:label="#_Noginsk" />
<path
   style="fill:#ffffe0;stroke:#878787;stroke-width:30;stroke-linejoin:bevel"
   d="m 14995.5,9724.55 35,-150.37 -85,-45.12 -115,-65.16 -10,50.12 h -30 l -5,-35.08 -35.1,5.01 -92.892,17.5715 -3.188,-266.3223 170.509,-144.7353 56.816,-269.4803 213.954,-3.0237 79.735,-203.5634 88.427,3.1581 37.499,-92.3073 132.241,-10.1967 7.099,91.7194 110,150.38 -145,-15.04 25,205.51 -160,5.01 -10.1,50.13 130.1,95.23 -10,100.25 95,230.58 -5,170.42 -155,-15.04 10,155.39 -30,50.12 -185.1,-55.14 z"
   id="_186709472"
   inkscape:label="#_LosinoPetrovsky" />
<path
   style="fill:#ffe0e0;stroke:#878787;stroke-width:30;stroke-linejoin:bevel"
   d="m 16830.9,11057.9 h -150.1 v 320.8 l -30,10 -60,-75.2 -220,-60.2 -95,-115.2 35.517,-244.017 -49.342,-248.483 -81.275,-58.9 -45,-230.6 205.1,-235.6 -25,-40.1 245,-55.1 125,90.2 -25,65.2 130.1,50.1 90,305.8 10,50.1 -210.1,10 10.1,50.1 220,240.6 -150,80.2 z"
   id="_186710344"
   inkscape:label="#_Elektrostal" />
<path
   style="fill:#ffe0e0;stroke:#878787;stroke-width:30;stroke-linejoin:bevel"
   d="m 13935.3,12280.9 110,-35.1 80,50.1 -55,35.1 10,120.3 -145,-45.1 -105,-60.1 -45.1,-65.2 -75,-20.1 -115,-155.3 v -80.2 l 25,-40.1 175,-50.2 100.1,300.8 z"
   id="_186716824"
   inkscape:label="#_Lytkarino" />
<path
   style="fill:#ffffe0;stroke:#878787;stroke-width:30;stroke-linejoin:bevel"
   d="m 13470.2,11659.4 130,25 20,20.1 -25,35.1 75,110.2 -50,135.4 -25,40.1 -80,-35.1 80,-40.1 -90,-100.3 -125,5 -50,60.2 -85.1,-15 -5,-80.3 -20,-20 65,-65.2 130.1,-165.4 45,30.1 z"
   id="_186718616"
   inkscape:label="#_Dzerzhinsky" />
<path
   style="fill:#ffe0e0;stroke:#878787;stroke-width:30;stroke-linejoin:bevel"
   d="m 13550.2,11348.6 145,120.3 55,140.3 v 85.2 l -150,-10 -130,-25 -10,-60.2 -45,-30.1 40,-40.1 -10,-160.4 -35,-130.3 z"
   id="_186720768"
   inkscape:label="#_Kotelniki" />
<path
   style="fill:#e0ffe0;stroke:#878787;stroke-width:30;stroke-linejoin:bevel"
   d="m 14045.3,12897.4 -100,-175.4 -45,50.1 -30,-205.5 65,-160.4 145,45.1 -10,-120.3 55,-35.1 115,5.1 -30,-100.3 -50,-10 v -120.3 l -75,-70.2 115,-75.2 15,-80.2 -80,15.1 -120,-80.3 45,-80.1 185,120.2 140.1,-25 -10,-105.3 105,-75.2 -20,-90.2 65,10 65,-100.2 50,5 40,-110.3 -110,-105.2 10,-70.2 75,-10 v -25.1 l 145.1,-80.2 75,70.2 145,-15.1 250.1,85.3 -5,170.4 90,-10 145,-85.3 135,20.1 v 75.2 h 190.1 l 55,-65.2 305,-70.1 90.1,-75.2 95,115.2 220,60.2 60,75.2 10,60.1 400.1,150.4 60,335.8 135.1,-60.1 85,-15 50,60.1 -230.1,100.3 310.1,260.6 -25,115.3 -100,-75.2 -30,40.1 -540.1,5 -255.1,175.4 -90,436.1 -280.1,-60.1 -10,225.5 -95,145.4 250.1,110.3 -15,165.4 125,95.2 10,195.5 350.1,-75.2 40,185.5 -110.1,15 -135,235.6 270.1,220.6 -15,180.4 -135.1,135.3 5,275.7 -250,150.4 -140,-15 -60,-225.6 -230.1,-25.1 -295.1,150.4 -75,-55.1 10,-180.5 -190,55.2 -50,-50.2 -250.1,60.2 -235,-30.1 -125,65.2 -25,-135.4 65,-115.3 -90.1,-10 15,-105.2 -125,-60.2 -45,115.3 -195,40.1 15,-90.2 -105,-25.1 -105.1,-125.3 55,-55.1 40.1,50.1 50,-100.3 80,20.1 105,-140.4 -60,-145.3 -135,-120.3 -65.1,55.1 -110,-305.7 -80,-50.2 -45,60.2 -160,-135.4 185,-115.2 -110,-360.9 -155.1,55.1 -110,-270.7 65,30.1 50,60.2 90.1,-85.3 70,110.3 z"
   id="_186722168"
   inkscape:label="#_Ramensky" />
<path
   style="fill:#ffe0e0;stroke:#878787;stroke-width:30;stroke-linejoin:bevel"
   d="m 15645.6,13754.6 -40,65.1 -290,-60.1 -115.1,-295.8 75.1,-30 90,155.3 130,-200.4 295.1,235.5 -135.1,40.1 85.1,125.4 z"
   id="_186723144"
   inkscape:label="#_Bronnitsy" />
<path
   style="fill:#ffffe0;stroke:#878787;stroke-width:30;stroke-linejoin:bevel"
   d="m 16760.9,10967.6 150,-80.2 -220,-240.6 -10.1,-50.1 210.1,-10 -10,-50.1 35,-170.5 -5,-185.4 445.1,-170.4 -15,-140.39 105,-85.21 -55,-220.55 95,-395.98 150,-60.15 -270,-135.35 30,-330.81 315.1,-60.15 160,60.15 420.1,370.93 125,210.51 160,235.59 -50,50.12 -155,-205.51 -220,-60.15 -165.1,5.02 15,385.96 -45,10.01 15,135.35 335.1,-5.02 -5,30.08 -125,10.03 10,115.27 -195.1,70.15 125,250.7 85.1,20 v 115.3 h 95 l 14.803,158.665 0.197,157.135 -120,20 -15,140.4 215,110.2 -85,215.6 -95,20 250,230.6 5,150.4 -60,40.1 -125,-5 50,45.1 -180,265.6 -315.1,-40.1 -90,40.1 -355.1,-15 -50,-60.1 -85,15 -135.1,60.1 -60,-335.8 -400.1,-150.4 -10,-60.1 30,-10 v -320.8 h 150.1 z"
   id="_186730704"
   inkscape:label="#_PavlovskyPosad" />
<path
   style="fill:#e0e0ff;stroke:#878787;stroke-width:30;stroke-linejoin:bevel"
   d="m 21651.9,10722 180,330.8 -335.1,491.3 -185,431 140,45.2 -295,245.6 -250.1,-30.1 100,370.9 -475.1,60.2 -430,-45.2 -30.1,255.7 -145,95.2 -60,-95.2 -465.1,-20.1 -45,210.6 -85,70.1 100,205.5 -325.1,-25 5,365.9 -230,135.3 -170,-10 -50.1,-5 20,-125.3 -395,-35.1 -60,-461.2 -240.1,55.2 -165,-125.3 130,-160.4 V 12742 l -440.1,125.4 25,-155.4 -115,-110.3 75,-125.3 -120,-115.3 30,-40.1 100,75.2 25,-115.3 -310.1,-260.6 230.1,-100.3 355.1,15 90,-40.1 315.1,40.1 180,-265.6 -50,-45.1 125,5 60,-40.1 -5,-150.4 -250,-230.6 95,-20 85,-215.6 -215,-110.2 15,-140.4 120,-20 -0.197,-157.135 -14.803,-158.665 h -95 v -115.3 l -85.1,-20 -125,-250.7 195.1,-70.15 -10,-115.27 125,-10.03 5,-30.08 180,5.02 -50,-70.18 105,-35.08 -55,-130.33 90,-85.21 -159.954,-235.4555 285,-285.9375 260.312,125.3125 335,-165.3125 185,70.3125 -195.158,29.9305 0.158,90.382 145,75 75,-170.3125 35,60 -150,215.625 374.942,531.2955 750.1,85.22 335.1,-215.54 60.171,50.2745 -240,215.3125 160,270.625 15,275.625 180,35.312 355.313,-130.312 -35,70 225,-5 -10,245.625 z"
   id="_186731552"
   inkscape:label="#_OrekhovoZuevo" />
<path
   style="fill:#ffe0e0;stroke:#878787;stroke-width:30;stroke-linejoin:bevel"
   d="m 17986.1,9248.37 165.1,-5.02 220,60.15 155,205.51 -40,35.09 55,130.33 -105,35.08 50,70.18 -180,-5.02 -335.1,5.02 -15,-135.35 45,-10.01 z"
   id="_186736624"
   inkscape:label="#_Elektrogorsk" />
<path
   style="fill:#ffffe0;stroke:#878787;stroke-width:30;stroke-linejoin:bevel"
   d="m 21311.8,11975.1 185,-431 335.1,-491.3 -180,-330.8 h 170 l -5,-391 360.1,-15 225,-120.3 130.1,155.4 190,-20.1 -20,-210.5 80,-10 100,-250.62 285.1,5.01 5,135.31 90,-100.22 400.1,35.09 105,290.73 -130,350.9 250,370.9 100.1,-30.1 210,315.8 95,10 190.1,260.7 -55,180.4 220,270.7 -60,235.6 -95,-35.1 -45,-15.1 20,516.3 570.1,-25 30,195.5 120,45.1 v 5 l -10,355.9 -200,-35.1 -45,385.9 155,175.5 130,451.1 -140,110.3 135,160.4 5,10 -110,55.1 -125,376 -505.1,180.4 -305.1,355.9 -225.1,-70.2 -750.1,190.5 -10,15 -355.1,666.7 h 170.1 l 285,-210.5 50,95.2 55,95.2 140.1,25.1 -275.1,947.3 -245,-220.5 20,225.6 -405.1,10 -105,-170.4 -160.1,-15.1 125.1,-320.8 100,20.1 180,-135.4 -85,-210.5 125,-260.6 135,-170.4 -240,-180.5 15,-120.3 -100,-55.1 -150.1,-416.1 -300,20.1 -85,55.1 -150.1,-60.1 -15,-160.4 -315,15 -90.1,-160.4 120.1,-115.3 -75,-95.2 V 14351 l 100,-5 210,-190.4 -55,-120.3 135,-25.1 -35,-240.6 190.1,-20.1 -5,-155.3 185,-5.1 5,-265.6 -140,-105.3 -40,-210.5 90,-60.1 -1075.2,-15.1 -85.1,-90.2 50.1,-190.5 -80.1,-45.1 -100,-370.9 250.1,30.1 295,-245.6 z"
   id="_186740488"
   inkscape:label="#_Shatura" />
<path
   style="fill:#ffe0e0;stroke:#878787;stroke-width:30;stroke-linejoin:bevel"
   d="m 23142.2,11709.5 -25,-70.2 60,-120.3 165,-105.3 5,-115.2 80.1,-10.1 v -75.1 l 145,-5.1 20,60.2 70,-75.2 55,95.2 h 105 l -45,295.8 -185,-20.1 -80,130.3 -295.1,-25 v 40.1 z"
   id="_186749024"
   inkscape:label="#_Roshal" />
<path
   style="fill:#ffffe0;stroke:#878787;stroke-width:30;stroke-linejoin:bevel"
   d="m 16830.9,14436.3 -270.1,-220.6 135,-235.6 110.1,-15 -40,-185.5 -350.1,75.2 -10,-195.5 -125,-95.2 15,-165.4 -250.1,-110.3 95,-145.4 10,-225.5 280.1,60.1 90,-436.1 255.1,-175.4 540.1,-5 120,115.3 -75,125.3 115,110.3 -25,155.4 440.1,-125.4 v 210.6 l -130,160.4 165,125.3 240.1,-55.2 60,461.2 395,35.1 -20,125.3 50.1,5 120,250.6 -40,260.7 180,40.1 -110,185.4 -210.1,70.2 235.1,55.1 -135,135.4 45,160.4 -115.1,135.3 -395,-120.3 -135.1,200.5 -510.1,35.1 -65,-105.3 -330.1,235.6 -185,-140.3 -110,50.1 65,115.3 -325.1,-125.3 15,70.1 -110,5.1 -15,-95.3 -85,-50.1 250,-150.4 -5,-275.7 135.1,-135.3 z"
   id="_186751448"
   inkscape:label="#_Voskresensk" />
<path
   style="fill:#e0ffe0;stroke:#878787;stroke-width:30;stroke-linejoin:bevel"
   d="m 19371.4,13343.5 -100,-205.5 85,-70.1 45,-210.6 465.1,20.1 60,95.2 145,-95.2 30.1,-255.7 430,45.2 475.1,-60.2 80.1,45.1 -50.1,190.5 85.1,90.2 1075.2,15.1 -90,60.1 40,210.5 140,105.3 -5,265.6 -185,5.1 5,155.3 -190.1,20.1 35,240.6 -135,25.1 55,120.3 -210,190.4 -100,5 v 340.9 l 75,95.2 -120.1,115.3 90.1,160.4 315,-15 15,160.4 150.1,60.1 85,-55.1 300,-20.1 150.1,416.1 100,55.1 -15,120.3 240,180.5 -135,170.4 -125,260.6 85,210.5 -180,135.4 -100,-20.1 -125.1,320.8 -60,-10 -20,295.7 -125,-80.2 -315.1,-265.6 5,-290.7 -155,-5.1 5,-150.3 -210.1,-436.1 -640.1,-15.1 -280,-25 -225.1,-105.3 -95,130.3 -220.1,-55.1 30,-140.3 -225,-55.2 -115,-380.9 -670.2,235.6 -195,-441.1 265.1,-210.6 -245.1,50.2 -135,-120.3 -45,-160.4 135,-135.4 -235.1,-55.1 210.1,-70.2 110,-185.4 -180,-40.1 40,-260.7 -120,-250.6 170,10 230,-135.3 -5,-365.9 z"
   id="_186754144"
   inkscape:label="#_Egoryevsk" />
<path
   style="fill:#e0e0ff;stroke:#878787;stroke-width:30;stroke-linejoin:bevel"
   d="m 18691.3,16922.4 320,355.9 -25,205.5 -505.1,20.1 -315,-365.9 -140.1,-5 60,431 -60,270.7 -185,-100.3 -400.1,20.1 100,-145.4 -255,-45.1 -105,-225.5 -105.1,60.1 -330,-140.3 -305.1,15 -130,-155.4 60,-230.6 -75,-60.1 105,-185.5 70,40.1 25,-225.5 -90,50.1 -25,-145.4 -100,15.1 135,-185.5 -75,-90.2 -50,115.3 -110.1,-100.3 190.1,-230.6 150,45.2 15,-120.3 -120,-185.5 -95,-25.1 25,-175.4 155,40.1 35,-140.3 110,-5.1 -15,-70.1 325.1,125.3 -65,-115.3 110,-50.1 185,140.3 330.1,-235.6 65,105.3 510.1,-35.1 135.1,-200.5 395,120.3 115.1,-135.3 135,120.3 245.1,-50.2 -265.1,210.6 195,441.1 670.2,-235.6 115,380.9 225,55.2 -30,140.3 220.1,55.1 95,-130.3 225.1,105.3 280,25 -465.1,371 -515.1,-210.6 -370.1,476.2 115.1,120.3 -105.1,240.6 -440.1,-105.2 -320,-270.7 z"
   id="_186756552"
   inkscape:label="#_Kolomna" />
<path
   style="fill:#e0e0ff;stroke:#878787;stroke-width:30;stroke-linejoin:bevel"
   d="m 5603.54,8195.75 -30,-320.79 175.04,-80.21 125.02,190.48 115.03,-105.26 530.1,-15.04 80.02,-115.29 140.03,90.23 430.09,-130.33 185.04,65.17 45.02,-75.19 135.02,20.05 -55.02,-215.54 245.06,90.23 40,-90.23 -80,-55.13 70,-50.13 70.01,65.16 35.01,85.22 185.05,140.34 160.02,-25.06 250.06,395.98 v 125.32 l 755.16,145.36 85.01,295.73 290.07,-80.19 -25.02,370.91 130.03,30.08 65.02,200.5 75.01,-20.06 -55.01,110.28 105.02,-50.13 85.02,125.32 -90.01,45.11 85.01,105.26 145.05,45.11 30,160.4 -165.04,215.54 95.04,110.26 -40,170.39 -110.06,15.1 -20,180.4 -240.06,120.3 75.03,80.2 -20.01,20.1 -305.07,5 -335.06,-150.4 -160.03,-270.7 -235.05,70.2 -120.03,-175.4 -380.08,35.1 -95.02,-110.3 -430.08,-40.1 -225.05,325.8 -115.03,-30.1 -4.99,190.5 -275.07,-125.3 -120.02,145.4 -90.02,-40.1 -20,90.2 -110.02,-70.2 -20.01,-150.4 -165.04,80.2 -15,-280.7 130.03,5 130.03,-150.33 -130.03,-105.26 340.08,-110.28 -300.08,-486.2 -150.02,10.02 15,-160.4 230.04,5.01 v -280.69 l -90.01,-15.03 -30.01,-110.28 -90.01,-45.11 -60.01,80.2 9.99,60.14 -30,50.13 h -55.02 l 35.01,-140.35 -390.08,-55.14 40.01,165.42 -145.04,85.21 -34.99,-375.94 -85.03,-10.02 -40,-120.31 -65.01,30.09 -5.01,-130.33 z"
   id="_186760584"
   inkscape:label="#_Istra" />
<path
   style="fill:#ffffe0;stroke:#878787;stroke-width:30;stroke-linejoin:bevel"
   d="m 18986.3,17483.8 25,-205.5 -320,-355.9 55,-215.5 320,270.7 440.1,105.2 105.1,-240.6 -115.1,-120.3 370.1,-476.2 515.1,210.6 465.1,-371 640.1,15.1 210.1,436.1 -5,150.3 155,5.1 -5,290.7 315.1,265.6 85,150.4 -25,60.2 h -405.1 l -25,130.3 -310.1,330.8 5,335.8 -320,290.8 135,160.4 -130,100.2 -75,150.4 -95.1,195.5 30.1,50.1 -145.1,85.2 15,90.2 -90,80.2 295.1,40.1 -220.1,175.5 50,95.2 -190,-60.1 -10,-80.2 -295.1,40.1 -40,165.4 -75,70.1 -140,-55.1 125,-30.1 140,-290.7 -210,15 -30,-80.2 120,-65.1 -40,-310.8 -105,50.1 -165.1,-150.3 -80,-200.5 -300,105.2 -180.1,-230.6 -595.1,-30 -145,-260.7 -215.1,105.3 80,-270.7 -300,40.1 -30,-100.2 -130.1,-115.3 90.1,-70.2 -170.1,-10 115.1,-215.6 -70.1,-170.4 -60,-431 140.1,5 315,365.9 z"
   id="_186765040"
   inkscape:label="#_Lukhovitsy" />
<path
   style="fill:#ffffe0;stroke:#878787;stroke-width:30;stroke-linejoin:bevel"
   d="m 10504.6,1885.08 170,-240.61 280.1,110.28 40,-155.38 500.1,-155.39 115,210.52 225,-446.1 185.1,-120.31 -85,-210.519 215,-70.169 -245,-160.406 80,-230.563 505.1,-195.496 20,-90.224 135,45.118 135,-175.441236 255.1,95.244136 -25,160.3941 h 160 l 75,195.484 135.1,-25.063 45,75.189 130,-30.071 140,265.654 165.1,-100.24 295,195.484 70,857.125 h 285.1 l -15,150.37 80,10.03 -20,85.21 -160,155.39 110,250.62 -175,165.41 -200.1,-230.58 -310,160.41 -145.1,15.04 -210,215.52 -230.1,-40.09 -250,140.35 -25,195.48 195,295.74 -110,200.5 -270.1,160.39 -255,390.97 -275.1,-80.19 -185,-145.36 -30,-120.31 -715.2,255.64 -135,-431.07 -745.2,-947.35 -305,-220.55 275,-160.4 35,-150.37 90.1,-15.05 z"
   id="_186864912"
   inkscape:label="#_Taldom" />
<path
   style="fill:#ffe0e0;stroke:#878787;stroke-width:30;stroke-linejoin:bevel"
   d="m 10079.5,1584.33 45,95.23 185,-10.02 20,-120.3 145.1,-15.03 -25.1,120.29 h -35 l -35,30.07 80.1,195.5 45,5.01 25,110.26 -90.1,15.05 -35,150.37 -275,160.4 -535.13,-496.24 190.04,-60.14 -25,-70.18 z"
   id="_186867008"
   inkscape:label="#_Dubna" />
<path
   style="fill:#e0ffe0;stroke:#878787;stroke-width:30;stroke-linejoin:bevel"
   d="m 15795.7,17864.8 -55,-360.9 110,-15.1 50,-245.6 240,15.1 30,-100.3 140.1,-40.1 130,155.4 305.1,-15 330,140.3 105.1,-60.1 105,225.5 255,45.1 -100,145.4 400.1,-20.1 185,100.3 60,-270.7 70.1,170.4 -115.1,215.6 170.1,10 -90.1,70.2 130.1,115.3 -250.1,25 235.1,130.4 -5,225.5 -255.1,-15 95,421 -210,-75.2 -5,275.7 -340.1,-165.4 -615.1,556.4 -250.1,-10 105.1,-345.9 -325.1,-5 120,-120.3 -190,-381 95,-150.3 -360.1,-40.1 -220,80.2 -95,-35.1 165,-220.6 240,-70.1 10,-205.6 z"
   id="_186870064"
   inkscape:label="#_Ozery" />
<path
   style="fill:#ffe0e0;stroke:#878787;stroke-width:30;stroke-linejoin:bevel"
   d="m 12905.1,16626.7 -95.1,-305.8 -10,-190.4 -10,-145.4 55.1,-120.3 285,115.3 -10,65.2 280.1,145.3 50,-110.3 -65,-150.3 130,-20.1 15,-95.2 125,140.3 140,-35.1 140.1,-100.2 -55,-205.5 -85.1,40.1 -40,-185.5 70,-105.2 -80,-50.2 55,-160.4 175.1,80.2 -75,70.2 115,175.4 320.1,-250.6 140,25.1 190,-180.5 110,-30 20.1,-115.3 125,-65.2 235,30.1 250.1,-60.2 50,50.2 190,-55.2 -10,180.5 75,55.1 295.1,-150.4 230.1,25.1 60,225.6 140,15 85,50.1 15,95.3 -35,140.3 -155,-40.1 -25,175.4 95,25.1 120,185.5 -15,120.3 -150,-45.2 -190.1,230.6 110.1,100.3 50,-115.3 75,90.2 -135,185.5 100,-15.1 25,145.4 90,-50.1 -25,225.5 -70,-40.1 -105,185.5 75,60.1 -60,230.6 -140.1,40.1 -30,100.3 -240,-15.1 -50,245.6 -110,15.1 55,360.9 400,155.3 -10,205.6 -240,70.1 -165,220.6 -135.1,-90.2 -110,95.2 -225,-115.3 -215.1,75.2 -80,145.4 -265.1,215.5 -185,-120.3 -180,-35.1 -265.1,20.1 -95,-20.1 -110,-85.2 -130.1,5 -40,-215.5 -425,-180.5 -145.1,-295.7 115,-160.4 -165,-50.1 30,-215.6 -235,-30 35,-155.4 -215.1,-85.2 -25,-195.5 255.1,-55.2 -440.1,-315.7 z"
   id="_186871336"
   inkscape:label="#_Stupino" />
<path
   style="fill:#e0e0ff;stroke:#878787;stroke-width:30;stroke-linejoin:bevel"
   d="m 18071.1,18932.4 -95,-421 255.1,15 5,-225.5 -235.1,-130.4 250.1,-25 30,100.2 300,-40.1 -80,270.7 215.1,-105.3 145,260.7 595.1,30 180.1,230.6 300,-105.2 80,200.5 165.1,150.3 105,-50.1 40,310.8 -120,65.1 30,80.2 210,-15 -140,290.7 -125,30.1 140,55.1 75,-70.1 35,160.4 -55,65.1 135,80.2 -110,315.8 -250,25.1 -135.1,-195.5 -45,160.4 -100,-20.1 -45,140.4 -120,-165.4 -95,110.2 -335.1,-25 -175,320.8 -100.1,-85.2 -50,-200.5 -395.1,180.4 -60,-120.3 -130,150.4 25,100.2 -305.1,85.2 -25,-260.6 -305,-235.6 -235.1,75.2 -85,-125.3 -265.1,95.2 -175,-175.4 180.1,-350.9 -215.1,-130.3 -60,-285.7 615.1,-556.4 340.1,165.4 5,-275.7 z"
   id="_186875072"
   inkscape:label="#_Zaraysk" />
<path
   style="fill:#e0ffe0;stroke:#878787;stroke-width:30;stroke-linejoin:bevel"
   d="m 16190.8,22000 70,-295.7 -135.1,-240.6 200.1,-145.4 165,70.2 -75,-155.4 100,55.2 -10,-175.5 300.1,-200.5 -180.1,-370.9 250.1,-70.2 30,-145.3 90,-35.1 175,175.4 265.1,-95.2 85,125.3 235.1,-75.2 305,235.6 25,260.6 305.1,-85.2 35,100.3 -100,35.1 85,130.3 -195,90.2 25,180.5 230,-60.2 30,110.3 -200,35.1 -75,105.2 40,150.4 -90,50.1 50,345.9 225,-35.1 190.1,170.4 130,-10 115,-10 55,285.7 -340.1,145.4 -5,25 -15,175.5 -180,-215.6 -80,175.5 -225.1,-10.1 25,105.3 -335,120.3 -35,521.3 85,20 -30,155.4 -260.1,125.3 -90,-45.1 -65,-130.3 -565.1,-160.4 -55,-431.1 110,-471.1 -215.1,5 -170,-160.4 100,-65.2 -30,-55.1 -65,-105.3 -100,-10 -50,-130.3 z"
   id="_186876560"
   inkscape:label="#_SerebryanyePrudy" />
<path
   style="fill:#ffffe0;stroke:#878787;stroke-width:30;stroke-linejoin:bevel"
   d="m 15015.5,18626.7 80,-145.4 215.1,-75.2 225,115.3 110,-95.2 135.1,90.2 95,35.1 220,-80.2 360.1,40.1 -95,150.3 190,381 -120,120.3 325.1,5 -105.1,345.9 250.1,10 60,285.7 215.1,130.3 -180.1,350.9 -90,35.1 -30,145.3 -250.1,70.2 -75,-175.4 h -205 l -155,130.3 -160.1,-140.3 -35,-30.1 -140,55.1 -165.1,-250.6 -165,145.4 -190,-145.4 -25,-150.4 -215.1,-10 -155,125.3 -105,-285.7 -200.1,70.2 -240,-155.4 -15,-95.2 95,10 -20,-255.7 -140,-115.2 15,-45.2 -185.1,-110.2 50,-280.7 -70,-55.2 -5,-70.1 265.1,-20.1 180,35.1 185,120.3 z"
   id="_186879704"
   inkscape:label="#_Kashira" />
<path
   style="fill:#ffffe0;stroke:#878787;stroke-width:30;stroke-linejoin:bevel"
   d="m 10819.6,16872.3 225.1,-155.4 240,100.3 85,-175.5 100.1,100.3 300,100.2 45,381 235.1,-155.4 -20,235.6 290,-220.6 220.1,5 105,110.3 95,20.1 215.1,85.2 -35,155.4 235,30 -30,215.6 165,50.1 -115,160.4 145.1,295.7 425,180.5 40,215.5 -235,75.2 -560.1,95.2 95,50.2 80,145.3 -80,45.1 5,160.4 h 60 l -10,135.4 -85,10 -15,140.3 35,50.2 -220,230.5 -120.1,-10 -65,65.2 -280,-215.6 -280.1,-50.1 -25,130.3 -90,-50.1 -5,-85.2 25,-50.1 25,-65.2 -60,-180.4 -175.1,-20.1 20,-60.1 -90,-35.1 30,-115.3 -75,-130.3 -75,25 -80,-170.4 -40,10 -10,-55.1 -150.1,40.1 -105,-35.1 -80,50.1 -25,-135.3 -75,15 -15,140.4 -110.1,-110.3 -50,80.2 -120,-105.3 -5,75.2 -5,130.4 -185,-75.2 80,-105.3 v 0 l -100,-45.1 -100.1,65.2 -65,-75.2 100.1,-60.2 -30,-40.1 40,-105.2 95,-55.2 -95,-115.3 10,-100.2 -315.1,30.1 -20,-75.2 80,-110.3 -115,-130.3 -20,-100.3 -55,-100.2 70,25 15,-60.1 -210.06,-210.5 95.06,-80.2 -165.07,-235.6 -35.01,15 -85.02,-85.2 10.01,-95.2 -90.03,-115.3 200.05,-55.1 505.07,120.3 55,135.3 140.1,-275.7 z"
   id="_186883408"
   inkscape:label="#_Serpukhov" />
<path
   style="fill:#ffffe0;stroke:#878787;stroke-width:30;stroke-linejoin:bevel"
   d="m 12710,14371.1 -15,-345.9 -325,-70.1 -80.1,-100.3 35,-150.4 160.1,-35.1 -90,-75.1 155,-245.6 -15,-85.3 150,-75.2 145.1,-290.7 210,100.3 40,-100.3 320.1,85.2 -25,-255.6 110,125.3 130,-195.5 30,95.3 105,55.1 v 80.2 l -65,-30.1 110,270.7 155.1,-55.1 110,360.9 -185,115.2 160,135.4 45,-60.2 80,50.2 110,305.7 65.1,-55.1 135,120.3 60,145.3 -105,140.4 -80,-20.1 -50,100.3 -40.1,-50.1 -55,55.1 105.1,125.3 105,25.1 -15,90.2 195,-40.1 45,-115.3 125,60.2 -15,105.2 90.1,10 -65,115.3 25,135.4 -20.1,115.3 -110,30 -190,180.5 -140,-25.1 -320.1,250.6 -115,-175.4 75,-70.2 -175.1,-80.2 -55,160.4 80,50.2 -70,105.2 40,185.5 85.1,-40.1 55,205.5 -140.1,100.2 -140,35.1 -125,-140.3 -15,95.2 -130,20.1 65,150.3 -50,110.3 -280.1,-145.3 10,-65.2 -285,-115.3 -55.1,120.3 10,145.4 -310,-20.1 -50,45.1 -80.1,-210.5 215.1,-270.7 -130,-65.1 250,-80.2 -145,-406 165,-40.1 -115,-205.5 -95,45.1 -40,-80.2 160,-235.6 -65,-50.1 80,-75.2 85,110.2 60,-50.1 z"
   id="_186891288"
   inkscape:label="#_Domodedovo" />
<path
   style="fill:#e0ffe0;stroke:#878787;stroke-width:30;stroke-linejoin:bevel"
   d="m 11214.7,13323.5 15,-165.4 80,50.1 114.364,-149.19 116.667,-58.013 31.14,146.885 185.266,67.919 -55.736,93.751 30.064,96.516 183.435,47.732 -24.3,-144.58 115.542,-73.467 -17.564,-119.451 73.942,-5.955 29.483,-66.825 30.527,-58.719 52.37,-37.203 110,30 30,-195.5 230.1,45.2 215,-135.4 70.1,205.5 -145.1,290.7 -150,75.2 15,85.3 -155,245.6 90,75.1 -160.1,35.1 -35,150.4 80.1,100.3 325,70.1 15,345.9 75,170.4 -60,50.1 -85,-110.2 -80,75.2 -195,-45.2 9.9,245.6 -145,-50.1 -50,235.6 -85,-125.3 -110,140.3 -160.1,-285.7 -205,250.7 -359.819,161.908 60.338,-409.682 33.891,-18.286 -71.346,-94.31 -74.673,3.49 8.058,-64.925 -9.468,-55.049 40.053,16.613 58.201,34.284 33.132,-33.324 54.052,5.06 26.149,-42.438 -16.339,-56.172 -98.725,-112.525 84.131,-57.044 9.334,-59.509 91.733,-43.469 -82.3,-67.974 79.922,-99.917 36.155,4.589 40.268,-31.538 -3.602,40.814 24.89,36.664 43.167,-50.404 57.156,54.743 -67.84,-416.407 -147.203,-20.544 -8.033,-88.07 -51.429,-29.157 -190.333,-15.575 z"
   id="_186892232"
   inkscape:label="#_Podolsk" />
<path
   style="fill:#e0e0ff;stroke:#878787;stroke-width:30;stroke-linejoin:bevel"
   d="m 9770.625,12007.188 -101.225,103.312 -265.07,50.1 -155.03,155.4 10,-115.3 -470.09,60.1 -105.02,145.4 -315.07,25.1 5.01,180.4 -205.05,170.4 -440.09,75.2 v 95.3 l -240.05,-125.3 -65.01,125.3 -40.02,-145.4 -215.04,-15 -15,260.6 -345.07,-360.9 -255.06,240.6 -5,210.5 155.04,200.5 -285.06,100.3 15,290.7 -170.03,-40.1 -350.07,130.3 -60.03,-180.4 -285.06,200.5 -100.01,-180.5 -355.08,-20 -80.02,-170.4 -215.04,30 -355.07,335.9 -50.01,295.7 85.01,-145.4 125.04,40.1 -80.02,345.9 -300.06,115.3 -110.02,-115.3 -375.09,80.2 -20,335.8 -95.02,10.1 124.6725,285.612 85.3125,15 75,165.626 140,-110.313 100,35 85,170.625 155.3125,50 -20,-60.312 110,-70 5,105.312 310,85 80,240.625 95,45 165,-190.313 355,40 80,190.626 230.3125,-155.313 -70.3125,-30.313 75,-165.312 130.3125,-125.312 -25,-50 60,-245.626 175,50 15,-95.312 -15,-30 -50,-140.312 85,10 35,-165.313 130,-80.313 80,145.313 125,-20 -5,-70.313 220,-25 h 5 l 60,80.313 120,-135.313 -40,-90.312 285,-145.312 50,-115.313 120.3125,45.313 -90.3125,110 95.3125,135.312 30,40.312 -110.3125,25 30,155.313 -65,95.313 115.3125,160.312 145,-140.312 240,160.312 320,-65 165,230.625 -30,130.313 110,120.312 -60,145.312 115,30 10,5 215,-225.624 -70,-80 420.3125,-105.313 120,-275.625 335,-160.625 -230,-55 1.25,-217.187 -110.3125,-76.876 -229.0625,-290.312 -245,-237.812 -30.9375,-125.313 -3.75,-105 -81.5625,-35.625 45.9375,-93.75 -90.625,-22.5 -19.6875,-108.75 -69.375,-49.688 13.125,-213.124 43.125,3.75 30,-371.563 560.3125,7.187 35.625,118.438 151.25,34.062 10.9375,328.438 125.625,73.438 85,-68.438 74.6875,-67.5 79.0625,-5.312 33.4375,75.624 215,86.876 210.6245,47.812 -272.187,-258.125 218.75,-36.25 -84.6875,-132.5 85,-94.687 -55.625,-106.563 21.5625,-340 -37.8125,-144.687 z"
   id="_186897200"
   inkscape:label="#_NaroFominsk" />
<path
   style="fill:#e0e0ff;stroke:#878787;stroke-width:30;stroke-linejoin:bevel"
   d="m 10069.5,15218.2 375.1,-195.5 -30.1,140.4 580.2,35 625.1,-275.6 205,-250.7 160.1,285.7 110,-140.3 85,125.3 50,-235.6 145,50.1 -9.9,-245.6 195,45.2 65,50.1 -160,235.6 40,80.2 95,-45.1 115,205.5 -165,40.1 145,406 -250,80.2 130,65.1 -215.1,270.7 80.1,210.5 50,-45.1 310,20.1 10,190.4 95.1,305.8 -375.1,25.1 440.1,315.7 -255.1,55.2 25,195.5 -95,-20.1 -105,-110.3 -220.1,-5 -290,220.6 20,-235.6 -235.1,155.4 -45,-381 -300,-100.2 -100.1,-100.3 -85,175.5 -240,-100.3 -225.1,155.4 -265,-160.4 -140.1,275.7 -55,-135.3 -505.07,-120.3 -45.01,-145.4 45.01,-175.4 -105.03,20 -15,-90.2 -105.02,-45.1 -105.02,20 5,-295.7 215.05,-25.1 -5,-50.1 225.04,-15 -15,-95.3 165.05,-40.1 z"
   id="_186915824"
   inkscape:label="#_Chekhov" />
<path
   style="fill:#ffe0e0;stroke:#878787;stroke-width:30;stroke-linejoin:bevel"
   d="m 8384.12,14275.9 25.02,205.5 -255.06,10 5,-160.4 z"
   id="_186919456"
   inkscape:label="#_Molodezhny" />
<path
   style="fill:#ffe0e0;stroke:#878787;stroke-width:30;stroke-linejoin:bevel"
   d="m 10579.6,18330.9 -95,55.2 -40,105.2 30,40.1 -100.1,60.2 -100,15 -185,-150.4 45,-90.2 -40,-30.1 40,-80.2 -35,-45.1 60,-140.3 20,75.2 315.1,-30.1 -10,100.2 z"
   id="_186921776"
   inkscape:label="#_Protvino" />
<path
   style="fill:#ffe0e0;stroke:#878787;stroke-width:30;stroke-linejoin:bevel"
   d="m 12395,18626.7 115,40.1 40,245.6 -235.1,95.2 -190,-155.4 -165,-70.2 z"
   id="_186923280"
   inkscape:label="#_Puschino" />
<path
   style="fill:#ffffe0;stroke:#878787;stroke-width:30;stroke-linejoin:bevel"
   d="m 5468.52,4907.58 v -90.23 -20.04 l 160.04,25.06 105.01,-210.52 345.07,-105.27 365.08,-335.82 65.02,115.27 470.09,15.05 5.01,-240.6 240.05,5.01 105.02,-165.4 275.06,195.48 -75.03,-235.58 800.18,-456.15 -55.02,-190.46 395.08,170.42 35.01,-90.22 70.01,120.29 410.09,95.23 -90.02,150.38 500.1,85.22 180.04,55.13 60.02,95.24 -140.03,115.28 -255.06,5.02 -95.02,195.49 -205.04,200.49 285.06,275.68 -35.01,160.41 110.02,85.2 -155.03,30.08 5.01,75.19 80.01,10.02 -60.02,60.15 20.01,145.36 -130.03,15.04 105.03,250.63 -265.05,5 230.04,170.43 -20.01,115.28 -235.04,-100.25 -230.05,50.13 v 150.37 l -180.04,-10.02 30.01,150.38 -115.02,145.35 -15,250.62 -260.06,30.08 -35.01,70.17 -280.06,105.26 30.01,140.35 -70.01,85.22 55,40.1 -125.02,110.27 185.04,150.37 -130.02,340.85 -25.02,-80.2 -85.02,25.06 -70.01,-65.16 -70,50.13 80,55.13 -40,90.23 -245.06,-90.23 55.02,215.54 -135.02,-20.05 -45.02,75.19 -185.04,-65.17 -430.09,130.33 -140.03,-90.23 -80.02,115.29 -530.1,15.04 -70.02,-421.04 125.02,-401 -440.09,-235.6 25.02,-180.44 -290.07,10.02 -170.03,-310.77 210.04,-35.09 -185.04,-215.53 85.02,-140.35 h -220.04 l -130.03,-255.63 -200.04,-190.47 50.01,-456.14 120.02,35.09 100.02,-290.72 z"
   id="_186924016"
   inkscape:label="#_Klin" />
<path
   style="fill:#ffe0e0;stroke:#878787;stroke-width:30;stroke-linejoin:bevel"
   d="m 1432.68,10561.6 175.04,30.1 85.01,-190.5 220.05,-45.1 80.02,-85.2 h 130.02 l 65.02,-210.5 265.05,35.1 -70.01,160.4 190.03,385.9 -245.04,180.5 250.05,-35.1 10.01,105.3 490.1,-40.1 70.01,170.4 125.02,35.1 45.01,-175.5 185.05,-70.1 110.02,-5.1 -15,230.6 145.02,100.3 390.09,-160.4 300.06,235.6 -85.02,175.4 200.04,-40.1 -45.01,175.4 170.03,80.2 -70.01,140.4 155.03,25 65.02,345.9 140.03,-125.3 190.04,270.6 115.02,-90.2 365.07,631.6 -80.02,110.3 -245.04,-25.1 75.01,200.5 -375.08,205.5 70.02,85.2 -45.02,95.3 -215.04,30 -355.07,335.9 -50.01,295.7 85.01,-145.4 125.04,40.1 -80.02,345.9 -300.06,115.3 -110.02,-115.3 -375.09,80.2 -20,335.8 -95.02,10.1 125.03,285.7 -60.01,85.2 -205.04,50.1 -145.04,-105.3 30.01,-120.3 -125.03,5.1 -255.05,-335.9 -130.03,155.4 -50.01,-105.3 -230.05,125.4 -140.02,-100.3 -280.06,-15 -50.01,145.3 60.01,60.2 -90.02,150.4 -125.02,-70.2 -190.04,70.2 70.01,85.2 -245.05,35.1 -85.02,70.1 -190.04,-75.2 -65.02,30.1 -95.02,-85.2 -75.01,-5 -25,-140.4 -15,-75.1 -195.05,-25.1 -135.024,-210.5 75.012,-95.3 -235.04,-200.5 95.02,-15 80.008,-180.4 -19.996,-345.9 100.016,-30.1 -40.004,-165.4 165.035,-140.3 -130.027,-65.2 50.007,-150.4 -120.023,-85.2 10.004,-135.3 145.027,-75.2 -30.011,-45.1 45.011,-75.2 -55.015,-145.4 175.04,-90.2 -275.056,-225.6 25.004,-240.6 215.042,-20 25.01,100.2 115.02,-45.1 -25,-130.3 135.02,-10 -40,-325.8 -165.04,-65.2 -25,-210.5 -125.033,-50.1 90.024,-295.8 -80.02,-55.1 -85.015,-245.6 20.008,-115.3 180.036,45.1 -90.025,-225.5 55.016,-50.2 -30.012,-135.3 310.061,15 -45,190.5 135.03,60.2 z"
   id="_186924944"
   inkscape:label="#_Mozhaysk" />
<path
   style="fill:#e0e0ff;stroke:#878787;stroke-width:30;stroke-linejoin:bevel"
   d="m 1637.73,5945.17 115.02,-5.02 -135.03,-195.49 180.04,-60.15 -120.03,-70.17 40.01,-446.1 70.01,90.22 130.03,-265.67 -40,-15.03 -95.02,-35.09 -80.02,145.36 -315.06,10.02 60.01,-406 135.02,-5.02 -160.02,-145.36 30,-120.29 h 175.04 l 85.01,105.26 -60.01,65.16 115.03,75.19 h 140.02 l 390.08,-411.03 h 90.02 l 35.01,205.52 160.03,-55.14 -20.01,90.23 175.04,30.07 -40,120.29 165.03,200.51 70.02,-25.07 15,205.52 170.03,5 180.04,-145.36 65.01,10.03 v 55.14 l 235.06,35.09 -135.04,50.12 35.01,75.18 105.02,-50.13 35.01,125.32 415.09,15.03 25,-65.16 460.1,25.07 120.02,145.35 -70.01,30.09 10,160.39 130.03,5.02 200.04,190.47 -195.04,30.08 -15,556.38 -275.06,-65.16 -70.02,220.55 75.02,190.46 -440.09,75.19 -25.01,115.29 -560.11,-55.14 -595.13,255.63 30,335.83 -170.03,90.23 -40,-90.23 65.01,-95.23 -140.04,-50.12 -120.02,130.32 -160.03,-250.62 -325.07,50.13 -40.01,-60.16 95.02,-185.45 -20,-30.09 -105.02,20.06 -125.03,-45.11 115.03,-115.29 -160.04,-130.32 -100.01,30.07 10,30.07 -85.03,50.13 -180.03,-225.56 -5,-75.18 -45.01,-75.19 15,-50.13 265.06,85.22 215.04,-170.42 z"
   id="_186929960"
   inkscape:label="#_Lotoshino" />
<path
   style="fill:#ffffe0;stroke:#878787;stroke-width:30;stroke-linejoin:bevel"
   d="m 3593.13,10336.1 140.03,290.7 140.03,-421.1 325.06,-80.2 35.01,-105.2 520.11,-60.16 55.01,-325.81 90.02,330.81 85.02,-20.04 -10.01,-250.63 355.08,-255.64 -230.05,-75.17 175.04,-105.26 -95.02,-150.38 360.07,-225.56 -15,-100.25 -185.04,-75.19 75.01,-165.41 440.09,60.15 -25,-105.26 85.03,10.02 34.99,375.94 145.04,-85.21 -40.01,-165.42 390.08,55.14 -35.01,140.35 h 55.02 l 60.01,255.63 -15,160.4 150.02,-10.02 300.08,486.2 -340.08,110.28 130.03,105.26 -130.03,150.33 -130.03,-5 15,280.7 165.04,-80.2 20.01,150.4 110.02,70.2 20,-90.2 90.02,40.1 140.03,155.3 -75.01,50.2 45.01,195.5 -65.02,130.3 280.06,390.9 -120.02,95.3 -15.02,270.7 170.05,145.3 -260.06,100.3 -225.04,245.6 -410.1,70.2 -150.02,140.3 55.01,130.3 -90.02,100.3 205.04,65.1 160.03,195.5 -5,210.5 155.04,200.5 -285.06,100.3 15,290.7 -170.03,-40.1 -350.07,130.3 -60.03,-180.4 -285.06,200.5 -100.01,-180.5 -355.08,-20 -80.02,-170.4 45.02,-95.3 -70.02,-85.2 375.08,-205.5 -75.01,-200.5 245.04,25.1 80.02,-110.3 -365.07,-631.6 -115.02,90.2 -190.04,-270.6 -140.03,125.3 -65.02,-345.9 -155.03,-25 70.01,-140.4 -170.03,-80.2 45.01,-175.4 -200.04,40.1 85.02,-175.4 -300.06,-235.6 -390.09,160.4 -145.02,-100.3 15,-230.6 -110.02,5.1 115.01,-90.3 -50.01,-85.2 -255.04,-130.3 z"
   id="_186934568"
   inkscape:label="#_Ruza" />
<path
   style="fill:#ffffe0;stroke:#878787;stroke-width:30;stroke-linejoin:bevel"
   d="m 877.571,7734.61 125.019,-90.23 -110.019,-100.25 -160.039,25.06 -25.004,-185.45 165.036,-90.23 -100.016,-100.25 330.072,-285.71 -70.02,-60.15 75.01,-100.24 -195.031,-100.25 -45.012,-190.48 455.093,-130.32 45.01,75.19 5,75.18 180.03,225.56 85.03,-50.13 -10,-30.07 100.01,-30.07 160.04,130.32 -115.03,115.29 125.03,45.11 105.02,-20.06 20,30.09 -95.02,185.45 40.01,60.16 325.07,-50.13 160.03,250.62 120.02,-130.32 140.04,50.12 -65.01,95.23 40,90.23 170.03,-90.23 65.02,135.35 -160.04,110.26 -155.03,501.25 H 2933 l -145.04,155.39 75.02,315.79 195.04,65.16 -35.01,260.65 -160.03,140.35 80.01,205.5 -390.07,360.9 115.01,300.75 -215.04,190.5 -265.05,-35.1 -65.02,210.5 H 1992.8 l -80.02,85.2 -220.05,45.1 -85.01,190.5 -175.04,-30.1 -75.01,50.2 -135.03,-60.2 45,-190.5 -310.061,-15 -15,-65.2 -235.051,-40.1 35.008,-155.4 L 527.492,9794.72 507.485,9664.4 332.457,9398.73 437.481,9263.4 312.449,9328.56 277.441,9143.11 2.38583,8837.34 272.445,8361.16 l 110.02,20.05 110.02,-190.47 -30,-135.33 165.035,65.16 40.004,-90.23 60.012,-125.31 115.028,65.16 75.011,-185.46 z"
   id="_186941952"
   inkscape:label="#_Shakhovskaya" />
<path
   style="fill:#e0ffe0;stroke:#878787;stroke-width:30;stroke-linejoin:bevel"
   d="m 2862.98,9037.85 160.03,-140.35 35.01,-260.65 -195.04,-65.16 -75.02,-315.79 145.04,-155.39 h -325.08 l 155.03,-501.25 160.04,-110.26 -65.02,-135.35 -30,-335.83 595.13,-255.63 560.11,55.14 25.01,-115.29 440.09,-75.19 -75.02,-190.46 70.02,-220.55 275.06,65.16 15,-556.38 195.04,-30.08 130.03,255.63 h 220.04 l -85.02,140.35 185.04,215.53 -210.04,35.09 170.03,310.77 290.07,-10.02 -25.02,180.44 440.09,235.6 -125.02,401 70.02,421.04 -115.03,105.26 -125.02,-190.48 -175.04,80.21 30,320.79 115.03,80.2 5.01,130.33 65.01,-30.09 40,120.31 25,105.26 -440.09,-60.15 -75.01,165.41 185.04,75.19 15,100.25 -360.07,225.56 95.02,150.38 -175.04,105.26 230.05,75.17 -355.08,255.64 10.01,250.63 -85.02,20.04 -90.02,-330.81 -55.01,325.81 -520.11,60.16 -35.01,105.2 -325.06,80.2 -140.03,421.1 -140.03,-290.7 -280.05,170.4 255.04,130.3 50.01,85.2 -115.01,90.3 -185.05,70.1 -45.01,175.5 -125.02,-35.1 -70.01,-170.4 -490.1,40.1 -10.01,-105.3 -250.05,35.1 245.04,-180.5 -190.03,-385.9 70.01,-160.4 215.04,-190.5 -115.01,-300.75 390.07,-360.9 z"
   id="_186945080"
   inkscape:label="#_Volokolamsk" />
<path
   style="fill:#ffe0e0;stroke:#878787;stroke-width:30;stroke-linejoin:bevel"
   d="m 6633.76,8681.96 30.01,110.28 90.01,15.03 v 280.69 l -230.04,-5.01 -60.01,-255.63 30,-50.13 -9.99,-60.14 60.01,-80.2 z"
   id="_186946608"
   inkscape:label="#_Voskhod" />
<path
   style="fill:#ffe0e0;stroke:#878787;stroke-width:30;stroke-linejoin:bevel"
   d="m 9439.34,12040.3 -100.02,-75.2 275.06,-65.1 55.02,210.5 -265.07,50.1 -135.02,-20.1 50.01,-105.2 95.02,40.1 z"
   id="_186947840"
   inkscape:label="#_Krasnoznamensk" />
<path
   style="fill:#ffffe0;stroke:#878787;stroke-width:30;stroke-linejoin:bevel"
   d="m 13265.1,9584.2 90.1,75.19 85,-5.02 330,-120.29 35.1,30.07 135,115.29 155,5 10,80.21 -25,25.06 85,65.17 125.1,-80.21 190,150.38 75,135.35 50,245.6 -75,150.4 270.1,75.2 5,80.2 175,95.2 -45,75.2 -160.1,-75.2 -80,45.1 20,55.1 55.1,-10 85,195.5 185,20 -20,80.2 -145,15.1 -75,-70.2 -145.1,80.2 v 25.1 l -75,10 -220,-75.2 -30,-60.1 -135.1,80.2 -55,-100.3 -110,-70.2 -35,5.1 -150,-80.2 -35.1,50.1 -200,15 -20,-95.2 -5,-25.1 100,-25.1 h 15 l -15,-90.2 5,-65.1 -25,-10.1 -20,-55.1 40,-15 -10,-35.1 -90,-35.1 5,-75.2 -120,45.1 -7.647,-178.895 -32.353,-252.205 -300.1,-275.64 v -135.33 z"
   id="_186951328"
   inkscape:label="#_Balashikha" />
<path
   style="fill:#e0e0ff;stroke:#878787;stroke-width:30;stroke-linejoin:bevel"
   d="m 13555.2,11213.3 -5,-5.1 30,-25 -65,-65.2 25,-20 75,65.1 80,-90.2 35,-5 47.095,-0.942 20.417,51.1 31.158,-10.51 19.093,58.937 40.545,-22.728 -70.435,104.783 17.156,47.561 5.623,45.818 220.06,42.222 -1.489,-169.69 -83.105,-47.819 83.332,-27.122 -81.118,-72.378 111.2,9.404 -20.342,-35.826 33.301,-18.896 -54.901,0.47 -8.269,-37.02 -55.004,-5.196 10.783,-47.468 35,-5.1 110,70.2 55,100.3 135.1,-80.2 30,60.1 220,75.2 -10,70.2 110,105.2 -40,110.3 -50,-5 -65,100.2 -65,-10 20,90.2 -105,75.2 10,105.3 -140.1,25 -185,-120.2 -45,80.1 120,80.3 80,-15.1 -15,80.2 -115,75.2 75,70.2 v 120.3 l 50,10 30,100.3 -115,-5.1 -80,-50.1 -110,35.1 -40,-45.1 -100.1,-300.8 -175,50.2 50,-135.4 -75,-110.2 25,-35.1 -20,-20.1 150,10 v -85.2 l -55,-140.3 -145,-120.3 25,-120.3 z"
   id="_186992352"
   inkscape:label="#_Lubertsy" />
<path
   style="fill:#ffe0e0;stroke:#878787;stroke-width:30;stroke-linejoin:bevel"
   d="m 14820.5,9514.02 h -30 l -5,-35.08 -35.1,5.01 15.1,50.13 -30.1,25.06 15,10.03 115.1,75.17 80,-115.28 -115,-65.16 z"
   id="_186997536"
   inkscape:label="#_ZvezdnyGorodok" />
<path
   style="fill:#ffe0e0;stroke:#878787;stroke-width:30;stroke-linejoin:bevel"
   d="m 10109.5,11333.5 -5,-175.4 h 170 v 110.3 l -125,70.2 z"
   id="_186999008"
   inkscape:label="#_Vlasikha" />
<path
   style="fill:#ffe0e0;stroke:#878787;stroke-width:30;stroke-linejoin:bevel"
   d="m 14965.5,12436.3 -135,50.1 -40,35.1 -120.1,-140.4 -125,-125.3 -75,45.2 -40,-30.1 5,-95.3 -50,-65.1 10,-70.2 165,-35.1 35,-105.2 185.1,-15.1 170,120.3 v 120.3 l 150,115.3 -50,185.5 210,180.4 -60,75.2 z"
   id="_186999872"
   inkscape:label="#_Zhukovsky" />
<path
   style="fill:#ffe0e0;stroke:#878787;stroke-width:30;stroke-linejoin:bevel"
   d="m 14590.4,8842.35 15,125.32 -115,60.15 -20,-15.03 25,-35.1 -160,-135.34 -55,-120.29 15,-15.04 80,45.11 55,-45.11 30,-55.13 215,95.23 -15,50.13 -95,-25.07 -15,30.07 z"
   id="_187001576"
   inkscape:label="#_Fryazino" />
<path
   style="fill:none;stroke:#000000;stroke-width:40;stroke-linejoin:bevel"
   d="m 12780,0.625 -135,175.3125 -135,-45 -20,90 -505.312,195.625 -80,230.625 L 12150,807.5 l -215.312,70 85.312,210.625 -185.312,120.3125 -225,446.25 -115,-210.625 -500,155.3125 -40,155.3125 -280.313,-110 -170,240.3125 -45,-5 -80,-195.3125 35,-30 h 35 l 25,-120.3125 -145,15 -20,120.3125 -185,10 -45,-95.3125 -320,110.3125 25,70.3125 -190,60 535,496.25 -100,55 10,100.3125 -140,45.3125 170,135.3125 -25,80 -205,95.3125 115,220.625 -70,120.3125 135,115.3125 -270,430.9375 -50,-35 -75,-50.3125 -30,110.3125 -500.3125,-85 90,-150.625 -410,-95 -70,-120.3125 -35,90 -395,-170.3125 55,190.3125 -800.3125,456.25 75,235.625 -275,-195.625 -105,165.625 -240,-5 -5,240.625 -470.3125,-15.3125 -65,-115 -365,335.625 -345,105.3125 -105,210.625 -160,-25 v 20 90 l -470.3125,-115 -100,290.625 -120,-35 -50,455.9375 -130,-5 -10,-160.3125 70,-30 -120,-145.625 -460,-25 -25,65.3125 -415.3125,-15 -35,-125.3125 -105,50 -35,-75.3125 135,-50 -235,-35 V 4897.5 l -65,-10 -180,145.3125 -170,-5 -15,-205.3125 -70,25 -165.3125,-200.625 40.3125,-120.3125 -175.3125,-30 20,-90.3125 -160,55.3125 -35,-205.625 h -90 l -390,410.9375 h -140 l -115,-75 60,-65.3125 -85,-105 h -175 l -30,120.3125 160,145.3125 -135,5 -60,405.9375 315,-10 80,-145.3125 95,35 40,15 -130,265.625 -70,-90.3125 -40,446.25 120,70.3125 -180,60 135,195.625 -115,5 180,245.625 -215,170.3125 -265.3125,-85.3125 -15,50.3125 -455,130.3125 45,190.3125 195,100.3125 -75,100.3125 70,60 -330,285.9375 100,100 -165,90.3125 25,185.625 160,-25.3125 110,100.3125 -125,90.3125 40,50 -75,185.625 -115,-65.3125 -60,125.3125 -40,90.3125 -165,-65.3125 30,135.3125 -110,190.625 -110,-20 -270.3125,476.25 275.3125,305.625 35,185.3125 125,-65 -105,135.3125 175,265.625 20,130.3125 215,290.9375 -35,155.313 235,40 15,65.312 30,135 -55,50.312 90,225.626 -180,-45.313 -20,115.313 85,245.624 80,55.313 -90,295.625 125,50 25,210.625 165,65.313 40,325.624 -135,10 25,130.313 -115,45.313 -25,-100.313 -215,20 -25,240.625 275,225.625 -175,90 55,145.625 -45,75 30,45.312 -145,75 -10,135.313 120,85.313 -50,150.312 130,65 -165,140.625 40,165.313 -100,30 20,345.937 -80,180.625 -95,15 235,200.312 -75,95.313 135,210.625 195,25 15,75 25,140.625 75,5 95,85 65,-30 190.3125,75.313 85,-70.313 245,-35 -70,-85.313 190,-70 125,70 90,-150.312 -60,-60.312 50,-145.313 280,15 140,100.313 230.3125,-125.313 50,105.313 130,-155.313 255,335.625 125,-5 -30,120.312 145,105.313 205,-50 60,-85.313 85,15 75,165.626 140.3125,-110.313 100,35 85,170.313 155,50.312 -20,-60.312 110,-70 5,105.312 310,85 80,240.625 95,45 165,-190.313 355.3125,40 80,190.626 230,-155.626 -70,-30 75,-165.312 130,-125.312 -25,-50 60,-245.626 175,50 15,-95.312 -15,-30 -50,-140.312 85,10 35,-165.313 130,-80.313 80,145.313 125,-20 -5,-70.313 220.3125,-25 h 5 l 60,80.313 120,-135.313 -40,-90.312 285,-145.312 50,-115.313 120,45.313 -90,110 95,135.312 30,40.312 -110,25 30,155.313 -65,95.313 115,160.312 145,-140.312 240,160.312 320.3125,-65 165,230.625 -30,130.313 110,120.312 -60,145.312 115,30 10,5 215,-225.624 -70,-80 420,-105.313 120.3125,-275.625 335,-160.625 -230,-55 1.25,-217.187 -110.3125,-76.876 -229.0625,-290.312 -245,-237.812 -30.9375,-125.313 -3.75,-105 -81.5625,-35.625 45.9375,-93.75 -90.625,-22.5 -19.6875,-108.75 -69.375,-49.688 13.125,-213.124 43.125,3.75 30,-371.563 560.3125,7.187 35.625,118.438 151.25,34.062 10.9375,328.438 125.625,73.438 159.6875,-135.938 79.0625,-5.312 33.4375,75.624 215,86.876 210.6245,47.812 -272.187,-258.125 218.75,-36.25 -84.6875,-132.5 85,-94.687 -55.625,-106.563 21.5625,-340 -37.8125,-144.687 -133.4375,-248.75 58.795,-52.088 85.02,60.1 15.01,-95.2 210.05,45.1 60,-135.3 90,-40.1 35,30 5,-20 30,40.1 120.1,-125.3 -30.1,-85.2 180.1,-80.2 75.054,17.991 16.39,-93.984 37.896,4.743 -5.019,42.971 -32.471,-1.616 -8.599,49.011 116.749,30.984 65,-165.4 55.1,65.2 25,-35.1 20,-115.3 130,10 6.316,-115.465 73.684,110.465 65,-85.2 30,50.1 40,-30.1 -40,-110.2 -57.547,-99.162 -190.611,222.94 -132.585,-43.546 73.335,-121.761 20.506,62.842 22.836,-78.684 62.566,-66.883 83.666,56.926 17.4,-86.718 -22.198,-54.516 -82.368,-247.638 5,-370.9 85,-145.4 10,-50.1 -35,-5 -25,60.2 h -15 l -10,-50.2 20,-45.1 35,20.1 -4.163,12.209 16.724,-40.681 52.439,-131.958 -90,-10.03 -80,80.16 -30,-65.12 v 60.12 l -45,-45.09 -10,-75.17 -20,-35.09 45,-25.07 -80,-5 40,-90.23 -15,-35.09 105,-90.22 30,10.02 65,-20.05 5,70.18 -15,30.07 20,30.07 80,-15.03 30,-100.26 40,-40.09 -35,-35.08 h -115 l -35.005,-75.19 15,-75.19 -60,-35.09 40,-125.3 -30,-25.07 55,-75.19 -115,-75.19 -35,45.11 -65.1,-75.18 50.1,-40.09 20,30.07 40,-30.07 -65,-95.25 35,-30.07 30,25.06 25,-20.05 -15,-20.05 25,-20.05 180,70.18 55,-45.12 90.1,35.09 -120.1,115.29 25,110.27 -64.387,8.4695 24.387,76.7405 -65,5.01 10,110.28 45,5.01 50,190.48 80.1,30.07 95,-60.14 h 125 l 175.005,-125.32 125,-90.22 40.1,-5.02 -75.1,-290.72 70.1,-25.06 h 35 l -20,-85.21 155,-40.11 30,25.06 5,50.13 -65,-5.01 v 65.16 l 30,20.05 -10,45.12 -15,5 -25,15.04 5,165.41 -30,40.1 15,-5.01 120,-10.02 335.1,130.32 h 135 l 125,15.03 370.1,330.83 300.1,275.64 32.353,252.205 7.647,178.895 -2.079,296.509 217.079,-50.909 15,90.2 h -15 l -100,25.1 25,120.3 200,-15 35.1,-50.1 150,80.2 -10.783,47.468 55.004,5.196 8.269,37.02 54.901,-0.47 -33.301,18.896 20.342,35.826 -111.2,-9.404 81.118,72.378 -83.332,27.122 83.105,47.819 1.489,169.69 -220.06,-42.222 -5.623,-45.818 -17.156,-47.561 70.435,-104.783 -40.545,22.728 -19.093,-58.937 -31.158,10.51 -20.417,-51.1 -82.095,5.942 -80,90.2 -75,-65.1 -25,20 65,65.2 -30,25 25,20.1 -25,120.3 -140,-110.3 35,130.3 10,160.4 -40,40.1 -130.1,165.4 -65,65.2 -160,160.4 -360.1,260.6 -120,40.1 -345.1,-40.1 45,115.3 -80,35.1 -50,335.9 30,15 60,70.2 25,105.2 -90,50.2 -52.37,37.203 -60.01,125.544 -73.942,5.955 17.564,119.451 -115.542,73.467 24.3,144.58 -183.435,-47.732 -30.064,-96.516 55.736,-93.751 -185.266,-67.919 -31.14,-146.885 -116.667,58.013 -114.364,149.19 -80,-50.1 -15,165.4 4.62,90.846 190.333,15.575 51.429,29.157 8.033,88.07 147.203,20.544 67.84,416.407 -57.156,-54.743 -43.167,50.404 -24.89,-36.664 3.602,-40.814 -40.268,31.538 -36.155,-4.589 -79.922,99.917 82.3,67.974 -91.733,43.469 -9.334,59.509 -84.131,57.044 98.725,112.525 16.339,56.172 -26.149,42.438 -54.052,-5.06 -33.132,33.324 -98.254,-50.897 9.468,55.049 -8.058,64.925 74.673,-3.49 71.346,94.31 -33.891,18.286 -60.338,409.682 -265.281,113.692 -580.2,-35 30.1,-140.4 -375.1,195.5 45,576.4 -165.05,40.1 15,95.3 -225.079,14.997 5,50 -215,25.312 -5,295.626 105,-20 105,45 15,90.312 105,-20 -45,175.312 45,145.313 -200,55.313 90,115 -10,95.312 85,85.312 35,-15 165,235.626 -95,80 210,210.624 -15,60 -70,-25 55,100.313 20,100.313 115,130.312 -80,110.312 -60,140.313 35,45 -40,80.313 40,30 -45,90.312 185,150.312 100,-15 65,75 100,-65 100,45 -80,105.313 185.313,75.313 5,-130.313 5,-75.313 120,105.313 50,-80.313 110,110.313 15,-140.313 75,-15 25,135.313 80,-50 105,35 150,-40.313 10,55.313 40,-10 80,170.313 75,-25 75,130.312 -30,115.312 90,35 -20,60.313 175,20 60.312,180.625 -25,65 -25,50 4.688,85.312 90.312,50 25,-130.312 280,50.312 280,215.313 65,-65 120,10 220,-230.625 -35,-50 15,-140.312 85,-10 10,-135.313 h -60 l -5,-160.625 80,-45 -80,-145.312 -95,-50.313 560.312,-95.313 235,-75 130,-5 110,85.313 95,20 5,70 70,55.313 -50,280.624 185,110.313 -15,45 140,115.313 20,255.624 -95,-10 15,95.313 240.313,155.313 200,-70.313 105,285.937 155,-125.312 215,10 25,150.312 190,145.313 165,-145.313 165.313,250.626 140,-55 35,30 160,140.312 155,-130.312 h 205 l 75,175.312 180,370.938 -300,200.624 10,175.313 -100,-55 75,155.313 -165,-70 -200,145.312 135,240.312 -70,295.938 160,90.312 50,130.313 100,10 65,105.313 30,55 -100,65.312 170,160.312 215,-5 -110,470.938 55,431.25 565.312,160.312 65,130.313 90,45 260,-125.313 30,-155.312 -85,-20 35,-521.25 335,-120.312 -25,-105.313 225,10 80,-175.313 180,215.626 15,-175.626 5,-25 340.312,-145.312 -55,-285.625 -115.312,10 -130,10 -190,-170.625 -225,35.312 -50,-345.937 90,-50.313 -40,-150.312 75,-105 200,-35.312 -30,-110.313 -230,60.313 -25,-180.313 195,-90.313 -85,-130.312 100,-35.312 -35,-100 -25,-100.313 130,-150.313 60,120 395.312,-180.312 50,200.625 100,85 175,-320.625 335,25 95,-110.312 120,165.312 45,-140 100,20 45,-160.625 135.313,195.625 250,-25 110,-315.938 -135,-80 55,-65.312 -35,-160.312 40,-165.626 295,-40 10,80.313 190,60 -50,-95.313 220,-175.312 -295,-40 90,-80.312 -15,-90.313 145,-85 -30,-50.313 95,-195.312 75,-150.312 130,-100.313 -135,-160.625 320.313,-290.625 -5,-335.625 310,-330.938 25,-130.312 h 405 l 25,-60 -85,-150.625 125,80.313 20,-295.626 60,10 160,15 105.312,170.313 405,-10 -20,-225.625 245,220.625 275,-947.187 -140,-25.313 -55,-95 -50,-95.313 -285,210.313 h -170 l 355,-666.563 10,-15 750.312,-190.312 225,70 305,-355.938 505,-180.312 125,-375.938 110.313,-55.312 -5,-10 -135.313,-160.312 140.313,-110.313 -130.313,-450.937 -155,-175.626 45,-385.937 200.313,35 10,-355.625 v -5 l -120.313,-45.312 -30,-195.313 -570,25 -20,-516.25 45,15 95,35 60,-235.625 -220,-270.625 55,-180.313 -190,-260.624 -95,-10 -210,-315.938 -100,30 -250.312,-370.938 130,-350.624 -105,-290.938 -400,-35 -90,100.312 -5,-135.312 -285,-5 -100,250.625 -80,10 20,210.625 -190.312,20 -130,-155.625 -225,120.313 -360,15.312 5,390.625 h -170 l -90,-25 10,-245.625 -225,5 35,-70 -335.313,125.312 -20,5 -180,-35.312 -15,-275.625 -160,-270.625 240,-215.3125 -60,-50.3125 -335,215.625 -750.313,-85.3125 -375,-531.25 150,-215.625 -35,-60 -75,170.3125 -145,-75 v -90.3125 l 195,-30 -185,-70.3125 -335,165.3125 -260.312,-125.3125 -285,285.9375 -125,-210.625 -420,-370.9375 -160,-60 -315,60 -160,45 -140,-215.3125 235,-135.3125 -15,-10.3125 -140,-60 10,-285.625 -195.312,-60.3125 -55,-150.3125 -50,-165.3125 15,-165.625 -90,-75 30,-245.625 -120,-225.625 145,-300.625 -345,85 -75,-190.3125 -160,-165.3125 15,-110.3125 -80,-85.3125 95,-100.3125 -20,-20 85,-85.3125 40,-210.3125 -135,-70.3125 90,-340.9375 -100,-105 220,-40.3125 -40,-160.3125 -320,-55 155,-340.9375 -70,-180.3125 -285,40 20,-220.625 -225.313,-115.3125 230.313,-200.3125 -240.313,15 -105,-110.3125 60,-135.3125 385.313,-285.9375 -20,-180.3125 -165,-100.3125 90,-200.3125 -125,-85.3125 -75.313,-491.25 90.313,-205.625 -110.313,-210.3125 35,-185.625 -315,-250.625 v 260.625 l -180,-85 h -365 l -120,90 -195,-10 -30,100.3125 -80.313,-10 15,-150.3125 h -285 l -70,-857.1875 -295,-195.3125 -165,100 -140,-265.625 -130,30.3125 -45,-75.3125 -135,25 L 13170,256.25 h -160 l 25,-160.625 z"
   id="_142580000"
   inkscape:label="#_Border" />
<path
   style="fill:#ffffff;stroke:#000000;stroke-width:40;stroke-linejoin:bevel"
   d="m 10219.5,8285.97 -135,80.21 -60,-75.19 -110.06,25.06 130.06,215.53 -70.05,45.12 40.05,160.39 -30.04,75.19 200.04,15.04 165,120.3 -40,-210.53 65,-100.24 130.1,40.1 15,80.2 v 0 l 55,-10.03 15,-170.42 h -60 l 40,-45.12 z"
   id="_142580001"
   inkscape:label="#_Border1_Zelenograd" />
<path
   style="fill:#ffffff;stroke:#000000;stroke-width:40;stroke-linejoin:bevel"
   d="m 9474.3321,10675.513 51.6808,30.538 -30.5385,61.077 73.7562,18.044 36.3012,36.514 71.301,-45.34 167.3361,2.462 -15.331,-46.693 -66.5945,26.268 -64.2871,-40.78 68.964,-63.315 150.3168,118.774 -62.5295,92.443 -138.2857,23.881 -51.4364,-43.698 -44.1277,89.084 -102.0086,-9.998 37.9002,92.795 -46.6751,2.115 1.2867,-25.949 -55.5479,-1.728 -0.6629,22.565 -42.1644,7.254 -53.6821,-62.202 42.6599,-33.572 62.7873,-11.817 -2.5527,-48.958 -10.8772,-12.875 -40.0764,2.394 -11.9904,21.846 -22.7119,17.362 -129.5422,-70.13 38.429,-38.782 -22.6455,-39.184 -25.2813,-20.07 -36.4139,60.108 -154.3426,1.017 28.6425,-137.808 -78.156,125.741 -58.0893,-0.492 -10.7184,-11.807 -22.7916,-4.021 -19.5512,17.324 -24.9702,-84.1 37.8392,-26.234 44.1624,-6.025 68.197,-3.397 -25.6117,-43.989 126.758,-28.532 2.5617,-51.067 27.9029,-17.924 73.0738,41.865 26.2728,-0.84 65.3914,-2.09 35.1212,56.165 -9.3963,37.587 140.9481,28.19 0,0 z"
   id="_142580002"
   inkscape:label="#_Border2_Konezavod" />
<path
   style="fill:#ffffff;stroke:#000000;stroke-width:40;stroke-linejoin:bevel"
   d="m 13595.2,10195.7 75,-100.2 50,35.1 35,-25.1 -10,-35.1 -140,-15 -20,5 -110,60.1 55,65.2 30,-15 10,25 z"
   id="_142580003"
   inkscape:label="#_Border3_Vostochny" />
<path
   style="fill:#ffffff;stroke:#000000;stroke-width:40;stroke-linejoin:bevel"
   d="m 13639.939,10017.897 -4.739,-7.597 -45,10 4.08,8.913 z"
   id="_142580004"
   inkscape:label="#_Border4_Vostochny2" />
<path
   style="fill:#ffffff;stroke:#000000;stroke-width:40;stroke-linejoin:bevel"
   d="m 13235.1,8381.21 v 0 l 5,30.07 -10,20.06 -10,-5.02 -10,-5.01 -10,-20.05 z"
   id="_142580005"
   inkscape:label="#_Border5_Akulovo" />
<path
   style="fill:#ffffff;stroke:#000000;stroke-width:40;stroke-linejoin:bevel"
   d="m 13210.1,8436.35 10,5.01 -30,15.04 -5,-5.02 z"
   id="_142580006"
   inkscape:label="#_Border6_Akulovo2" />
<path
   style="fill:#ffffff;stroke:#000000;stroke-width:40;stroke-linejoin:bevel"
   d="m 10854.6,10501.5 50.1,25 35,-40.1 35,25.1 117.579,-164.585 8.434,-15.196 -106.013,-65.819 -10,10 -15,-10 -45.1,-5 10.1,-55.2 -155.373,-1.646 38.784,150.273 103.427,79.478 -16.838,42.595 z"
   id="_142580007"
   inkscape:label="#_Border7_Rublevo" />
<path
   style="fill:#ffffff;stroke:#000000;stroke-width:40;stroke-linejoin:bevel"
   d="m 10684.332,10211.583 -10.583,-68.024 60.391,-6.699 10.241,67.202 z"
   id="_142580008"
   inkscape:label="#_Border8_Rublevo2" />
<path
   style="fill:#ffffff;stroke:#000000;stroke-width:40;stroke-linejoin:bevel"
   d="m 8831.875,14310.625 25.3125,9.374 -14.6875,36.876 47.5,15.937 -30,65.313 -19.375,-7.813 -8.75,6.563 -5.3125,24.062 -21.875,17.5 -25.625,-26.25 13.4375,-24.062 12.1875,4.687 18.4375,-27.187 5.625,-50.938 -7.5,-10 z"
   id="_142580009"
   inkscape:label="#_Border9_Machihino" />
<rect
   style="opacity:1;fill:#ffffe0;fill-opacity:1;stroke:none;stroke-width:10.01574707;stroke-linecap:round;stroke-linejoin:round;stroke-miterlimit:4;stroke-dasharray:none;stroke-dashoffset:0;stroke-opacity:1;paint-order:stroke markers fill"
   id="rect4857"
   width="1500.6544"
   height="1500.6544"
   x="-6288.4565"
   y="10594.22" /><rect
   y="12094.874"
   x="-6288.4565"
   height="1500.6544"
   width="1500.6544"
   id="rect4859"
   style="opacity:1;fill:#ffe0e0;fill-opacity:1;stroke:none;stroke-width:10.01574707;stroke-linecap:round;stroke-linejoin:round;stroke-miterlimit:4;stroke-dasharray:none;stroke-dashoffset:0;stroke-opacity:1;paint-order:stroke markers fill" /><rect
   y="13595.528"
   x="-6288.4565"
   height="1500.6544"
   width="1500.6544"
   id="rect4861"
   style="opacity:1;fill:#e0ffe0;fill-opacity:1;stroke:none;stroke-width:10.01574707;stroke-linecap:round;stroke-linejoin:round;stroke-miterlimit:4;stroke-dasharray:none;stroke-dashoffset:0;stroke-opacity:1;paint-order:stroke markers fill" /><rect
   style="opacity:1;fill:#ffccaa;fill-opacity:1;stroke:none;stroke-width:10.01574707;stroke-linecap:round;stroke-linejoin:round;stroke-miterlimit:4;stroke-dasharray:none;stroke-dashoffset:0;stroke-opacity:1;paint-order:stroke markers fill"
   id="rect4863"
   width="1500.6544"
   height="1500.6544"
   x="-6288.4565"
   y="15096.183" /><rect
   y="16596.838"
   x="-6288.4565"
   height="1500.6544"
   width="1500.6544"
   id="rect4865"
   style="opacity:1;fill:#e0e0ff;fill-opacity:1;stroke:none;stroke-width:10.01574707;stroke-linecap:round;stroke-linejoin:round;stroke-miterlimit:4;stroke-dasharray:none;stroke-dashoffset:0;stroke-opacity:1;paint-order:stroke markers fill" /></svg>