<?xml version="1.0" encoding="UTF-8" standalone="no"?>
<svg
   xmlns:dc="http://purl.org/dc/elements/1.1/"
   xmlns:cc="http://creativecommons.org/ns#"
   xmlns:rdf="http://www.w3.org/1999/02/22-rdf-syntax-ns#"
   xmlns:svg="http://www.w3.org/2000/svg"
   xmlns="http://www.w3.org/2000/svg"
   xmlns:sodipodi="http://sodipodi.sourceforge.net/DTD/sodipodi-0.dtd"
   xmlns:inkscape="http://www.inkscape.org/namespaces/inkscape"
   xml:space="preserve"
   width="2522px"
   height="2385px"
   style="shape-rendering:geometricPrecision; text-rendering:geometricPrecision; image-rendering:optimizeQuality; fill-rule:evenodd; clip-rule:evenodd"
   viewBox="0 0 25220 23850"
   id="svg5756"
   version="1.1"
   inkscape:version="0.92.3 (2405546, 2018-03-11)"
   sodipodi:docname="03_4.Eastern-PRE_20191105_1138_1148.svg"><defs
   id="defs79"><inkscape:path-effect
     is_visible="true"
     id="path-effect3441"
     effect="spiro" /><inkscape:path-effect
     is_visible="true"
     id="path-effect4212"
     effect="spiro" /><inkscape:perspective
     id="perspective225"
     inkscape:persp3d-origin="1796.7756 : 1356.189 : 1"
     inkscape:vp_z="3593.5513 : 2034.2834 : 1"
     inkscape:vp_y="0 : 1000 : 0"
     inkscape:vp_x="0 : 2034.2834 : 1"
     sodipodi:type="inkscape:persp3d" /><style
     id="style6"
     type="text/css">
   
    .str0 {stroke:none}
    .str2 {stroke:#CCC0A3;stroke-width:2.10359;stroke-linecap:butt;stroke-linejoin:miter;stroke-opacity:1;fill-rule:evenodd}
    .str3 {stroke:#54473F;stroke-width:2.10317}
    .str4 {stroke:#5C4740;stroke-width:4.20634}
    .l2 {fill:none}
    .l0 {fill:#ffe9b2}
  </style></defs>
<metadata
   id="metadata5863">
   <rdf:RDF>
   <cc:Work
   rdf:about="">
   <dc:format>image/svg+xml</dc:format>
   <dc:type
   rdf:resource="http://purl.org/dc/dcmitype/StillImage" />
   <dc:title></dc:title>
   </cc:Work>
   </rdf:RDF>
   </metadata>
<sodipodi:namedview
   pagecolor="#ffffff"
   bordercolor="#666666"
   borderopacity="1"
   objecttolerance="10"
   gridtolerance="10"
   guidetolerance="10"
   inkscape:pageopacity="0"
   inkscape:pageshadow="2"
   inkscape:window-width="1531"
   inkscape:window-height="853"
   id="namedview5861"
   showgrid="false"
   inkscape:zoom="0.3535534"
   inkscape:cx="1870.6064"
   inkscape:cy="945.016"
   inkscape:window-x="72"
   inkscape:window-y="101"
   inkscape:window-maximized="0"
   inkscape:current-layer="layer5" />










































































<g
   inkscape:groupmode="layer"
   id="layer2"
   inkscape:label="Moscow"
   style="display:inline"><path
     d="m 12984.984,10219.89 46.182,-9.34 241.804,-6.746 v 78.353 l -29.577,-0.519 0.52,45.144 h 9.859 l -1.557,180.056 -79.91,29.058 c 0,0 -5.439,-8.765 -7.783,-10.897 -2.619,-2.38 -13.304,-4.291 -23.351,-1.556 -10.046,2.734 -19.424,13.928 -37.36,22.831 -17.936,8.903 -83.542,32.69 -83.542,32.69 l -23.35,-44.625 -4.67,-36.841 -12.454,-3.113 -9.859,-154.112 8.822,-61.23 z"
     id="path4215"
     inkscape:connector-curvature="0"
     style="clip-rule:evenodd;fill:#ccffb2;fill-opacity:1;fill-rule:evenodd;stroke:#ccc0a3;stroke-width:8.45777035;stroke-linecap:butt;stroke-linejoin:miter;stroke-opacity:1;image-rendering:optimizeQuality;shape-rendering:geometricPrecision;text-rendering:geometricPrecision" /><path
     d="m 13172.823,10656.798 16.087,49.814 -23.87,-3.632 -3.113,22.831 -8.302,-1.038 1.038,12.454 -8.303,-1.038 -0.519,9.859 -6.745,-1.557 -5.708,22.832 h -15.567 l 7.542,36.011 266.953,-97.241 -5.189,-18.68 10.896,-18.161 -34.765,-7.784 17.642,-62.786 -91.844,-25.944 -2.595,11.934 7.784,3.113 -3.632,16.605 -8.821,-4.151 -7.784,35.285 -29.508,-9.548 z"
     id="path4217"
     inkscape:connector-curvature="0"
     style="clip-rule:evenodd;fill:#ccffb2;fill-opacity:1;fill-rule:evenodd;stroke:#ccc0a3;stroke-width:8.45777035;stroke-linecap:butt;stroke-linejoin:miter;stroke-opacity:1;image-rendering:optimizeQuality;shape-rendering:geometricPrecision;text-rendering:geometricPrecision" /><path
     d="m 12849.101,10656.246 90.221,-37.327 c 0,0 59.733,-17.827 71.088,-23.35 11.355,-5.523 6.025,-2.491 7.783,-5.189 1.759,-2.698 2.076,-11.935 2.076,-11.935 0,0 57.842,-20.202 75.24,-28.539 17.398,-8.337 30.645,-20.776 41.511,-24.388 10.866,-3.612 28.02,-3.113 28.02,-3.113 l 6.227,14.01 81.467,-30.615 1.038,22.832 -8.822,26.463 4.151,12.973 11.417,-2.076 28.538,7.783 -2.594,12.973 8.302,3.113 -3.632,15.567 -9.34,-3.632 -8.302,34.766 -23.351,-5.708 -77.834,25.425 16.086,50.333 -22.832,-3.113 -5.708,22.312 -5.707,-0.519 -0.52,11.935 -7.264,0.519 -1.038,7.264 h -6.746 l -5.188,21.794 -16.086,0.519 9.34,31.133 -35.803,12.454 c 0,0 -15.202,-13.781 -26.187,-19.753 -10.985,-5.972 -34.662,-8.073 -45.182,-11.608 -10.519,-3.535 -10.8,-1.881 -22.313,-9.859 -11.511,-7.979 -36.006,-41.744 -51.236,-53.551 -15.23,-11.807 -37.546,-21.399 -49.575,-27.023 -12.029,-5.625 -19.055,-4.863 -24.437,-8.574 -5.382,-3.71 -13.94,-12.712 -18.551,-18.28 -3.743,-4.556 -4.257,-6.016 -4.257,-6.016 z"
     id="path4219"
     inkscape:connector-curvature="0"
     style="clip-rule:evenodd;fill:#ccffb2;fill-opacity:1;fill-rule:evenodd;stroke:#ccc0a3;stroke-width:8.45777035;stroke-linecap:butt;stroke-linejoin:miter;stroke-opacity:1;image-rendering:optimizeQuality;shape-rendering:geometricPrecision;text-rendering:geometricPrecision" /><path
     class="str3"
     d="m 13592.244,10851.617 c 14.481,32.434 12.346,46.674 17.956,65.883 26.389,-1.728 92.325,-3.854 136.822,-13.167 14.779,-4.049 24.722,-3.61 45.87,-10.793 l 28.782,-17.089 c 8.682,-5.157 2.341,-14.884 17.089,-32.38 h 17.989 l 4.497,-4.497 27.882,10.793 -1.799,25.184 7.196,-2.698 13.491,-19.787 17.988,15.29 -6.296,4.497 18.888,-1.799 17.089,21.586 13.492,31.48 -37.776,44.072 -42.273,-2.698 -9.894,11.692 c -3.291,42.679 -10.19,62.393 -52.166,71.055 -28.058,4.351 -9.482,1.059 -91.741,8.994 l -51.267,1.799 -25.184,26.982 7.195,4.498 -57.563,62.959 -62.96,-54.865 -24.285,-18.888 -87.244,-55.764 11.692,-29.681 5.398,-145.707 z"
     id="path4227"
     inkscape:connector-curvature="0"
     style="clip-rule:evenodd;fill:#ccffb2;fill-opacity:1;fill-rule:evenodd;stroke:#ccc0a3;stroke-width:8.45608139;stroke-linecap:butt;stroke-linejoin:miter;stroke-opacity:1;image-rendering:optimizeQuality;shape-rendering:geometricPrecision;text-rendering:geometricPrecision"
     sodipodi:nodetypes="cccccccccccccccccccccccccccccccc" /><path
     d="m 12975.748,10121.443 c -15.722,-14.804 -28.899,-32.762 -46.299,-45.488 -80.69,-50.951 -162.965,-99.3866 -244.971,-148.1317 -23.452,-10.1939 -46.904,-20.3879 -70.356,-30.5818 10.849,-2.8128 26.946,-4.5627 27.584,-18.5401 1.462,-16.0159 16.546,-23.926 26.106,-35.123 14.103,-14.1034 28.205,-28.2067 42.307,-42.3101 -8.244,-6.1833 -21.652,-11.545 -8.983,-21.0552 8.09,-8.7106 13.113,-16.699 -1.919,-19.9688 -11.192,-4.1802 -19.025,-9.0931 -6.709,-18.4023 5.571,-6.6698 19.205,2.4781 25.809,5.4095 6.778,8.7112 7.356,17.8246 5.561,24.2311 7.59,8.681 15.878,14.2587 5.735,21.4863 -2.828,7.3449 0.592,27.1544 10.47,19.4118 9.113,-9.0012 17.769,-1.5547 26.485,3.7479 18.281,3.7136 38.119,0.5192 56.212,6.6777 13.457,-15.9454 32.69,-30.0825 33.581,-52.7589 2.023,-18.3527 -4.112,-36.9666 -5.412,-55.4257 -1.258,-10.1255 0.177,-23.3594 -14.111,-18.4599 -28.71,0.2433 -57.419,0.4866 -86.128,0.7299 13.807,-12.1497 27.613,-24.2993 41.419,-36.449 -6.839,-10.1659 9.3,-15.4305 13.848,-23.1675 16.37,-16.5781 32.74,-33.1563 49.11,-49.7344 -14.515,-4.3321 -2.181,-17.1851 6.014,-4.1282 7.837,10.2397 17.28,3.6011 26.493,-0.6265 8.222,-4.8775 24.931,-5.305 17.731,-18.2683 -4.916,-10.9104 11.189,-14.3498 16.562,-21.6034 10.584,6.4598 21.044,18.5551 31.581,27.1781 61.207,55.2365 122.414,110.4729 183.62,165.7094 6.558,90.0697 13.117,180.1394 19.675,270.2091 13.061,-0.345 1.764,16.444 3.153,24.309 2.176,13.25 -8.86,15.416 -19.166,18.195 -19.297,6.182 -39.116,11.624 -54.8,25.139 -26.071,20.806 -51.837,42.043 -80.95,58.547 -8.876,5.595 -17.751,11.191 -26.627,16.786 -0.875,-9.181 -1.75,-18.362 -2.625,-27.544 z"
     id="polygon4375"
     inkscape:connector-curvature="0"
     style="clip-rule:evenodd;fill:#ccffb2;fill-opacity:1;fill-rule:evenodd;stroke:#ccc0a3;stroke-width:8.45777035;stroke-linecap:butt;stroke-linejoin:miter;stroke-opacity:1;image-rendering:optimizeQuality;shape-rendering:geometricPrecision;text-rendering:geometricPrecision" /><path
     d="m 13312.085,10137.561 c -53.755,3.519 -107.51,7.039 -161.265,10.558 -45.288,21.413 -90.28,43.722 -135.754,64.577 -11.064,2.152 -22.128,4.305 -33.192,6.457 -0.94,-23.531 -1.88,-47.061 -2.82,-70.592 29.486,-19.001 60.349,-36.054 86.939,-59.151 18.209,-14.321 36.176,-30.552 59.394,-35.774 10.896,-3.632 21.793,-7.265 32.69,-10.897 1.748,-11.805 3.497,-23.609 5.245,-35.414 -11.281,0.698 -5.699,-13.4801 -7.973,-20.7285 -5.905,-83.4087 -12.489,-166.953 -17.97,-250.2769 81.592,74.8721 163.184,149.744 244.776,224.616 8.498,-0.1504 19.082,-2.665 16.568,9.6579 0.566,11.9097 14.963,17.0242 18.298,28.1979 7.39,13.4916 14.597,27.0516 16.893,42.4646 4.014,15.993 7.055,32.213 10.637,48.306 3.182,3.6 23.269,9.564 14.046,11.429 -48.837,12.19 -97.675,24.38 -146.512,36.57 z"
     id="polygon4377"
     inkscape:connector-curvature="0"
     style="clip-rule:evenodd;fill:#ccffb2;fill-opacity:1;fill-rule:evenodd;stroke:#ccc0a3;stroke-width:8.45777035;stroke-linecap:butt;stroke-linejoin:miter;stroke-opacity:1;image-rendering:optimizeQuality;shape-rendering:geometricPrecision;text-rendering:geometricPrecision" /><path
     d="m 13461.477,10100.272 c -5.214,8.601 -12.827,16.551 -16.542,25.56 1.621,22.331 3.241,44.661 4.861,66.992 -7.427,5.126 -13.05,15.416 -23.319,12.403 -38.546,-2.001 -77.102,-2.006 -115.665,-0.446 -97.912,2.448 -195.824,4.895 -293.736,7.343 44.582,-21.335 89.163,-42.67 133.744,-64.005 54.639,-3.911 109.483,-6.5 163.992,-11.239 48.888,-12.203 97.777,-24.405 146.665,-36.608 z"
     id="polygon4379"
     inkscape:connector-curvature="0"
     style="clip-rule:evenodd;fill:#ccffb2;fill-opacity:1;fill-rule:evenodd;stroke:#ccc0a3;stroke-width:8.45777035;stroke-linecap:butt;stroke-linejoin:miter;stroke-opacity:1;image-rendering:optimizeQuality;shape-rendering:geometricPrecision;text-rendering:geometricPrecision" /><path
     d="m 13592.244,10851.617 c -48.162,0 -103.161,-0.801 -137.08,-0.801 l 10.175,-165.357 8.904,25.439 17.808,11.448 82.678,-10.176 c 3.695,-3.351 52.903,-25.499 108.898,-24.211 -0.915,29.114 12.899,55.366 16.573,84.141 l -108.75,29.954 z"
     id="path4381"
     inkscape:connector-curvature="0"
     style="clip-rule:evenodd;fill:#ccffb2;fill-opacity:1;fill-rule:evenodd;stroke:#ccc0a3;stroke-width:8.45777035;stroke-linecap:butt;stroke-linejoin:miter;stroke-opacity:1;image-rendering:optimizeQuality;shape-rendering:geometricPrecision;text-rendering:geometricPrecision"
     sodipodi:nodetypes="cccccccccc" /><path
     d="m 13445.706,10996.434 c -3.478,9.969 -6.956,19.939 -10.435,29.909 -97.614,-57.09 -195.53,-113.758 -292.955,-171.111 -16.647,-14.454 -33.294,-28.908 -49.94,-43.361 124.231,-44.023 248.462,-88.045 372.693,-132.068 -5.773,99.031 -10.878,198.12 -17.07,297.115 -0.764,6.505 -1.529,13.01 -2.293,19.516 z"
     id="polygon4383"
     inkscape:connector-curvature="0"
     style="clip-rule:evenodd;fill:#ccffb2;fill-opacity:1;fill-rule:evenodd;stroke:#ccc0a3;stroke-width:8.45777035;stroke-linecap:butt;stroke-linejoin:miter;stroke-opacity:1;image-rendering:optimizeQuality;shape-rendering:geometricPrecision;text-rendering:geometricPrecision" /><path
     id="path4385"
     d="m 12979.293,10154.595 h -65.149 l -15.378,-8.459 -20.761,25.375 -67.667,24.606 -7.689,-9.227 -6.921,12.303 -46.904,23.068 16.147,-41.523 -13.84,-35.37 -20.761,-9.227 -8.459,5.382 -41.521,-43.829 8.458,-11.534 -0.769,-3.076 -7.689,2.307 -42.292,-21.53 -32.378,-46.227 5.056,-48.1771 -6.865,-75.4187 10.113,3.3238 0.237,-0.06 71.735,31.1822 169.074,101.1368 80.014,49.845 40.663,41.974 c 1.117,11.73 3.13,22.807 3.544,33.154 v 0 z"
     inkscape:connector-curvature="0"
     style="clip-rule:evenodd;fill:#ccffb2;fill-opacity:1;fill-rule:evenodd;stroke:#ccc0a3;stroke-width:8.45777035;stroke-linecap:butt;stroke-linejoin:miter;stroke-opacity:1;image-rendering:optimizeQuality;shape-rendering:geometricPrecision;text-rendering:geometricPrecision" /><path
     d="m 12782.659,10396.81 c -10.509,-1.281 -21.018,-2.562 -31.526,-3.843 -0.258,-18.968 -0.513,-37.936 -0.769,-56.904 10.253,-12.559 20.505,-25.117 30.758,-37.676 -11.023,-21.53 -22.045,-43.06 -33.068,-64.59 1.029,-3.857 -0.96,-9.738 2.034,-12.278 15.214,-7.441 30.428,-14.882 45.642,-22.323 2.307,-4.102 4.614,-8.204 6.922,-12.306 3.118,2.504 5.205,8.826 9.023,8.741 22.109,-8.039 44.219,-16.079 66.328,-24.118 6.92,-8.458 13.841,-16.916 20.761,-25.373 5.657,2.604 10.856,6.988 16.804,8.455 21.242,0 42.483,0 63.725,0 0.86,21.519 1.72,43.039 2.581,64.558 3.364,0.156 0.124,7.931 0.898,11.075 -0.797,15.639 -1.1,31.329 -4.181,46.736 -0.976,6.384 -1.951,12.769 -2.926,19.153 -5.166,-3.662 -9.905,-8.684 -15.326,-11.529 -12.066,0.755 -24.132,1.51 -36.198,2.266 -8.191,11.625 -15.466,23.98 -24.237,35.146 -6.274,6.738 -12.548,13.477 -18.822,20.216 -10.966,1.064 -22.072,3.106 -32.949,3.563 -2.859,-0.229 -10.609,-6.731 -9.775,-2.225 0.913,5.706 1.825,11.412 2.738,17.118 -16.917,3.074 -33.834,6.149 -50.75,9.223 -2.563,8.972 -5.125,17.943 -7.687,26.915 z"
     id="polygon4387"
     inkscape:connector-curvature="0"
     style="clip-rule:evenodd;fill:#ccffb2;fill-opacity:1;fill-rule:evenodd;stroke:#ccc0a3;stroke-width:8.45777035;stroke-linecap:butt;stroke-linejoin:miter;stroke-opacity:1;image-rendering:optimizeQuality;shape-rendering:geometricPrecision;text-rendering:geometricPrecision" /><path
     id="path4389"
     d="m 12751.121,10392.114 -56.89,-2.994 -145.327,-47.673 -39.258,-14.814 v -89.625 l 89.468,-196.331 6.627,-23.195 32.358,46.381 42.291,21.53 7.689,-2.307 0.77,3.076 -8.459,11.534 41.523,43.829 8.458,-5.382 20.761,9.227 13.841,35.371 -16.087,41.366 -0.08,0.04 -0.753,11.653 33.064,64.59 -30.757,37.677 0.758,56.051 z m 52.121,-204.512 v 0 l -0.592,-0.71 z"
     inkscape:connector-curvature="0"
     style="clip-rule:evenodd;fill:#ccffb2;fill-opacity:1;fill-rule:evenodd;stroke:#ccc0a3;stroke-width:8.45777035;stroke-linecap:butt;stroke-linejoin:miter;stroke-opacity:1;image-rendering:optimizeQuality;shape-rendering:geometricPrecision;text-rendering:geometricPrecision" /><path
     id="path4391"
     d="m 12782.794,10396.328 23.116,23.838 52.003,113.947 -2.295,17.589 c 0,0 -15.323,50.395 -15.295,66.532 0.04,16.138 2.928,27.593 8.945,38.285 19.224,-7.654 87.267,-35.169 87.267,-35.169 l 72.291,-24.564 c 0,0 5.569,-1.191 7.696,-4.032 2.127,-2.842 2.928,-14.686 2.928,-14.686 l -22.399,-46.589 -3.91,-32.618 -12.965,-3.669 -11.001,-156.592 7.93,-57.284 -16.057,3.228 c -12.302,0.769 -31.278,-10.732 -36.908,2.307 l -22.299,33.064 -22.962,18.63 -24.957,3.845 -16.269,-4.981 2.709,15.187 -10.196,2.575 -3.592,-8.432 -14.966,1.475 1.545,10.28 -40.65,5.144 -7.628,6.611 -20.837,-9.533 0.811,30.461 37.946,5.151 z"
     inkscape:connector-curvature="0"
     style="clip-rule:evenodd;fill:#ccffb2;fill-opacity:1;fill-rule:evenodd;stroke:#ccc0a3;stroke-width:8.45777035;stroke-linecap:butt;stroke-linejoin:miter;stroke-opacity:1;image-rendering:optimizeQuality;shape-rendering:geometricPrecision;text-rendering:geometricPrecision" /><path
     d="m 13364.815,10660.95 33.208,7.264 -10.896,17.124 5.189,20.755 74.202,-26.982 2.595,-194.067 v -32.69 l 13.536,-23.724 -19.245,-11.561 -6.226,-101.703 -11.935,2.076 -25.945,23.35 -25.944,-28.02 -25.945,-1.557 v 7.783 l -22.312,0.519 -2.595,4.67 -6.745,0.519 -0.519,-5.189 -83.023,4.151 0.519,183.689 1.556,22.312 -9.859,24.388 4.67,15.048 10.897,-4.151 28.539,8.302 92.363,25.945 z"
     id="path4457"
     inkscape:connector-curvature="0"
     style="clip-rule:evenodd;fill:#ccffb2;fill-opacity:1;fill-rule:evenodd;stroke:#ccc0a3;stroke-width:8.45777035;stroke-linecap:butt;stroke-linejoin:miter;stroke-opacity:1;image-rendering:optimizeQuality;shape-rendering:geometricPrecision;text-rendering:geometricPrecision" /><path
     d="m 13251.696,10324.706 81.466,-6.227 2.595,6.227 7.783,-0.519 1.557,-5.189 h 22.312 l -1.038,-8.821 26.983,2.076 25.944,26.982 25.945,-22.312 10.897,-1.557 -7.783,-121.421 -10.378,9.34 -166.565,1.557 2.594,77.834 -30.095,0.519 -0.52,41.511 z"
     id="path4459"
     inkscape:connector-curvature="0"
     style="clip-rule:evenodd;fill:#ccffb2;fill-opacity:1;fill-rule:evenodd;stroke:#ccc0a3;stroke-width:8.45777035;stroke-linecap:butt;stroke-linejoin:miter;stroke-opacity:1;image-rendering:optimizeQuality;shape-rendering:geometricPrecision;text-rendering:geometricPrecision" /><path
     inkscape:connector-curvature="0"
     id="polygon4393"
     d="m 13234.088,8383.2388 -2.536,1.3051 -15.289,2.1255 2.163,2.6103 -11.709,6.8239 1.193,1.9018 -8.39,4.9967 -1.379,1.7899 9.471,14.9903 0.261,0.2983 -0.186,-0.037 18.309,6.8613 2.498,-5.7426 10.292,-6.6002 -8.017,-14.058 5.295,-4.4001 -4.027,-7.1223 4.101,-2.4611 z m -27.669,51.5337 -14.021,8.5393 2.163,3.9153 2.61,-1.6034 3.132,-1.9763 2.312,3.3933 9.845,-5.8917 -3.021,-5.0341 -2.274,-0.7085 -0.671,-0.6339 h -0.04 z m 419.355,1576.2905 -4.065,0.522 -2.349,0.671 -4.55,0.07 -7.159,3.691 -3.505,2.35 -6.451,3.132 -2.126,0.82 -10.739,3.468 2.909,10.292 0.745,-0.186 0.821,-0.262 1.044,3.207 3.132,-0.969 -1.529,-4.699 20.285,-8.8 9.285,-5.556 5.296,-4.251 z m -17.489,24.424 -9.695,3.207 -1.828,0.634 -1.939,0.634 -4.959,1.64 1.156,3.506 -1.865,0.783 0.261,0.373 -0.82,0.186 v -0.186 -0.07 l -9.77,3.99 v 0.261 l 0.261,0.484 -1.417,0.373 -18.309,7.048 0.299,0.708 -11.411,5.221 -0.261,-0.07 -0.485,-0.149 -2.274,-0.895 -1.343,-4.363 -8.054,3.58 -0.448,0.07 0.709,1.677 1.902,4.587 0.261,0.373 v 0.261 0.04 l -4.177,3.99 0.299,3.766 -22.001,10.628 -35.872,26.922 -0.411,2.611 21.255,25.804 -4.623,9.248 6.861,7.607 1.156,-1.007 1.081,1.081 3.021,-2.536 4.4,-1.118 19.129,20.844 0.559,-0.522 1.268,5.333 10.665,-6.6 9.546,-6.004 1.231,-0.746 -3.207,-7.756 v -0.07 l 1.193,-1.305 7.085,-1.044 5.668,12.156 2.163,-1.007 12.491,28.34 4.214,-0.04 22.821,-18.868 -5.631,-12.604 17.116,-8.427 0.261,-17.638 16.184,-6.116 6.525,-0.447 4.065,-8.838 3.281,-7.42 -1.267,-2.387 2.162,-5.929 5.034,-1.044 v -2.312 l 3.99,-3.84 1.119,-1.79 1.268,-2.238 9.919,-10.59 5.966,-0.04 4.065,4.326 3.654,-3.244 5.146,5.183 1.268,2.349 3.654,1.715 2.088,2.685 10.553,1.081 3.17,1.902 5.034,5.295 6.563,2.573 5.257,1.454 2.946,0.262 3.17,0.708 2.871,-0.07 3.617,-1.193 7.421,-7.16 2.312,-4.847 -0.784,-8.801 -0.969,-4.885 -3.281,-6.6 -3.133,-3.393 -5.369,-3.58 -24.388,-7.346 v -0.857 l -10.888,-2.685 -2.312,-0.56 -4.885,-1.23 -2.312,-5.146 -1.79,-3.878 -13.983,1.156 -4.139,5.668 -0.261,-0.448 -1.38,-2.908 -9.322,4.437 -7.868,3.095 -4.251,-0.634 -3.17,-2.647 -3.244,-6.675 -0.969,0.149 -8.763,1.678 -10.218,3.17 -2.685,0.82 -0.261,0.07 -0.932,-2.648 z"
     style="clip-rule:evenodd;fill:#ccffb2;fill-opacity:1;fill-rule:evenodd;stroke:#ccc0a3;stroke-width:8.4577713;stroke-linecap:butt;stroke-linejoin:miter;stroke-opacity:1;image-rendering:optimizeQuality;shape-rendering:geometricPrecision;text-rendering:geometricPrecision" /></g><g
   id="layer5"
   inkscape:label="Oblast"
   style="display:inline;opacity:0.98999999"
   inkscape:groupmode="layer"><path
     style="clip-rule:evenodd;fill:#ffe0e0;fill-rule:evenodd;stroke:#878787;stroke-width:30;stroke-linejoin:bevel;image-rendering:optimizeQuality;shape-rendering:geometricPrecision;text-rendering:geometricPrecision"
     d="m 13675.2,10501.5 10,35.1 -40,15 20,55.1 25,10.1 -5,65.1 -215,50.1 v -25 -270.7 l 120,-45.1 -5,75.2 z"
     id="_186816128"
     inkscape:label="#_Reutov"
     inkscape:connector-curvature="0" /><path
     style="clip-rule:evenodd;fill:#ffe0e0;fill-rule:evenodd;stroke:#878787;stroke-width:30;stroke-linejoin:bevel;image-rendering:optimizeQuality;shape-rendering:geometricPrecision;text-rendering:geometricPrecision"
     d="m 13550.2,11348.6 145,120.3 55,140.3 v 85.2 l -150,-10 -130,-25 -10,-60.2 -45,-30.1 40,-40.1 -10,-160.4 -35,-130.3 z"
     id="_186720768"
     inkscape:label="#_Kotelniki"
     inkscape:connector-curvature="0" /><path
     style="clip-rule:evenodd;fill:#e0ffe0;fill-rule:evenodd;stroke:#878787;stroke-width:30;stroke-linejoin:bevel;image-rendering:optimizeQuality;shape-rendering:geometricPrecision;text-rendering:geometricPrecision"
     d="m 14045.3,12897.4 -100,-175.4 -45,50.1 -30,-205.5 65,-160.4 145,45.1 -10,-120.3 55,-35.1 115,5.1 -30,-100.3 -50,-10 v -120.3 l -75,-70.2 115,-75.2 15,-80.2 -80,15.1 -120,-80.3 45,-80.1 185,120.2 140.1,-25 -10,-105.3 105,-75.2 -20,-90.2 65,10 65,-100.2 50,5 40,-110.3 -110,-105.2 10,-70.2 75,-10 v -25.1 l 145.1,-80.2 75,70.2 145,-15.1 250.1,85.3 -5,170.4 90,-10 145,-85.3 135,20.1 v 75.2 h 190.1 l 55,-65.2 305,-70.1 90.1,-75.2 95,115.2 220,60.2 60,75.2 10,60.1 400.1,150.4 60,335.8 135.1,-60.1 85,-15 50,60.1 -230.1,100.3 310.1,260.6 -25,115.3 -100,-75.2 -30,40.1 -540.1,5 -255.1,175.4 -90,436.1 -280.1,-60.1 -10,225.5 -95,145.4 250.1,110.3 -15,165.4 125,95.2 10,195.5 350.1,-75.2 40,185.5 -110.1,15 -135,235.6 270.1,220.6 -15,180.4 -135.1,135.3 5,275.7 -250,150.4 -140,-15 -60,-225.6 -230.1,-25.1 -295.1,150.4 -75,-55.1 10,-180.5 -190,55.2 -50,-50.2 -250.1,60.2 -235,-30.1 -125,65.2 -25,-135.4 65,-115.3 -90.1,-10 15,-105.2 -125,-60.2 -45,115.3 -195,40.1 15,-90.2 -105,-25.1 -105.1,-125.3 55,-55.1 40.1,50.1 50,-100.3 80,20.1 105,-140.4 -60,-145.3 -135,-120.3 -65.1,55.1 -110,-305.7 -80,-50.2 -45,60.2 -160,-135.4 185,-115.2 -110,-360.9 -155.1,55.1 -110,-270.7 65,30.1 50,60.2 90.1,-85.3 70,110.3 z"
     id="_186722168"
     inkscape:label="#_Ramensky"
     inkscape:connector-curvature="0" /><path
     style="clip-rule:evenodd;fill:#ffe0e0;fill-rule:evenodd;stroke:#878787;stroke-width:30;stroke-linejoin:bevel;image-rendering:optimizeQuality;shape-rendering:geometricPrecision;text-rendering:geometricPrecision"
     d="m 15645.6,13754.6 -40,65.1 -290,-60.1 -115.1,-295.8 75.1,-30 90,155.3 130,-200.4 295.1,235.5 -135.1,40.1 85.1,125.4 z"
     id="_186723144"
     inkscape:label="#_Bronnitsy"
     inkscape:connector-curvature="0" /><path
     style="clip-rule:evenodd;fill:#ffffe0;fill-rule:evenodd;stroke:#878787;stroke-width:30;stroke-linejoin:bevel;image-rendering:optimizeQuality;shape-rendering:geometricPrecision;text-rendering:geometricPrecision"
     d="m 13265.1,9584.2 90.1,75.19 85,-5.02 330,-120.29 35.1,30.07 135,115.29 155,5 10,80.21 -25,25.06 85,65.17 125.1,-80.21 190,150.38 75,135.35 50,245.6 -75,150.4 270.1,75.2 5,80.2 175,95.2 -45,75.2 -160.1,-75.2 -80,45.1 20,55.1 55.1,-10 85,195.5 185,20 -20,80.2 -145,15.1 -75,-70.2 -145.1,80.2 v 25.1 l -75,10 -220,-75.2 -30,-60.1 -135.1,80.2 -55,-100.3 -110,-70.2 -35,5.1 -150,-80.2 -35.1,50.1 -200,15 -20,-95.2 -5,-25.1 100,-25.1 h 15 l -15,-90.2 5,-65.1 -25,-10.1 -20,-55.1 40,-15 -10,-35.1 -90,-35.1 5,-75.2 -120,45.1 -7.647,-178.895 -32.353,-252.205 -300.1,-275.64 v -135.33 z"
     id="_186951328"
     inkscape:label="#_Balashikha"
     inkscape:connector-curvature="0" /><path
     style="clip-rule:evenodd;fill:#e0e0ff;fill-rule:evenodd;stroke:#878787;stroke-width:30;stroke-linejoin:bevel;image-rendering:optimizeQuality;shape-rendering:geometricPrecision;text-rendering:geometricPrecision"
     d="m 13555.2,11213.3 -5,-5.1 30,-25 -65,-65.2 25,-20 75,65.1 80,-90.2 35,-5 47.095,-0.942 20.417,51.1 31.158,-10.51 19.093,58.937 40.545,-22.728 -70.435,104.783 17.156,47.561 5.623,45.818 220.06,42.222 -1.489,-169.69 -83.105,-47.819 83.332,-27.122 -81.118,-72.378 111.2,9.404 -20.342,-35.826 33.301,-18.896 -54.901,0.47 -8.269,-37.02 -55.004,-5.196 10.783,-47.468 35,-5.1 110,70.2 55,100.3 135.1,-80.2 30,60.1 220,75.2 -10,70.2 110,105.2 -40,110.3 -50,-5 -65,100.2 -65,-10 20,90.2 -105,75.2 10,105.3 -140.1,25 -185,-120.2 -45,80.1 120,80.3 80,-15.1 -15,80.2 -115,75.2 75,70.2 v 120.3 l 50,10 30,100.3 -115,-5.1 -80,-50.1 -110,35.1 -40,-45.1 -100.1,-300.8 -175,50.2 50,-135.4 -75,-110.2 25,-35.1 -20,-20.1 150,10 v -85.2 l -55,-140.3 -145,-120.3 25,-120.3 z"
     id="_186992352"
     inkscape:label="#_Lubertsy"
     inkscape:connector-curvature="0" /></g><g
   style="display:none"
   inkscape:label="Moscow copy"
   id="g6239"
   inkscape:groupmode="layer"
   sodipodi:insensitive="true" /></svg>