<?xml version="1.0" encoding="UTF-8" standalone="no"?>
<!-- Created with Inkscape (http://www.inkscape.org/) -->

<svg
   xmlns:dc="http://purl.org/dc/elements/1.1/"
   xmlns:cc="http://creativecommons.org/ns#"
   xmlns:rdf="http://www.w3.org/1999/02/22-rdf-syntax-ns#"
   xmlns:svg="http://www.w3.org/2000/svg"
   xmlns="http://www.w3.org/2000/svg"
   xmlns:sodipodi="http://sodipodi.sourceforge.net/DTD/sodipodi-0.dtd"
   xmlns:inkscape="http://www.inkscape.org/namespaces/inkscape"
   width="297mm"
   height="210mm"
   viewBox="0 0 297 210"
   version="1.1"
   id="svg8"
   sodipodi:docname="03_6.MOTitle-2019_20191106_0805_01.svg"
   inkscape:version="0.92.3 (2405546, 2018-03-11)">
  <defs
     id="defs2">
    <path
       style="color:#000000;font-style:normal;font-variant:normal;font-weight:normal;font-stretch:normal;font-size:medium;line-height:normal;font-family:sans-serif;font-variant-ligatures:normal;font-variant-position:normal;font-variant-caps:normal;font-variant-numeric:normal;font-variant-alternates:normal;font-feature-settings:normal;text-indent:0;text-align:start;text-decoration:none;text-decoration-line:none;text-decoration-style:solid;text-decoration-color:#000000;letter-spacing:normal;word-spacing:normal;text-transform:none;writing-mode:lr-tb;direction:ltr;text-orientation:mixed;dominant-baseline:auto;baseline-shift:baseline;text-anchor:start;white-space:normal;shape-padding:0;clip-rule:nonzero;display:inline;overflow:visible;visibility:visible;opacity:1;isolation:auto;mix-blend-mode:normal;color-interpolation:sRGB;color-interpolation-filters:linearRGB;solid-color:#000000;solid-opacity:1;vector-effect:none;fill:none;fill-opacity:1;fill-rule:nonzero;stroke:none;stroke-width:0.26458332px;stroke-linecap:butt;stroke-linejoin:miter;stroke-miterlimit:4;stroke-dasharray:none;stroke-dashoffset:0;stroke-opacity:1;color-rendering:auto;image-rendering:auto;shape-rendering:auto;text-rendering:auto;enable-background:accumulate"
       d="M -140.705,60.008628 C -254.03656,134.69065 -18.922756,287.37149 -34.293757,88.761611 -117.74356,80.78658 -218.32238,140.94149 -140.705,60.008628 Z"
       id="path5253"
       inkscape:connector-curvature="0"
       sodipodi:nodetypes="ccc" />
    <path
       d="M0 210h210V0H0z"
       id="a" />
    <path
       d="M0 210h210V0H0z"
       id="a-3" />
  </defs>
  <sodipodi:namedview
     id="base"
     pagecolor="#ffffff"
     bordercolor="#666666"
     borderopacity="1.0"
     inkscape:pageopacity="0.0"
     inkscape:pageshadow="2"
     inkscape:zoom="0.7"
     inkscape:cx="536.92289"
     inkscape:cy="400.0246"
     inkscape:document-units="mm"
     inkscape:current-layer="layer3"
     showgrid="false"
     showguides="true"
     inkscape:guide-bbox="true"
     inkscape:window-width="1885"
     inkscape:window-height="881"
     inkscape:window-x="70"
     inkscape:window-y="52"
     inkscape:window-maximized="0">
    <sodipodi:guide
       position="149.67094,185.75232"
       orientation="1,0"
       id="guide5156"
       inkscape:locked="false" />
  </sodipodi:namedview>
  <metadata
     id="metadata5">
    <rdf:RDF>
      <cc:Work
         rdf:about="">
        <dc:format>image/svg+xml</dc:format>
        <dc:type
           rdf:resource="http://purl.org/dc/dcmitype/StillImage" />
        <dc:title></dc:title>
      </cc:Work>
    </rdf:RDF>
  </metadata>
  <g
     inkscape:groupmode="layer"
     id="layer2"
     inkscape:label="1">
    <rect
       style="display:inline;opacity:1;fill:#ffffff;fill-opacity:1;stroke:none;stroke-width:0.29973197;stroke-linecap:round;stroke-linejoin:round;stroke-miterlimit:4;stroke-dasharray:none;stroke-dashoffset:0;stroke-opacity:1;paint-order:stroke markers fill"
       id="rect27465"
       width="296.97067"
       height="209.65532"
       x="0.21050274"
       y="0.33830687" />
  </g>
  <g
     inkscape:groupmode="layer"
     id="layer3"
     inkscape:label="Background"
     style="display:inline">
    <rect
       ry="0"
       y="14.621638"
       x="10.814223"
       height="180.55551"
       width="277.67429"
       id="rect12525"
       style="display:inline;opacity:1;fill:none;fill-opacity:1;stroke:#d0021b;stroke-width:2.99373913;stroke-linecap:square;stroke-linejoin:miter;stroke-miterlimit:4;stroke-dasharray:none;stroke-dashoffset:0;stroke-opacity:1;paint-order:stroke markers fill" />
    <text
       xml:space="preserve"
       style="font-style:normal;font-weight:normal;font-size:4.20815277px;line-height:1.25;font-family:sans-serif;letter-spacing:0.2288183px;word-spacing:0px;display:inline;fill:#000000;fill-opacity:1;stroke:none;stroke-width:0.11271837"
       x="209.25827"
       y="217.99686"
       id="text6448"><tspan
         sodipodi:role="line"
         id="tspan6446"
         x="209.25827"
         y="217.99686"
         style="stroke-width:0.11271837">Знак общественного достояния</tspan></text>
    <g
       transform="translate(-2.4041306,-1.8105711)"
       style="display:inline"
       id="g6455">
      <text
         xml:space="preserve"
         style="font-style:normal;font-weight:normal;font-size:2.08831406px;line-height:1.25;font-family:sans-serif;letter-spacing:0.11355207px;word-spacing:0px;display:inline;fill:#93a7ac;fill-opacity:1;stroke:none;stroke-width:0.05593698"
         x="227.41258"
         y="201.76669"
         id="text6438"><tspan
           id="tspan6436"
           sodipodi:role="line"
           x="227.41258"
           y="201.76669"
           style="font-size:2.04611111px;fill:#93a7ac;stroke-width:0.05593698">2019 Дизайн и оформление:  Владимир Павлычев</tspan></text>
      <path
         style="fill:#93a7ac;stroke-width:0.02983596"
         d="m 225.38938,200.06837 c -0.52728,0 -0.95475,0.42747 -0.95475,0.95475 0,0.52722 0.42747,0.95475 0.95475,0.95475 0.52728,0 0.95475,-0.42753 0.95475,-0.95475 0,-0.52729 -0.42747,-0.95475 -0.95475,-0.95475 z m 0,1.73047 c -0.42776,0 -0.77576,-0.34801 -0.77576,-0.77572 0,-0.0895 0.0155,-0.17553 0.0435,-0.25556 l 0.3034,0.1351 c -0.008,0.0406 -0.0126,0.0829 -0.0126,0.12669 0,0.38116 0.28449,0.48855 0.46349,0.48855 0.10555,0 0.1969,-0.0341 0.26842,-0.0841 0.0136,-0.01 0.0259,-0.0195 0.0372,-0.0296 l -0.13919,-0.16912 c -0.004,0.005 -0.008,0.009 -0.0127,0.0131 -0.0541,0.0513 -0.11364,0.0513 -0.12693,0.0513 -0.14564,0 -0.20659,-0.15365 -0.20741,-0.27674 l 0.83619,0.37229 c 0.001,2.3e-4 0.002,2.3e-4 0.003,3.4e-4 -0.13194,0.24022 -0.38738,0.40333 -0.68022,0.40333 z m 0.74755,-0.57751 -0.86244,-0.38494 c 0.0311,-0.0563 0.0807,-0.0987 0.15476,-0.0987 0.043,0 0.077,0.0142 0.10387,0.0322 0.0111,0.008 0.0208,0.0161 0.029,0.0242 l 0.15546,-0.16001 c -0.10441,-0.0898 -0.22313,-0.10581 -0.30077,-0.10581 -0.18243,0 -0.31153,0.0789 -0.38762,0.19863 l -0.28841,-0.12863 c 0.13881,-0.21117 0.37765,-0.35094 0.64861,-0.35094 0.42776,0 0.77579,0.34797 0.77579,0.77579 0,0.0692 -0.009,0.13626 -0.0264,0.2002 -6.6e-4,-6.6e-4 -0.001,-0.001 -0.002,-0.002 z"
         id="path3"
         inkscape:connector-curvature="0" />
    </g>
    <rect
       ry="0"
       y="-44.040874"
       x="10.435214"
       height="13.898014"
       width="280.633"
       id="rect6243"
       style="display:inline;opacity:1;fill:#ff5555;fill-opacity:1;stroke:none;stroke-width:4.63452721;stroke-linecap:square;stroke-linejoin:miter;stroke-miterlimit:4;stroke-dasharray:none;stroke-dashoffset:0;stroke-opacity:0.15151517;paint-order:stroke markers fill" />
    <text
       id="text6247"
       y="-33.884624"
       x="67.594803"
       style="font-style:normal;font-weight:normal;font-size:9.8777771px;line-height:1.25;font-family:sans-serif;letter-spacing:0.53710413px;word-spacing:0px;display:inline;fill:#000000;fill-opacity:1;stroke:none;stroke-width:0.26458332"
       xml:space="preserve"><tspan
         style="fill:#ffffff;stroke-width:0.26458332"
         y="-33.884624"
         x="67.594803"
         id="tspan6245"
         sodipodi:role="line">МОСКОВСКОЕ ОБЪЕДИНЕНИЕ</tspan></text>
    <text
       xml:space="preserve"
       style="font-style:normal;font-weight:normal;font-size:11.34914875px;line-height:1.25;font-family:sans-serif;letter-spacing:0.61711001px;word-spacing:0px;display:inline;fill:#d0021b;fill-opacity:1;stroke:none;stroke-width:0.30399507"
       x="149.81715"
       y="124.06604"
       id="text6259"><tspan
         sodipodi:role="line"
         id="tspan6257"
         x="152.40706"
         y="124.06604"
         style="font-style:normal;font-variant:normal;font-weight:bold;font-stretch:normal;font-family:sans-serif;-inkscape-font-specification:'sans-serif Bold';text-align:center;text-anchor:middle;fill:#d0021b;fill-opacity:1;stroke-width:0.30399507">МОСКОВСКОЕ </tspan><tspan
         sodipodi:role="line"
         x="150.1257"
         y="138.25247"
         style="font-style:normal;font-variant:normal;font-weight:bold;font-stretch:normal;font-family:sans-serif;-inkscape-font-specification:'sans-serif Bold';text-align:center;text-anchor:middle;fill:#d0021b;fill-opacity:1;stroke-width:0.30399507"
         id="tspan5338">ОБЪЕДИНЕНИЕ</tspan></text>
    <g
       id="g5336"
       transform="translate(12.84928,23.319266)">
      <circle
         r="18.7918"
         cy="62.449303"
         cx="136.67384"
         id="path5329"
         style="opacity:1;fill:#d0021b;fill-opacity:1;fill-rule:evenodd;stroke:#d0021b;stroke-width:3.0523622;stroke-linecap:round;stroke-linejoin:round;stroke-miterlimit:4;stroke-dasharray:none;stroke-dashoffset:0;stroke-opacity:1;paint-order:markers stroke fill" />
      <g
         transform="matrix(0.19006117,0,0,0.19006117,116.50355,39.256566)"
         style="fill:none;fill-rule:evenodd"
         id="g6272">
        <path
           style="fill:#ffffff"
           inkscape:connector-curvature="0"
           d="m 106.924,171.313 c 0,0.54 0.62,0.543 0.731,0 0.824,-3.998 2.075,-6.663 4.03,-9.25 l -4.397,0.003 c -0.201,0 -0.364,0.162 -0.364,0.363 z m 31.611,-55.503 c 0.05,5.78 -1.61,10.747 -12.15,21.297 l -8.336,8.338 c -3.794,3.797 -7.205,7.264 -9.222,10.73 h 8.233 l 0.974,-0.975 11.96,-11.984 c 9.96,-9.97 11.349,-20.516 9.223,-27.395 -0.181,-0.584 -0.687,-0.623 -0.682,-0.01 z m -10.496,35.265 -9.99,10.008 c -6.047,6.053 -11.125,11.269 -11.125,16.973 l 0.006,1.588 c 0,0.43 0.536,0.499 0.7,0.048 1.868,-5.107 8.106,-10.557 19.548,-8.625 0,0 49.849,8.622 50.267,8.659 0.487,0.043 0.728,-0.437 0.414,-0.81 -0.189,-0.225 -23.2,-23.258 -23.2,-23.258 z m -36.062,10.988 a 0.364,0.364 0 0 1 -0.364,-0.364 v -5.163 c 0,-0.202 0.163,-0.364 0.364,-0.364 l 8.724,0.002 c 0.201,0 0.364,-0.163 0.364,-0.364 -0.023,-4.637 -3.515,-7.788 -17.508,-5.35 l -30.215,5.198 c 0,0 -23.012,23.033 -23.2,23.258 -0.315,0.373 -0.074,0.853 0.413,0.81 0.42,-0.037 50.267,-8.66 50.267,-8.66 11.443,-1.931 17.681,3.52 19.548,8.626 0.164,0.45 0.701,0.383 0.701,-0.048 l 0.001,-17.218 c 0,-0.2 -0.163,-0.363 -0.364,-0.363 z M 78.049,89.903 c -9.96,9.969 -11.349,20.516 -9.222,27.395 0.18,0.584 0.686,0.623 0.68,0.01 -0.05,-5.78 1.612,-10.746 12.151,-21.296 l 22.721,-22.735 c 6.047,-6.054 11.125,-11.27 11.125,-16.973 v -8.897 c 0,-0.542 -0.62,-0.544 -0.732,0 -1.494,7.26 -4.395,10.125 -10.378,16.113 L 78.05,89.902 Z M 115.526,62.97 c 0,-0.54 -0.62,-0.543 -0.732,0 -1.494,7.261 -4.388,10.17 -10.37,16.16 L 80.56,102.993 c -11.58,11.592 -13.584,22.81 -7.694,30.02 0.393,0.481 0.815,0.192 0.56,-0.388 -3.895,-8.819 5.443,-18.17 9.889,-22.62 L 104.401,88.9 c 6.047,-6.053 11.125,-11.269 11.125,-16.973 z m -34.311,55.008 c -11.581,11.592 -6.256,22.787 0.5,25.87 0.592,0.27 0.828,-0.211 0.374,-0.603 -5.416,-4.699 -3.772,-12.6 3.04,-19.418 l 19.248,-19.267 c 6.047,-6.053 11.124,-11.268 11.124,-16.972 v -8.896 c 0,-0.54 -0.62,-0.543 -0.73,0 -1.495,7.259 -4.39,10.112 -10.373,16.1 z m 25.688,37.771 c 0,0.541 0.62,0.543 0.73,0 1.496,-7.259 4.39,-10.17 10.372,-16.158 l 9.479,-9.468 c 11.58,-11.59 13.583,-22.809 7.693,-30.018 -0.393,-0.481 -0.815,-0.193 -0.558,0.387 3.893,8.819 -5.444,18.169 -9.89,22.62 l -6.701,6.709 c -6.048,6.052 -11.125,11.267 -11.125,16.971 z m 11.128,-31.822 c -5.983,5.988 -8.879,8.841 -10.373,16.101 -0.112,0.544 -0.731,0.542 -0.731,0 v -8.896 c 0,-5.703 5.077,-10.92 11.125,-16.972 l 4.862,-4.868 c 6.813,-6.82 8.457,-14.719 3.04,-19.418 -0.453,-0.392 -0.217,-0.874 0.376,-0.603 6.755,3.082 12.08,14.277 0.498,25.87 z m 56.364,39.421 c 0.496,0 0.792,-0.277 0.792,-0.678 0,-0.447 -0.248,-0.64 -0.801,-0.64 h -0.468 v 1.318 z m -1.2,-1.927 h 1.22 c 1.039,0 1.506,0.41 1.506,1.231 0,0.6 -0.363,0.934 -0.744,1.087 l 1.107,1.85 h -0.82 l -0.955,-1.65 h -0.59 v 1.65 h -0.725 v -4.168 z m 4.262,2.079 c 0,-1.65 -1.231,-2.995 -2.957,-2.995 -1.726,0 -2.966,1.25 -2.966,2.995 0,1.65 1.24,2.995 2.966,2.995 1.632,0 2.957,-1.25 2.957,-2.995 z m -6.457,0 c 0,-2.03 1.47,-3.5 3.5,-3.5 1.936,0 3.5,1.47 3.5,3.5 0,2.032 -1.468,3.5 -3.5,3.5 -2.03,0 -3.5,-1.468 -3.5,-3.5 z"
           id="path6270" />
      </g>
    </g>
  </g>
  <g
     inkscape:label="Square"
     inkscape:groupmode="layer"
     id="layer1"
     transform="translate(0,-87)"
     style="display:none"
     sodipodi:insensitive="true">
    <rect
       style="opacity:1;fill:#ffb2b6;fill-opacity:1;stroke:none;stroke-width:0.33757615;stroke-linecap:round;stroke-linejoin:round;stroke-miterlimit:4;stroke-dasharray:none;stroke-dashoffset:0;stroke-opacity:1;paint-order:stroke markers fill"
       id="rect5064"
       width="84.435867"
       height="84.435867"
       x="63.268253"
       y="116.3684" />
    <rect
       style="opacity:1;fill:#ffb2b6;fill-opacity:1;stroke:none;stroke-width:0.33757615;stroke-linecap:round;stroke-linejoin:round;stroke-miterlimit:4;stroke-dasharray:none;stroke-dashoffset:0;stroke-opacity:1;paint-order:stroke markers fill"
       id="rect5068"
       width="84.435867"
       height="84.435867"
       x="147.70413"
       y="116.3684" />
    <rect
       y="200.80428"
       x="63.268253"
       height="84.435867"
       width="84.435867"
       id="rect5070"
       style="opacity:1;fill:#ffb2b6;fill-opacity:1;stroke:none;stroke-width:0.33757615;stroke-linecap:round;stroke-linejoin:round;stroke-miterlimit:4;stroke-dasharray:none;stroke-dashoffset:0;stroke-opacity:1;paint-order:stroke markers fill" />
    <rect
       y="200.80428"
       x="147.70413"
       height="84.435867"
       width="84.435867"
       id="rect5066"
       style="display:inline;opacity:1;fill:#ffb2b6;fill-opacity:1;stroke:none;stroke-width:0.33757615;stroke-linecap:round;stroke-linejoin:round;stroke-miterlimit:4;stroke-dasharray:none;stroke-dashoffset:0;stroke-opacity:1;paint-order:stroke markers fill" />
  </g>
</svg>
