<?xml version="1.0" encoding="UTF-8" standalone="no"?>
<!-- Created with Inkscape (http://www.inkscape.org/) -->

<svg
   xmlns:dc="http://purl.org/dc/elements/1.1/"
   xmlns:cc="http://creativecommons.org/ns#"
   xmlns:rdf="http://www.w3.org/1999/02/22-rdf-syntax-ns#"
   xmlns:svg="http://www.w3.org/2000/svg"
   xmlns="http://www.w3.org/2000/svg"
   xmlns:sodipodi="http://sodipodi.sourceforge.net/DTD/sodipodi-0.dtd"
   xmlns:inkscape="http://www.inkscape.org/namespaces/inkscape"
   width="297mm"
   height="210mm"
   viewBox="0 0 297 210"
   version="1.1"
   id="svg7034"
   inkscape:export-filename="/home/keyjoo/Desktop/mos-map-sda/png/sev-vost-r_3_9_Khimki_-1730.png"
   inkscape:export-xdpi="96"
   inkscape:export-ydpi="96"
   inkscape:version="0.92.3 (2405546, 2018-03-11)"
   sodipodi:docname="03_1.Central_03_20191031_1621.svg"
   enable-background="new">
  <title
     id="title5307">map-sda-moscow</title>
  <defs
     id="defs7028">
    <marker
       inkscape:stockid="DotM"
       orient="auto"
       refY="0.0"
       refX="0.0"
       id="DotM"
       style="overflow:visible"
       inkscape:isstock="true">
      <path
         id="path13250"
         d="M -2.5,-1.0 C -2.5,1.7600000 -4.7400000,4.0 -7.5,4.0 C -10.260000,4.0 -12.5,1.7600000 -12.5,-1.0 C -12.5,-3.7600000 -10.260000,-6.0 -7.5,-6.0 C -4.7400000,-6.0 -2.5,-3.7600000 -2.5,-1.0 z "
         style="fill-rule:evenodd;stroke:#666666;stroke-width:1pt;stroke-opacity:1;fill:#666666;fill-opacity:1"
         transform="scale(0.4) translate(7.4, 1)" />
    </marker>
    <marker
       inkscape:stockid="DotL"
       orient="auto"
       refY="0.0"
       refX="0.0"
       id="marker20828"
       style="overflow:visible"
       inkscape:isstock="true">
      <path
         id="path20826"
         d="M -2.5,-1.0 C -2.5,1.7600000 -4.7400000,4.0 -7.5,4.0 C -10.260000,4.0 -12.5,1.7600000 -12.5,-1.0 C -12.5,-3.7600000 -10.260000,-6.0 -7.5,-6.0 C -4.7400000,-6.0 -2.5,-3.7600000 -2.5,-1.0 z "
         style="fill-rule:evenodd;stroke:#666666;stroke-width:1pt;stroke-opacity:1;fill:#666666;fill-opacity:1"
         transform="scale(0.8) translate(7.4, 1)" />
    </marker>
    <marker
       inkscape:stockid="DotL"
       orient="auto"
       refY="0.0"
       refX="0.0"
       id="marker20758"
       style="overflow:visible"
       inkscape:isstock="true">
      <path
         id="path20756"
         d="M -2.5,-1.0 C -2.5,1.7600000 -4.7400000,4.0 -7.5,4.0 C -10.260000,4.0 -12.5,1.7600000 -12.5,-1.0 C -12.5,-3.7600000 -10.260000,-6.0 -7.5,-6.0 C -4.7400000,-6.0 -2.5,-3.7600000 -2.5,-1.0 z "
         style="fill-rule:evenodd;stroke:#666666;stroke-width:1pt;stroke-opacity:1;fill:#666666;fill-opacity:1"
         transform="scale(0.8) translate(7.4, 1)" />
    </marker>
    <marker
       inkscape:stockid="DotL"
       orient="auto"
       refY="0.0"
       refX="0.0"
       id="marker18585"
       style="overflow:visible"
       inkscape:isstock="true">
      <path
         id="path18583"
         d="M -2.5,-1.0 C -2.5,1.7600000 -4.7400000,4.0 -7.5,4.0 C -10.260000,4.0 -12.5,1.7600000 -12.5,-1.0 C -12.5,-3.7600000 -10.260000,-6.0 -7.5,-6.0 C -4.7400000,-6.0 -2.5,-3.7600000 -2.5,-1.0 z "
         style="fill-rule:evenodd;stroke:#666666;stroke-width:1pt;stroke-opacity:1;fill:#666666;fill-opacity:1"
         transform="scale(0.8) translate(7.4, 1)" />
    </marker>
    <marker
       inkscape:isstock="true"
       style="overflow:visible"
       id="marker13994"
       refX="0.0"
       refY="0.0"
       orient="auto"
       inkscape:stockid="DotL">
      <path
         transform="scale(0.8) translate(7.4, 1)"
         style="fill-rule:evenodd;stroke:#666666;stroke-width:1pt;stroke-opacity:1;fill:#666666;fill-opacity:1"
         d="M -2.5,-1.0 C -2.5,1.7600000 -4.7400000,4.0 -7.5,4.0 C -10.260000,4.0 -12.5,1.7600000 -12.5,-1.0 C -12.5,-3.7600000 -10.260000,-6.0 -7.5,-6.0 C -4.7400000,-6.0 -2.5,-3.7600000 -2.5,-1.0 z "
         id="path13992" />
    </marker>
    <filter
       inkscape:collect="always"
       style="color-interpolation-filters:sRGB"
       id="filter4948">
      <feBlend
         inkscape:collect="always"
         mode="darken"
         in2="BackgroundImage"
         id="feBlend4950" />
    </filter>
  </defs>
  <sodipodi:namedview
     id="base"
     pagecolor="#ffffff"
     bordercolor="#666666"
     borderopacity="1.0"
     inkscape:pageopacity="0.0"
     inkscape:pageshadow="2"
     inkscape:zoom="0.98994952"
     inkscape:cx="320.17277"
     inkscape:cy="336.57476"
     inkscape:document-units="mm"
     inkscape:current-layer="layer3"
     showgrid="false"
     showguides="true"
     inkscape:guide-bbox="true"
     inkscape:window-width="2164"
     inkscape:window-height="871"
     inkscape:window-x="113"
     inkscape:window-y="121"
     inkscape:window-maximized="0">
    <sodipodi:guide
       position="9.087164,210.20748"
       orientation="1,0"
       id="guide12537"
       inkscape:locked="false" />
    <sodipodi:guide
       position="289.72017,213.68199"
       orientation="1,0"
       id="guide12539"
       inkscape:locked="false" />
    <sodipodi:guide
       position="158.14454,65.452063"
       orientation="1,0"
       id="guide19215"
       inkscape:locked="false" />
    <sodipodi:guide
       position="156.21904,63.710372"
       orientation="1,0"
       id="guide19217"
       inkscape:locked="false" />
  </sodipodi:namedview>
  <metadata
     id="metadata7031">
    <rdf:RDF>
      <cc:Work
         rdf:about="">
        <dc:format>image/svg+xml</dc:format>
        <dc:type
           rdf:resource="http://purl.org/dc/dcmitype/StillImage" />
        <dc:title>map-sda-moscow</dc:title>
        <dc:date>2019.10.28</dc:date>
        <dc:creator>
          <cc:Agent>
            <dc:title>Vladimir Pavlychev</dc:title>
          </cc:Agent>
        </dc:creator>
        <dc:rights>
          <cc:Agent>
            <dc:title>2019 (-c-) Vladimir Pavlychev</dc:title>
          </cc:Agent>
        </dc:rights>
        <dc:publisher>
          <cc:Agent>
            <dc:title>Inksсape</dc:title>
          </cc:Agent>
        </dc:publisher>
        <dc:identifier>01</dc:identifier>
        <dc:source>https://github.com/vovs03/map-sda-moscow</dc:source>
        <dc:relation>map-sda-moscow</dc:relation>
        <dc:language>RU</dc:language>
        <dc:subject>
          <rdf:Bag>
            <rdf:li>АСД</rdf:li>
            <rdf:li>Адвентисты Седьмого Дня</rdf:li>
            <rdf:li>Карта Московского объединения</rdf:li>
          </rdf:Bag>
        </dc:subject>
        <dc:description>Карта Московского объединения </dc:description>
        <dc:contributor>
          <cc:Agent>
            <dc:title>Vladimir Pavlychev</dc:title>
          </cc:Agent>
        </dc:contributor>
        <cc:license
           rdf:resource="http://creativecommons.org/licenses/by-sa/4.0/" />
      </cc:Work>
      <cc:License
         rdf:about="http://creativecommons.org/licenses/by-sa/4.0/">
        <cc:permits
           rdf:resource="http://creativecommons.org/ns#Reproduction" />
        <cc:permits
           rdf:resource="http://creativecommons.org/ns#Distribution" />
        <cc:requires
           rdf:resource="http://creativecommons.org/ns#Notice" />
        <cc:requires
           rdf:resource="http://creativecommons.org/ns#Attribution" />
        <cc:permits
           rdf:resource="http://creativecommons.org/ns#DerivativeWorks" />
        <cc:requires
           rdf:resource="http://creativecommons.org/ns#ShareAlike" />
      </cc:License>
    </rdf:RDF>
  </metadata>
  <g
     inkscape:groupmode="layer"
     id="layer5"
     inkscape:label="Backgound"
     style="display:inline">
    <rect
       style="opacity:1;fill:#ffffff;fill-opacity:1;stroke:none;stroke-width:0.29973197;stroke-linecap:round;stroke-linejoin:round;stroke-miterlimit:4;stroke-dasharray:none;stroke-dashoffset:0;stroke-opacity:1;paint-order:stroke markers fill"
       id="rect27465"
       width="296.97067"
       height="209.65532"
       x="-0.031204708"
       y="0.03221206" />
    <rect
       ry="0"
       y="22.60059"
       x="10.606137"
       height="180.55232"
       width="277.60703"
       id="rect12525"
       style="display:inline;opacity:1;fill:#ffffff;fill-opacity:1;stroke:#d40000;stroke-width:2.99335003;stroke-linecap:square;stroke-linejoin:miter;stroke-miterlimit:4;stroke-dasharray:none;stroke-dashoffset:0;stroke-opacity:1;paint-order:stroke markers fill" />
    <rect
       style="display:inline;opacity:1;fill:#d40000;fill-opacity:1;stroke:none;stroke-width:4.63452721;stroke-linecap:square;stroke-linejoin:miter;stroke-miterlimit:4;stroke-dasharray:none;stroke-dashoffset:0;stroke-opacity:0.15151517;paint-order:stroke markers fill"
       id="rect12191"
       width="280.633"
       height="13.898014"
       x="9.103282"
       y="5.8329406"
       ry="0" />
    <text
       xml:space="preserve"
       style="font-style:normal;font-weight:normal;font-size:9.8777771px;line-height:1.25;font-family:sans-serif;letter-spacing:0.53710413px;word-spacing:0px;display:inline;fill:#000000;fill-opacity:1;stroke:none;stroke-width:0.26458332"
       x="29.415764"
       y="15.989196"
       id="text12203"><tspan
         sodipodi:role="line"
         id="tspan12201"
         x="29.415764"
         y="15.989196"
         style="fill:#ffffff;stroke-width:0.26458332">1. Центральный район</tspan></text>
    <text
       xml:space="preserve"
       style="font-style:normal;font-weight:normal;font-size:4.20815277px;line-height:1.25;font-family:sans-serif;letter-spacing:0.2288183px;word-spacing:0px;display:inline;fill:#000000;fill-opacity:1;stroke:none;stroke-width:0.11271837"
       x="209.01659"
       y="217.69077"
       id="text6448"><tspan
         sodipodi:role="line"
         id="tspan6446"
         x="209.01659"
         y="217.69077"
         style="stroke-width:0.11271837">Знак общественного достояния</tspan></text>
    <g
       style="display:inline"
       id="g6455">
      <text
         xml:space="preserve"
         style="font-style:normal;font-weight:normal;font-size:2.08831406px;line-height:1.25;font-family:sans-serif;letter-spacing:0.11355207px;word-spacing:0px;display:inline;fill:#93a7ac;fill-opacity:1;stroke:none;stroke-width:0.05593698"
         x="227.41258"
         y="201.76669"
         id="text6438"><tspan
           id="tspan6436"
           sodipodi:role="line"
           x="227.41258"
           y="201.76669"
           style="font-size:2.04611111px;fill:#93a7ac;stroke-width:0.05593698">2019 Дизайн и оформление:  Владимир Павлычев</tspan></text>
      <path
         style="fill:#93a7ac;stroke-width:0.02983596"
         d="m 225.38938,200.06837 c -0.52728,0 -0.95475,0.42747 -0.95475,0.95475 0,0.52722 0.42747,0.95475 0.95475,0.95475 0.52728,0 0.95475,-0.42753 0.95475,-0.95475 0,-0.52729 -0.42747,-0.95475 -0.95475,-0.95475 z m 0,1.73047 c -0.42776,0 -0.77576,-0.34801 -0.77576,-0.77572 0,-0.0895 0.0155,-0.17553 0.0435,-0.25556 l 0.3034,0.1351 c -0.008,0.0406 -0.0126,0.0829 -0.0126,0.12669 0,0.38116 0.28449,0.48855 0.46349,0.48855 0.10555,0 0.1969,-0.0341 0.26842,-0.0841 0.0136,-0.01 0.0259,-0.0195 0.0372,-0.0296 l -0.13919,-0.16912 c -0.004,0.005 -0.008,0.009 -0.0127,0.0131 -0.0541,0.0513 -0.11364,0.0513 -0.12693,0.0513 -0.14564,0 -0.20659,-0.15365 -0.20741,-0.27674 l 0.83619,0.37229 c 0.001,2.3e-4 0.002,2.3e-4 0.003,3.4e-4 -0.13194,0.24022 -0.38738,0.40333 -0.68022,0.40333 z m 0.74755,-0.57751 -0.86244,-0.38494 c 0.0311,-0.0563 0.0807,-0.0987 0.15476,-0.0987 0.043,0 0.077,0.0142 0.10387,0.0322 0.0111,0.008 0.0208,0.0161 0.029,0.0242 l 0.15546,-0.16001 c -0.10441,-0.0898 -0.22313,-0.10581 -0.30077,-0.10581 -0.18243,0 -0.31153,0.0789 -0.38762,0.19863 l -0.28841,-0.12863 c 0.13881,-0.21117 0.37765,-0.35094 0.64861,-0.35094 0.42776,0 0.77579,0.34797 0.77579,0.77579 0,0.0692 -0.009,0.13626 -0.0264,0.2002 -6.6e-4,-6.6e-4 -0.001,-0.001 -0.002,-0.002 z"
         id="path3"
         inkscape:connector-curvature="0" />
    </g>
  </g>
  <g
     inkscape:groupmode="layer"
     id="layer2"
     inkscape:label="Territory"
     style="display:inline;filter:url(#filter4948)">
    <g
       inkscape:groupmode="layer"
       id="layer3"
       inkscape:label="1.2 Южный">
      <path
         style="display:inline;fill:#cce5ff;fill-opacity:1;fill-rule:evenodd;stroke:#ccc0a3;stroke-width:0.51899999;stroke-miterlimit:4;stroke-dasharray:none;stroke-opacity:1"
         inkscape:connector-curvature="0"
         id="polygon4369"
         d="m 128.28609,97.688082 c 0.30983,0.929499 0.61966,1.859007 0.92952,2.788508 0.38553,0.22724 0.746,0.55628 1.14679,0.72174 2.59093,-0.27207 5.18184,-0.54413 7.77277,-0.81619 0.20251,-2.341084 0.40499,-4.682167 0.60751,-7.02324 0.0739,-0.229081 0.0565,-0.665052 0.0976,-0.971868 0.0376,-0.73011 0.20101,-1.466957 -0.0196,-2.183269 -0.33393,-1.869044 -0.71889,-3.733061 -1.02111,-5.605199 -0.0314,-0.988553 0.0131,-1.987818 -0.0653,-2.969742 -0.1438,-0.268171 -0.0395,-0.88773 -0.48418,-0.729709 -0.42912,9.47e-4 -0.91012,0.127843 -1.30701,0.0516 -0.59077,-0.687408 -1.18149,-1.374806 -1.77223,-2.062194 0.30708,0.357307 0.61417,0.714615 0.92122,1.071922 -0.28924,0.129417 -0.55323,0.601462 -0.87339,0.311695 -0.4315,-0.215783 -0.86303,-0.431573 -1.29456,-0.647365 -0.22629,0.444492 -0.34921,0.914349 -0.35016,1.414132 -0.0593,0.653029 -0.11874,1.306048 -0.17811,1.959076 -0.33297,0.04795 -0.67411,0.148715 -0.96348,-0.08513 -0.34264,-0.161263 -0.68531,-0.322525 -1.02795,-0.483782 -0.13228,0.218971 0.014,0.932323 -0.37353,0.698294 -0.32366,-0.11421 -0.64482,-0.293146 -0.97994,-0.110215 -1.60355,0.450702 -3.2364,0.807724 -4.8194,1.324849 -0.10744,0.296343 -0.0212,0.729062 -0.0538,1.078014 0.15847,0.508473 -0.34247,0.357411 -0.67332,0.37646 -0.28645,0.0681 -0.8384,-0.18787 -0.7977,0.279259 -0.18416,0.884233 -0.36834,1.768474 -0.5525,2.652707 0.44705,1.043114 0.89411,2.086249 1.34117,3.129376 1.02163,-0.314067 2.03737,-0.695175 3.06269,-0.967589 0.56407,0.07872 1.12816,0.157397 1.69226,0.236102 -0.066,1.409989 -0.20684,2.821883 -0.22531,4.230659 0.0876,0.776474 0.17049,1.557099 0.26093,2.330981 z"
         class="str0" />
      <path
         style="display:inline;fill:#cce5ff;fill-opacity:1;fill-rule:evenodd;stroke:#ccc0a3;stroke-width:0.46109489;stroke-linecap:butt;stroke-linejoin:miter;stroke-opacity:1"
         inkscape:connector-curvature="0"
         d="m 127.42071,131.34945 -2.56198,-0.7233 -0.30232,0.78546 -6.14028,-1.83137 -0.85395,0.43748 -0.76771,-0.31796 -0.68478,-0.55 -0.56388,1.13763 -1.31982,0.5204 -0.30959,1.0168 0.3278,0.53398 0.6882,-0.49563 -0.20806,1.01219 0.50294,-0.0365 -0.42082,1.26868 0.0822,0.3286 -0.67654,0.46111 0.0456,2.26151 -1.41597,0.21258 0.61822,1.31269 0.55411,-0.27242 0.50532,1.11498 0.73978,0.0564 1.65042,-1.10397 1.11043,-0.0527 -0.01,0.79976 2.60017,0.48043 0.26656,-0.21 1.41114,0.32893 0.76907,-2.85625 4.16811,0.91964 2.70423,1.44703 1.89541,-3.01103 -1.51772,-1.33945 -1.38899,-4.39814 -1.46902,0.0835 z"
         id="path4229" />
      <path
         style="display:inline;fill:#afc6e9;fill-opacity:1;fill-rule:evenodd;stroke:none;stroke-width:0.21919426"
         inkscape:connector-curvature="0"
         id="path4233"
         d="m 139.88716,131.755 c 0.72687,0.29076 0.94493,0.39978 1.01761,0.25441 0.0728,-0.14537 0.72687,-1.19931 0.72687,-1.19931 l 0.50878,0.29073 -0.36341,4.14308 c 0,0 -0.25442,0.61784 0.21801,0.94493 0.4725,0.32708 1.27204,0.47245 1.27204,0.47245 l 0.79955,0.79954 c 0,0 0.14536,0.39978 0.29074,0.39978 0.14535,0 1.01757,0.10902 1.01757,0.10902 l 0.36343,0.94492 3.12548,-1.96252 7.30492,-2.07155 -0.79957,-3.08913 0.0727,-2.03521 0.4725,-0.25438 0.0364,-1.09029 -0.50884,-0.0364 -0.0364,-0.39975 0.61788,-1.09029 0.0364,-0.83589 -1.49009,0.0727 -1.74444,-0.0727 -0.79955,-0.43611 -2.65298,1.12662 -2.36233,-0.1817 -0.69051,0.90857 -1.01761,-0.14537 0.54517,-3.92503 -1.81715,-0.0364 -0.10902,2.36228 -1.52638,2.83475 z"
         class="str0" />
      <path
         style="display:inline;fill:#d7e3f4;fill-opacity:1;fill-rule:evenodd;stroke:#ccc0a3;stroke-width:0.46109489;stroke-linecap:butt;stroke-linejoin:miter;stroke-opacity:1"
         inkscape:connector-curvature="0"
         id="path4235"
         d="m 120.29436,156.97055 0.45259,0.0282 1.13154,-1.75388 0.0283,-0.93356 1.01838,-0.65063 1.41442,0.19804 0.31118,-6.50642 0.45265,-1.81047 0.4526,-1.0184 2.744,-2.46111 1.66901,-2.82888 -2.57426,-1.32957 -4.44133,-1.07497 -0.62231,2.85717 -1.5842,-0.31118 -0.0282,0.33946 -2.71573,-0.50919 0.0282,-0.87695 -1.10328,0.11315 -1.31072,0.8977 -0.75433,3.03632 0.87316,0.25082 -0.30735,0.64876 -0.5017,0.29231 -0.42432,3.57947 0.43187,0.87319 -1.07124,2.78359 4.87511,1.86705 1.58414,3.50782 z" />
      <path
         style="display:inline;fill:#afc6e9;fill-opacity:1;fill-rule:evenodd;stroke:#ccc0a3;stroke-width:0.46109489;stroke-linecap:butt;stroke-linejoin:miter;stroke-opacity:1"
         inkscape:connector-curvature="0"
         d="m 137.97933,155.34438 -2.571,-0.19265 -0.26852,0.26847 -0.95893,-0.34522 -10.04983,-1.11236 0.49865,-6.55923 0.26852,-1.30417 0.57533,-1.3809 0.72881,-0.9206 2.10973,-1.76446 0.31232,-0.52984 1.83571,-3.11419 0.65211,-1.03567 0.71596,-0.97779 0.88457,0.91397 0.96948,2.97903 3.1837,9.6279 0.26852,2.56999 0.8448,2.87773 z"
         id="path4243" />
      <path
         style="display:inline;fill:#afc6e9;fill-opacity:1;fill-rule:evenodd;stroke:#ccc0a3;stroke-width:0.46109489;stroke-linecap:butt;stroke-linejoin:miter;stroke-opacity:1"
         inkscape:connector-curvature="0"
         id="path4249"
         d="m 117.12603,126.02271 -1.02765,3.05246 0.54675,0.42705 0.84866,0.5092 0.96181,-0.53748 6.11036,1.9802 0.31114,-0.90524 2.63085,0.87696 -0.0565,-0.82038 1.41445,-0.0565 -0.87698,-4.95052 -0.65063,-3.45124 -0.25456,-0.99009 -1.21642,0.31115 0.11315,0.7921 -3.90384,-0.33946 -4.01701,-0.42434 -2.60254,-1.81047 -0.39606,0.93353 c 0,0 0.84867,0.11315 0.90524,0.28287 0.0565,0.16975 -0.0565,2.31969 -0.0565,2.31969 l -1.21643,1.41444 -0.0282,0.70721 1.7256,0.82037 z" />
      <path
         style="display:inline;fill:#d7e3f4;fill-opacity:1;fill-rule:evenodd;stroke:#ccc0a3;stroke-width:0.419;stroke-miterlimit:4;stroke-dasharray:none;stroke-opacity:1"
         inkscape:connector-curvature="0"
         id="path4253"
         d="m 155.88156,126.24903 c 0,0 0.47782,-0.44678 0.67892,-0.39605 0.20114,0.0507 0.13295,0.41805 0.31115,0.50921 0.17821,0.0911 0.57264,0.0266 0.7355,-0.0565 0.16289,-0.0833 -0.0555,-0.21777 0.31119,-0.36776 0.36665,-0.14999 1.67111,0.22203 2.14995,0.19802 0.47885,-0.024 0.72043,-0.23277 1.01841,-0.19802 0.29795,0.0346 0.87697,0.39604 0.87697,0.39604 l 0.87692,2.12166 c 0,0 1.72561,1.95192 2.09335,2.12165 0.36777,0.16973 6.30842,3.19663 6.30842,3.19663 l 0.25455,-0.50921 -0.48092,-0.76379 2.14999,-2.20651 c 0,0 -0.73904,-0.20255 -1.32959,-1.24471 -0.5905,-1.04217 -1.23081,-4.76586 -1.30131,-6.02549 -0.0704,-1.25963 0.22636,-2.23481 0.22636,-2.23481 0,0 0.30882,-1.17636 0.31118,-1.61247 0.003,-0.43607 -0.0642,-0.97617 -0.22635,-1.24469 -0.16218,-0.26852 -0.4237,-0.43563 -0.65063,-0.5092 -0.22693,-0.0735 -0.0206,-0.14905 -0.76379,0.0282 -0.74311,0.17734 -3.93209,1.81048 -3.93209,1.81048 l -5.3466,2.71572 -4.86565,-0.33947 0.19804,2.20653 -0.50924,0.56577 0.93356,1.15983 z"
         class="str0" />
      <path
         style="display:inline;fill:#d7e3f4;fill-opacity:1;fill-rule:evenodd;stroke:#ccc0a3;stroke-width:0.46109489;stroke-linecap:butt;stroke-linejoin:miter;stroke-opacity:1"
         inkscape:connector-curvature="0"
         id="path4255"
         d="m 154.94805,146.41887 1.49928,0.67893 0.39603,-1.86707 4.13017,-3.14002 1.7539,-1.30129 6.84588,-6.81758 1.32951,0.0849 0.14148,-0.33948 -2.87351,-1.50806 c 0,0 -0.30679,0.67892 -0.70285,0.90524 -0.39602,0.22631 -0.63971,0.19215 -1.00646,0.34822 -0.36671,0.15609 -1.07495,0.93354 -1.35781,0.99011 -0.28288,0.0565 -0.31321,0.0142 -0.62238,0.11316 -0.30913,0.0988 -0.42111,0.61359 -1.35465,0.72673 -0.93352,0.11317 -6.27925,0.61884 -6.64662,0.13269 l -0.45702,-0.60483 -7.24194,2.12167 c 0,0 -2.44952,1.29443 -3.11177,1.81046 0.21471,0.43117 0.74631,0.65722 0.85945,0.52992 0.2263,-0.25459 0.44189,0.68651 0.44189,0.68651 h 0.65062 l 0.56897,0.8889 c 0,0 -0.11642,0.3275 -0.003,0.49723 0.11314,0.16974 0.58481,0.54711 0.96181,0.65065 0.37703,0.10347 1.26424,0.0937 1.26424,0.0937 l 0.14146,0.60602 1.4515,0.28728 0.42435,0.4558 0.8562,0.39285 0.3036,0.68212 1.35789,1.89535 z" />
      <path
         style="display:inline;fill:#cce5ff;fill-opacity:1;fill-rule:evenodd;stroke:#ccc0a3;stroke-width:0.46109489;stroke-linecap:butt;stroke-linejoin:miter;stroke-opacity:1"
         inkscape:connector-curvature="0"
         d="m 127.30109,122.20329 -0.19451,-1.03912 -0.39157,-3.32797 v -3.73477 l 1.04201,-0.31117 0.95016,0.29346 0.72236,0.32003 0.88526,0.83963 1.6555,-1.9448 5.2769,4.18081 0.8221,-1.69869 1.76189,-0.22838 c 1.62993,1.45526 3.90555,3.12574 5.8586,4.6887 l 4.09368,1.71493 c 0,0 0.57256,0.21088 1.28991,0.26653 0.7174,0.0557 3.3412,-0.54341 3.3412,-0.54341 l 0.95602,-7.1e-4 0.0761,2.23881 -0.33718,0.52967 0.74383,1.10931 -0.0296,0.7823 -2.96971,-0.13316 c 0,0 -0.96343,-0.33452 -1.48772,-0.16069 -0.52437,0.17381 -2.08788,0.85947 -2.08788,0.85947 0,0 -1.82225,-0.19 -2.31963,0.0357 -0.49734,0.22572 -0.5742,0.88626 -0.97008,0.92439 -0.39582,0.0382 -0.96961,-0.037 -1.1045,-0.70675 -0.13496,-0.6697 0.38717,-2.17526 0.38717,-2.17526 l -0.6602,-0.53216 -0.016,-0.5881 -8.95743,-0.88736 -0.1588,0.39153 -3.44321,-0.54164 -0.10017,-0.87643 -1.2747,0.19349 -1.1248,0.20862 -2.23477,-0.14606 z m -0.19768,-1.01464 0.003,-0.0244"
         id="path4257" />
      <path
         style="display:inline;fill:#d7e3f4;fill-opacity:1;fill-rule:evenodd;stroke:#ccc0a3;stroke-width:0.46109489;stroke-linecap:butt;stroke-linejoin:miter;stroke-opacity:1"
         inkscape:connector-curvature="0"
         id="polygon4259"
         d="m 122.52368,106.10177 c 0.38217,-0.4621 0.84802,-0.88933 1.17788,-1.37321 -0.0725,-0.46733 0.30041,-0.78594 0.51338,-1.15795 0.20751,-0.26478 0.38717,-0.53517 0.22971,-0.8739 -0.0922,-0.49947 -0.18432,-0.99895 -0.27648,-1.49841 -0.43519,0.0787 -0.88078,0.24997 -1.30945,0.27095 -0.34653,-0.16863 -0.69306,-0.33725 -1.03961,-0.50587 0.0196,-0.73403 0.039,-1.468046 0.0586,-2.202065 -0.30389,-0.328647 -0.6078,-0.657284 -0.91168,-0.985947 0.69578,0.39764 1.37132,0.868168 2.0796,1.220875 0.54436,-0.03953 1.11729,0.08387 1.6414,-0.07105 0.60997,-0.221029 1.21997,-0.442041 1.82994,-0.663053 0.4013,2.90682 0.80261,5.81365 1.20393,8.72047 -0.29849,0.95784 -0.63792,1.90897 -0.91087,2.87102 -0.017,1.45342 -0.0433,2.90842 -0.0549,4.36088 -0.0937,0.23245 -0.0133,0.63888 -0.0401,0.93829 0.02,1.29289 -0.0763,2.59261 0.14006,3.87401 0.085,0.71663 0.17007,1.45849 0.25509,2.15969 -0.27198,0.0868 -0.71162,0.2328 -1.04763,0.34096 -0.35842,0.0626 -0.10594,0.56894 -0.18128,0.83714 -1.25821,-0.14234 -2.51644,-0.28472 -3.77465,-0.42707 -0.0371,-2.42062 -0.0742,-4.84124 -0.11139,-7.26185 0.7341,-1.10603 1.46818,-2.21205 2.20227,-3.31805 -0.67242,-0.11017 -1.34485,-0.22033 -2.01729,-0.33048 0.28917,-0.14684 0.43156,-0.44619 0.45443,-0.66623 0.2855,-0.0288 0.67989,0.094 0.90238,-0.0222 0.21123,-0.3459 -0.28896,-0.4988 -0.46118,-0.74068 -0.23076,-0.24967 -0.55898,-0.45182 -0.73266,-0.72931 -0.0535,-0.49541 -0.013,-1.01657 -0.31029,-1.44513 -0.22055,-0.27417 -0.17503,-0.5792 -0.0713,-0.89096 -0.0129,-0.38963 0.27972,-0.31864 0.56212,-0.43086 z" />
      <path
         style="display:inline;fill:#d7e3f4;fill-opacity:1;fill-rule:evenodd;stroke:#ccc0a3;stroke-width:0.46109489;stroke-linecap:butt;stroke-linejoin:miter;stroke-opacity:1"
         inkscape:connector-curvature="0"
         d="m 137.54724,107.17935 1.19542,-13.820295 1.39951,0.37904 0.96216,0.903862 2.3034,0.262399 0.81639,0.174949 c 1.69832,0.363884 3.32073,1.130921 4.78165,2.070125 0.77256,0.496603 1.42854,1.267996 1.74942,2.128449 0.83046,2.226431 -0.0264,4.338131 -2.09928,5.423151 l -3.67448,1.92336 -2.0382,1.1307 c 0,0 -0.96368,0.39754 -1.49514,0.82755 -0.37138,0.43002 -0.89912,1.25479 -0.89912,1.25479 l -0.69966,5.72314 -1.79985,0.26228 -0.6597,1.24245 c 0,0 -1.30304,-0.90636 -1.55,-1.68914 -0.24697,-0.78279 -0.22982,-2.32925 -0.22982,-2.32925 l 1.83836,-4.32955 0.10444,-1.52967 -0.006,-0.009 4e-5,1e-5 z"
         id="path4261" />
      <path
         style="display:inline;fill:#afc6e9;fill-opacity:1;fill-rule:evenodd;stroke:#ccc0a3;stroke-width:0.46109489;stroke-linecap:butt;stroke-linejoin:miter;stroke-opacity:1"
         inkscape:connector-curvature="0"
         id="path4271"
         d="m 137.409,116.99861 -1.27295,-1.04667 c 0,0 0.0847,0.50918 -0.14146,-0.31118 -0.2263,-0.82038 -0.42432,-2.60257 -0.42432,-2.60257 l 1.86705,-4.29987 0.76378,-8.37346 c 0,0 -1.68785,0.25445 -3.5876,0.55352 -1.9524,0.30736 -3.25474,0.33883 -4.10695,0.32343 -0.85223,-0.0155 -0.89654,-0.32428 -1.30127,-0.84867 -0.40475,-0.524406 -0.90524,-2.71571 -0.90524,-2.71571 l -1.86706,0.622347 1.30131,8.628053 -0.99374,2.69107 -0.008,4.44408 0.58498,0.32844 2.11338,-0.052 0.90523,0.90522 1.61246,-2.00849 5.26173,4.24331 z" />
      <path
         style="display:inline;fill:#d7e3f4;fill-opacity:1;fill-rule:evenodd;stroke:#ccc0a3;stroke-width:0.46109489;stroke-linecap:butt;stroke-linejoin:miter;stroke-opacity:1"
         inkscape:connector-curvature="0"
         id="path4275"
         d="m 127.33823,122.14717 2.14994,0.16972 2.48944,-0.48091 0.11315,0.9618 3.42293,0.56579 0.16972,-0.45262 8.54321,0.87695 c 0,0 0,1.44273 -0.19804,1.98021 -0.19802,0.53749 -1.21642,2.60256 -1.44271,2.80059 -0.22629,0.19802 -2.60259,3.2249 -2.60259,3.2249 0,0 -0.70721,1.18814 -0.99008,1.30129 -0.28287,0.11315 -2.80057,1.2447 -3.45126,1.38615 -0.65062,0.14144 -2.29134,0.67891 -2.68741,1.04668 -0.39602,0.36775 -0.99007,0.87694 -0.99007,0.87694 l -1.64079,-1.47101 -1.32955,-4.38475 z" />
      <path
         style="display:inline;fill:#cce5ff;fill-opacity:1;fill-rule:evenodd;stroke:#ccc0a3;stroke-width:0.46109489;stroke-linecap:butt;stroke-linejoin:miter;stroke-opacity:1"
         inkscape:connector-curvature="0"
         id="path4277"
         d="m 144.25489,153.88709 1.35785,0.22632 0.53745,-1.5276 8.85443,-6.08207 -1.44274,-1.89535 -0.16972,-0.93352 -1.04669,-0.33947 -0.36777,-0.5092 -1.18812,-0.16973 -0.25462,-0.7355 -1.32957,0.0565 c 0,0 -0.97475,-0.43382 -1.07496,-0.67895 -0.10018,-0.2451 0.11314,-0.48091 0.11314,-0.48091 l -0.59406,-0.82037 -0.73547,-0.0849 -0.0565,-0.65065 c 0,0 -0.99986,-0.2534 -1.18815,-0.50919 -0.18831,-0.2558 -0.0847,-0.82038 -0.0847,-0.82038 l -1.30127,-0.25459 c 0,0 -0.58054,-0.81503 -0.8204,-0.96182 -0.23986,-0.1468 -0.42433,-0.14144 -0.59405,-0.14144 -0.16974,0 -0.84869,-0.82038 -0.84869,-1.35786 0,-0.53749 0.33947,-3.47952 0.25462,-4.24331 -0.16972,-0.11315 -0.45259,-0.19803 -0.45259,-0.19803 0,0 -0.0849,-0.22629 -0.36777,0.14146 -0.2829,0.36774 -0.48091,1.04667 -0.7921,1.01839 -0.31116,-0.0282 -0.53746,-0.16973 -0.53746,-0.16973 0,0 -0.48091,0.87694 -1.13154,1.24469 -0.65064,0.36776 -3.3947,1.35787 -3.84729,1.5559 -0.45259,0.19801 -1.69735,0.73549 -2.34795,1.15983 -0.65065,0.42431 -0.90525,0.70721 -0.90525,0.70721 l 0.84867,0.7638 4.07357,12.58847 0.28287,2.74401 0.9618,2.7723 2.23484,0.16973 z" />
      <path
         style="display:inline;fill:#cce5ff;fill-opacity:1;fill-rule:evenodd;stroke:#ccc0a3;stroke-width:0.46109489;stroke-linecap:butt;stroke-linejoin:miter;stroke-opacity:1"
         inkscape:connector-curvature="0"
         id="path4279"
         d="m 156.05128,134.82048 0.33948,0.96185 c 0,0 6.93073,-0.085 7.24191,-0.39605 0.31117,-0.31117 0.59018,-0.67465 0.87693,-0.82039 0.28674,-0.14572 0.43253,0.0262 0.79209,-0.11316 0.35959,-0.13924 0.91767,-0.90295 1.27302,-1.01838 0.35531,-0.11542 0.76379,-0.0565 0.76379,-0.0565 l 0.89268,-1.14135 c 0,0 -3.97619,-2.225 -4.14591,-2.42302 -0.16973,-0.19802 -1.3296,-1.273 -1.35784,-1.47103 -0.0284,-0.198 -0.90526,-2.12164 -0.90526,-2.12164 0,0 -0.56578,-0.28289 -0.84864,-0.2546 -0.2829,0.0282 -0.35715,0.0612 -0.82039,0.11316 -0.46323,0.052 -1.87924,-0.23651 -2.23482,-0.0849 -0.35555,0.15165 -0.0558,0.17804 -0.2263,0.25462 -0.17044,0.0766 -0.75143,0.0853 -0.90524,0 -0.15381,-0.0853 0.01,-0.1719 -0.14145,-0.22631 -0.15131,-0.0544 -0.76377,0.25459 -0.76377,0.25459 l -0.11315,0.70722 -0.48092,0.90523 0.0848,0.62236 0.36774,0.0282 c 0,0 0.0757,0.72714 -0.0282,0.93353 -0.104,0.20638 -0.45265,0.28288 -0.45265,0.28288 0,0 -0.25455,1.13155 0,2.2348 0.25461,1.10327 0.82039,2.85717 0.7921,2.82888 z" />
      <path
         style="display:inline;fill:#d7e3f4;fill-opacity:1;fill-rule:evenodd;stroke:#ccc0a3;stroke-width:0.46109489;stroke-linecap:butt;stroke-linejoin:miter;stroke-opacity:1"
         inkscape:connector-curvature="0"
         d="m 121.01945,97.786459 -0.0159,0.01145 0.13324,0.08017 -0.11733,-0.09165 v 0 z m 3.57915,-13.579343 -0.41229,0.151587 -0.0115,1.432516 -1.41099,0.01108 -0.60964,2.92618 1.34114,3.129379 3.00748,-0.975389 1.74758,0.243847 -0.24382,4.064117 0.28449,2.560424 -1.77408,0.511173 -2.02598,0.734037 h -1.49749 l -1.99139,-1.199096 -1.15975,-1.481904 -2.78328,-5.534225 0.004,-0.05672 -1.69415,-2.345754 1.2172,0.146902 0.73155,-0.853466 -0.12191,-0.243855 0.56898,-0.894111 -0.24385,-0.487682 0.6909,-0.528342 -0.36579,-0.121928 0.73155,-1.016045 -0.40641,-0.447052 1.13797,-1.219234 1.0973,0.77219 2.64172,0.975386 0.16252,-0.894103 1.25992,0.243841 0.1278,0.396177 v 4.3e-5 z"
         id="path4367" />
    </g>
    <path
       style="display:inline;opacity:1;fill:#ffccaa;fill-opacity:1;fill-rule:evenodd;stroke:#ccc0a3;stroke-width:0.57766289;stroke-linecap:butt;stroke-linejoin:miter;stroke-opacity:1"
       inkscape:connector-curvature="0"
       d="m 127.46054,60.631746 1.4458,-0.184009 0.26605,-0.372429 0.74484,0.186216 0.0533,0.372426 1.94189,2.819814 -0.77143,3.458276 c -2.35139,-0.451862 -4.54564,0.117418 -6.75595,1.210507 l -0.57193,-1.10776 -0.50075,-0.468096 0.58654,-1.933726 0.19514,-0.390282 0.008,0.01154 0.46067,-0.949943 -2.30096,-1.402665 0.93183,-1.227233 -1.24706,-1.95343 -1.0852,-0.89169 -0.95263,-0.127965 -1.07795,-1.255675 0.60114,-0.729404 -0.67796,-0.236199 -4.35456,-4.331796 -1.37238,0.855643 -0.57046,-1.17423 1.73511,-1.374703 0.95589,-1.671498 1.19284,-7.034101 3.65719,-0.0084 0.85402,4.284115 0.74767,-0.145921 2.8775,1.58649 1.56801,1.542452 0.57647,3.915166 0.83845,0.07546 0.14518,3.922791 -0.56641,1.35995 0.0601,2.061636 0.38241,1.371274 -0.0201,-0.06269 z"
       id="path4415" />
    <path
       style="display:inline;opacity:1;fill:#ffccaa;fill-opacity:1;fill-rule:evenodd;stroke:#ccc0a3;stroke-width:0.57745457;stroke-linecap:butt;stroke-linejoin:miter;stroke-miterlimit:4;stroke-dasharray:none;stroke-opacity:1"
       inkscape:connector-curvature="0"
       d="m 131.15036,66.870342 c 2.52175,0.703271 4.00307,2.927254 4.85886,6.172245 l 1.11766,4.237678 2.56121,2.980351 1.94074,-0.143769 -1.16305,-2.700235 1.6622,-0.54816 1.64054,3.59657 2.72617,-1.595111 0.52983,0.427169 0.23306,-0.823626 0.67307,0.203837 0.30165,-1.131062 0.40988,0.02426 0.084,-1.780045 2.88324,2.607415 0.41913,0.18627 1.95585,-4.423942 -0.18629,-1.443603 -0.8382,-1.629882 -0.55884,-0.791652 -4.61024,-3.399471 -3.58569,-1.257332 -1.49019,-1.397039 -0.65195,0.419112 -0.60537,-0.931362 -2.00242,-0.37254 c -3.01146,1.350493 -5.27775,1.459193 -6.79894,0.325975 l -0.83978,0.20155 -0.66619,2.986364 v 7e-6 z"
       id="path4419" />
    <path
       style="display:inline;opacity:1;fill:#ffb2b6;fill-opacity:1;fill-rule:evenodd;stroke:#ccc0a3;stroke-width:0.57766289;stroke-linecap:butt;stroke-linejoin:miter;stroke-opacity:1"
       inkscape:connector-curvature="0"
       d="m 138.57634,78.966982 -0.78131,0.546886 -1.93479,-0.967403 -0.35641,0.865581 -0.3055,3.360416 -0.76374,0.101835 -1.73113,-0.814647 -0.20368,0.967394 -1.01827,-0.35641 -5.14354,1.366602 -0.91546,-3.963294 1.62933,-0.305492 -0.051,-1.17106 1.42565,-0.458246 0.25454,-9.470337 0.5092,-0.10183 -0.33493,-1.786258 c 0.74891,-0.05576 1.50875,-0.01812 2.28575,0.131208 l 0.18126,-0.812677 -0.172,0.771141 c 2.52169,0.703268 4.00298,2.927257 4.85885,6.17225 l 1.11765,4.237674 1.44948,1.686652 z"
       id="path4421" />
    <path
       style="display:inline;opacity:1;fill:#ffccaa;fill-opacity:1;fill-rule:evenodd;stroke:#ccc0a3;stroke-width:0.57766289;stroke-linecap:butt;stroke-linejoin:miter;stroke-opacity:1"
       inkscape:connector-curvature="0"
       d="m 126.3333,84.037553 -0.90018,0.259952 -0.16348,-0.506615 -1.57837,-0.305492 -0.20367,1.120149 -3.30951,-1.221978 -0.27209,0.786804 -0.62372,-0.326967 -1.60305,2.236324 -0.8107,1.122531 -0.71283,1.120142 0.15281,0.305499 -0.9165,1.06923 -1.52498,-0.184039 -0.008,-0.01051 -1.39159,-1.630198 -0.002,-0.0083 1.18791,-0.860189 3.54533,-5.293184 1.8206,-4.08698 0.61445,-1.269807 0.98307,-1.392687 1.22884,-1.064998 0.51418,-0.746472 0.67368,-2.653328 0.47324,-1.502093 0.87722,-0.871989 c 1.53482,-0.758988 4.45906,-1.397134 4.46993,-1.341605 l 0.0546,0.279158 0.28026,1.507106 -0.50914,0.101831 -0.25463,9.470332 -1.42563,0.458246 0.0509,1.17106 -1.6293,0.305491 0.91097,3.963518 -6e-5,-2.1e-5 z m -14.48251,4.152124 v -3.7e-5 c 0.009,-0.0058 0.0181,-0.01101 0.027,-0.01648 -0.009,0.0058 -0.0181,0.01101 -0.027,0.01648 z m 0.15226,-0.09391 c 2.3e-4,-1.65e-4 6.6e-4,-6.62e-4 0.002,-6.62e-4 -2.5e-4,1.66e-4 -6.6e-4,6.62e-4 -0.002,6.62e-4 z m 0.0275,-0.01714 c 0.012,-0.0075 0.0239,-0.01504 0.0359,-0.0226 -0.012,0.0076 -0.0239,0.01504 -0.0359,0.0226 z m 0.10776,-0.0681 c 0.007,-0.0036 0.0125,-0.0081 0.0189,-0.01202 -0.007,0.0043 -0.0125,0.0081 -0.0189,0.01202 z"
       id="path4423" />
    <path
       style="display:inline;opacity:1;fill:#ffccaa;fill-opacity:1;fill-rule:evenodd;stroke:#ccc0a3;stroke-width:0.57766289;stroke-linecap:butt;stroke-linejoin:miter;stroke-opacity:1"
       inkscape:connector-curvature="0"
       id="polygon4425"
       d="m 140.15314,43.369053 c -0.89374,-0.337293 -1.78748,-0.674589 -2.68122,-1.011885 -0.2154,-0.04018 -0.59508,-0.391797 -0.87372,-0.551844 -0.3942,-0.239274 -0.44564,-0.773821 -0.68875,-1.143265 -0.0906,-0.186838 -0.44637,-0.921055 -0.36652,-0.755917 0.11699,0.310324 -0.60105,0.252211 -0.83439,0.407978 -0.23908,0.163177 -0.94444,0.0778 -0.82822,0.430362 0.23962,0.768502 0.47928,1.537001 0.7189,2.3055 -0.55196,-0.195846 -0.1554,0.428733 -0.14631,0.718167 0.34144,1.472021 0.68292,2.944038 1.02436,4.416059 -0.39015,0.04434 -0.78032,0.08868 -1.17045,0.133013 -0.47884,1.525169 -0.95768,3.05034 -1.43651,4.575511 -0.55871,-0.115246 -1.11743,-0.230485 -1.67615,-0.345727 -0.095,1.266252 -0.13404,2.546779 -0.26412,3.804117 -0.33758,0.727077 -0.67512,1.454154 -1.01269,2.181231 0.35723,0.05255 0.84345,0.02741 0.50829,0.496957 -0.21224,0.33343 -0.16103,0.668834 0.0561,0.814754 -0.22963,0.181362 -0.85936,0.543931 -0.19999,0.369238 0.39642,0.02282 0.67397,-0.144571 0.82564,-0.51342 0.57783,-0.818223 1.09243,-1.692692 1.70929,-2.476162 0.88641,-0.762185 1.77281,-1.524366 2.65922,-2.286548 2.07211,-0.239733 4.1442,-0.479468 6.21628,-0.719198 0.12124,-0.714577 0.24248,-1.429152 0.36369,-2.143725 1.42035,-1.0652 2.84071,-2.130397 4.26107,-3.195597 0.37374,0.280356 0.74748,0.560707 1.12122,0.841062 0.81948,-1.051507 1.63897,-2.103014 2.45846,-3.154523 -3.24781,-1.06538 -6.49564,-2.130758 -9.74348,-3.196138 z" />
    <path
       style="display:inline;opacity:1;fill:#ffb2b6;fill-opacity:1;fill-rule:evenodd;stroke:#ccc0a3;stroke-width:0.57766289;stroke-linecap:butt;stroke-linejoin:miter;stroke-opacity:1"
       inkscape:connector-curvature="0"
       d="m 158.73294,50.994099 -1.02617,-2.248392 -1.57874,-1.628132 -2.16265,-0.229779 v -0.05809 l -3.88554,-0.204491 -0.18231,-0.05982 -2.45854,3.154357 -1.12128,-0.840965 -4.26091,3.195675 -0.36385,2.14367 -6.21619,0.719227 -2.7485,2.363179 -1.91614,2.838307 -0.88574,0.115191 -0.009,0.0065 v 0.0013 l 0.0532,0.372428 1.94197,2.819814 -0.096,0.430378 0.83973,-0.20154 c 1.52119,1.133219 3.78748,1.024521 6.79894,-0.325982 l 2.00241,0.372547 0.60538,0.931356 0.65194,-0.419109 1.48173,1.389081 0.81776,-1.006475 -0.78352,-2.768262 0.47011,-1.149097 h 3.08165 l 1.09693,-0.887935 0.41784,-0.887939 0.0522,-1.096856 1.25358,-2.663812 0.99241,-0.731242 1.61912,1.566948 5.51806,-5.011793 v -2.5e-5 z"
       id="path4427" />
    <path
       style="display:inline;opacity:1;fill:#ffb2b6;fill-opacity:1;fill-rule:evenodd;stroke:#ccc0a3;stroke-width:0.57766289;stroke-linecap:butt;stroke-linejoin:miter;stroke-opacity:1"
       inkscape:connector-curvature="0"
       d="m 104.74019,51.952124 7.83048,-1.233566 0.53634,1.287195 1.2872,-0.911762 4.23698,4.237016 0.85814,0.3218 -0.6436,0.750863 1.07267,1.287198 0.53633,-0.375436 1.609,1.394462 1.19491,1.93525 c -0.48012,0.643755 -0.089,0.212808 -0.889,1.229578 l 2.24297,1.434521 -0.5108,0.924877 -0.32181,-0.4827 -1.39447,-0.429063 -0.16089,0.429063 h -0.26818 l -0.26816,-0.107267 -0.6436,0.321797 -0.0537,-0.321797 -0.8045,0.160895 -3.5398,-1.716254 -0.10727,0.375428 -1.60894,-1.072665 -0.21454,1.609 -2.4135,0.05363 -0.80451,1.501727 -0.16089,0.160902 -0.48959,0.03627 c -0.0148,-0.03036 -0.0303,-0.0603 -0.0468,-0.0899 -0.15249,-0.274172 -0.92643,-0.49131 -1.50426,-0.588422 -0.17623,-0.04955 -0.35395,-0.07714 -0.53381,-0.05518 -1.20946,0.01835 -2.41866,0.305269 -3.53981,0.91177 -0.59604,0.253626 -1.01082,0.810866 -1.50174,1.233562 -0.79645,0.685866 -1.50523,1.479731 -2.35981,2.091695 -0.60463,0.432897 -1.26259,0.840594 -1.98443,1.019029 -0.903976,0.223422 -1.857841,0.17297 -2.78894,0.160899 -0.452572,-0.0059 -0.791491,-0.195576 -1.128202,-0.498058 L 94.225253,67.82943 c 0,0 -1.375012,-3.673811 -2.074456,-5.419803 -0.699509,-1.745981 -0.726754,-1.426921 -0.726754,-1.426921 l 2.329556,-1.738948 -0.0073,-0.0088 0.216497,-0.128005 0.566096,1.132166 2.547345,-1.811459 2.490761,-4.245619 3.056872,-1.924673 2.09446,-0.283042 7.1e-4,-0.02375 0.0208,0.0016 v 3e-5 z"
       id="path4429" />
    <path
       style="display:inline;opacity:1;fill:#ffb2b6;fill-opacity:1;fill-rule:evenodd;stroke:#ccc0a3;stroke-width:0.57766289;stroke-linecap:butt;stroke-linejoin:miter;stroke-opacity:1"
       inkscape:connector-curvature="0"
       d="m 112.46697,87.864214 1.18791,-0.860189 3.64554,-5.243057 1.72038,-4.137106 0.61439,-1.269807 0.98308,-1.392687 1.22884,-1.064999 0.61445,-0.696346 0.57346,-2.703454 0.57346,-1.351731 0.77824,-1.02404 -0.54836,-1.256316 -0.46337,-0.635009 -1.76646,-0.53477 -0.46706,1.325403 -0.88808,-0.116847 -0.0935,1.098378 -1.51903,-0.39729 -3.033,0.766134 0.22153,0.629109 -0.88107,0.353445 -0.25867,-0.771645 -1.09156,-0.231189 -2.25303,0.689821 c -0.003,0.0071 -0.005,0.0142 -0.008,0.02124 -0.61832,1.613713 -1.24283,3.245992 -2.14534,4.719728 -0.52829,0.862709 -1.26474,1.616343 -2.0917,2.198963 l -4.71974,3.325258 -0.003,-0.0043 -0.79499,0.740853 c -0.73534,0.685213 -1.11078,1.82207 -1.27966,2.812954 -0.15765,0.925239 -0.12924,1.910286 0.12789,2.812955 0.85966,3.018059 3.30287,4.022219 6.0734,4.416193 1.8291,-0.233208 2.94925,-0.298998 5.9214,-2.260757 l 0.0419,0.04924 -0.002,-0.0083 v -3.7e-5 z"
       id="path4431"
       sodipodi:nodetypes="cccccccccccccccccccccccccccccccccccccc" />
    <path
       style="display:inline;opacity:1;fill:#ffccaa;fill-opacity:1;fill-rule:evenodd;stroke:#ccc0a3;stroke-width:0.57766289;stroke-linecap:butt;stroke-linejoin:miter;stroke-opacity:1"
       inkscape:connector-curvature="0"
       d="m 123.94913,64.612853 -0.49638,1.739286 -1.83232,-0.605854 -0.47908,1.273655 -0.88803,-0.116845 -0.0935,1.098371 -1.51903,-0.39728 -3.10817,0.841304 0.54107,0.792001 -1.26328,0.315863 -0.22104,-0.846826 -0.96632,-0.33144 -2.27801,0.664773 c 0.11169,-0.312447 0.0652,-0.66577 0.0457,-0.997777 -0.0339,-0.575491 -0.0865,-1.148348 -0.18564,-1.716259 -0.0919,-0.526293 -0.12425,-1.094067 -0.35744,-1.572726 l 0.48944,-0.03627 0.1609,-0.160901 0.8045,-1.50173 2.41351,-0.05362 0.21453,-1.608993 1.609,1.072657 0.10728,-0.375434 3.26415,1.265187 1.15533,0.01454 0.0958,0.275662 0.37365,-0.286199 0.8749,-0.08572 0.36702,-1.149716 1.91363,1.064719 -0.74216,1.425606 z"
       id="path4433" />
    <path
       inkscape:connector-curvature="0"
       style="clip-rule:evenodd;display:inline;opacity:1;fill:#ffb2b6;fill-opacity:1;fill-rule:evenodd;stroke:#ccc0a3;stroke-width:1.00964022;stroke-linejoin:bevel;stroke-miterlimit:4;stroke-dasharray:none;stroke-opacity:1;image-rendering:optimizeQuality;shape-rendering:geometricPrecision;text-rendering:geometricPrecision"
       d="m 209.80782,122.96855 9.81355,1.88724 1.50981,1.51731 -1.88723,2.64968 5.66169,8.3189 -3.77446,10.22121 -1.88723,3.02711 -6.03913,-2.64968 6.03913,-3.02711 -6.79404,-7.57153 -9.43609,0.37741 -3.77447,4.54444 -6.4241,-1.13232 -0.37747,-6.06178 -1.50977,-1.50975 4.90678,-4.92191 9.82112,-12.48589 3.39699,2.27225 z"
       id="_186718616"
       inkscape:label="#_Dzerzhinsky" />
    <path
       style="display:inline;opacity:1;fill:#ffb2b6;fill-opacity:1;fill-rule:evenodd;stroke:#ccc0a3;stroke-width:0.57766289;stroke-linecap:butt;stroke-linejoin:miter;stroke-opacity:1"
       inkscape:connector-curvature="0"
       id="polygon4417"
       d="m 129.91735,58.532353 c 0.273,0.08007 0.84202,-0.01814 0.53729,0.409858 -0.0612,0.304769 -0.39805,0.697901 0.0407,0.842436 -0.11674,0.121549 -0.46165,0.530266 -0.73408,0.437149 -0.31775,-0.08103 -0.67587,-0.271577 -0.80568,0.157094 -0.24784,0.175288 -0.64288,0.104175 -0.94822,0.183204 -0.35679,-0.03018 -0.62234,0.29716 -0.62425,-0.172477 -0.17299,-0.548894 -0.408,-1.087337 -0.34704,-1.675673 0.017,-0.549337 -0.088,-1.122522 0.004,-1.657129 0.14708,-0.417091 0.42056,-0.810597 0.48924,-1.242321 -0.0521,-1.269599 -0.10424,-2.539195 -0.15639,-3.808794 -0.24876,-0.08323 -0.80124,0.181023 -0.82602,-0.158511 -0.17156,-1.270046 -0.34315,-2.540093 -0.51472,-3.810142 -0.55015,-0.516648 -1.15321,-1.002363 -1.67096,-1.537954 0.1653,-0.09664 0.22344,-0.579848 0.64503,-0.453333 0.42485,0.08034 0.4129,-0.367813 0.53651,-0.65194 0.15687,-0.542567 0.47782,-1.061077 0.36069,-1.643822 -0.0465,-1.163255 -0.093,-2.326511 -0.13947,-3.489767 2.09168,0.232386 4.18337,0.464778 6.27503,0.697166 0.003,-1.19504 -0.007,-2.390784 0.005,-3.585388 0.43619,0.444798 0.80531,0.973542 1.39639,1.224498 0.68357,0.424434 1.42847,0.792241 2.07405,1.251744 0.27417,0.348913 -0.42265,0.269433 -0.61982,0.4104 -0.35578,0.105793 -0.71153,0.211589 -1.06729,0.317384 0.25714,0.824651 0.51428,1.649299 0.7714,2.473947 -0.51121,-0.193011 -0.20574,0.320394 -0.17449,0.596601 0.35085,1.512538 0.70172,3.025083 1.05256,4.537625 -0.39014,0.04434 -0.78031,0.08868 -1.17047,0.133013 -0.47884,1.525169 -0.95766,3.05034 -1.4365,4.575511 -0.55869,-0.115246 -1.11741,-0.230485 -1.67613,-0.345727 -0.0937,1.264736 -0.13632,2.542484 -0.26181,3.79913 -0.33834,0.728742 -0.6767,1.457478 -1.015,2.186218 z" />
  </g>
  <g
     inkscape:groupmode="layer"
     id="layer9"
     inkscape:label="Churches"
     style="display:inline;opacity:1">
    <g
       id="g7096"
       transform="translate(-216.28718,84.908519)"
       style="display:inline"
       inkscape:label="#Dmitrovskaya">
      <g
         id="g7116"
         transform="matrix(0.66700989,0,0,0.66700989,85.370932,28.812754)">
        <rect
           style="display:inline;opacity:1;fill:#ffffff;fill-opacity:1;stroke:none;stroke-width:0.28071591;stroke-linecap:round;stroke-linejoin:round;stroke-miterlimit:4;stroke-dasharray:none;stroke-dashoffset:0;stroke-opacity:1;paint-order:stroke markers fill"
           id="rect7082"
           width="36.237019"
           height="4.5987911"
           x="218.08478"
           y="157.59496"
           inkscape:export-filename="/home/keyjoo/Desktop/mos-map-sda/png/orion_3-5.png"
           inkscape:export-xdpi="300"
           inkscape:export-ydpi="300" />
        <g
           transform="translate(13.944886,26.851586)"
           id="g7106">
          <text
             inkscape:export-ydpi="300"
             inkscape:export-xdpi="300"
             inkscape:export-filename="/home/keyjoo/Desktop/mos-map-sda/png/orion_3-5.png"
             xml:space="preserve"
             style="font-style:normal;font-weight:normal;font-size:3.75537324px;line-height:1.25;font-family:sans-serif;letter-spacing:0.20419842px;word-spacing:0px;fill:#d40000;fill-opacity:1;stroke:none;stroke-width:0.10059038"
             x="206.63287"
             y="134.47159"
             id="text7086"><tspan
               id="tspan7084"
               sodipodi:role="line"
               x="206.63287"
               y="134.47159"
               style="font-weight:bold;text-align:start;letter-spacing:0.02116667px;text-anchor:start;fill:#d40000;stroke-width:0.10059038">ДМИТРОВСКАЯ</tspan></text>
          <g
             inkscape:export-ydpi="300"
             inkscape:export-xdpi="300"
             inkscape:export-filename="/home/keyjoo/Desktop/mos-map-sda/png/orion_3-5.png"
             id="g7094">
            <circle
               style="opacity:1;fill:#d40000;fill-opacity:1;stroke:none;stroke-width:0.34177509;stroke-linecap:round;stroke-linejoin:round;stroke-miterlimit:4;stroke-dasharray:none;stroke-dashoffset:0;stroke-opacity:1;paint-order:stroke markers fill"
               id="circle7088"
               cx="204.20422"
               cy="132.26013"
               r="1.5511596" />
            <path
               sodipodi:type="star"
               style="opacity:1;fill:#d40000;fill-opacity:1;stroke:none;stroke-width:0.11435395;stroke-linecap:round;stroke-linejoin:round;stroke-miterlimit:4;stroke-dasharray:none;stroke-dashoffset:0;stroke-opacity:1;paint-order:stroke markers fill"
               id="path7090"
               sodipodi:sides="3"
               sodipodi:cx="202.31964"
               sodipodi:cy="137.18051"
               sodipodi:r1="2.1519012"
               sodipodi:r2="2.1403139"
               sodipodi:arg1="0.95677729"
               sodipodi:arg2="0.95835871"
               inkscape:flatsided="false"
               inkscape:rounded="0.04"
               inkscape:randomized="0"
               d="m 203.55947,138.93934 c 5e-5,4.9e-4 -0.009,-0.007 -0.009,-0.008 -0.13489,-0.0624 -3.23871,-1.4944 -3.3735,-1.557 -4.4e-4,-2e-4 0.0108,-0.004 0.0112,-0.004 0.12147,-0.0856 2.91354,-2.05759 3.03515,-2.14303 3.9e-4,-2.8e-4 -0.002,0.0115 -0.002,0.0119 0.0134,0.14801 0.32516,3.552 0.33834,3.70003 z"
               inkscape:transform-center-x="-0.22701353"
               inkscape:transform-center-y="0.59525644"
               transform="matrix(0.55438962,0.40943768,-0.40943768,0.55438962,148.17564,-25.029292)" />
            <circle
               r="0.83704883"
               cy="132.28937"
               cx="204.21675"
               id="circle7092"
               style="opacity:1;fill:#ffffff;fill-opacity:1;stroke:none;stroke-width:0.18443134;stroke-linecap:round;stroke-linejoin:round;stroke-miterlimit:4;stroke-dasharray:none;stroke-dashoffset:0;stroke-opacity:1;paint-order:stroke markers fill" />
          </g>
        </g>
      </g>
    </g>
    <g
       inkscape:label="#Zelenograd"
       style="display:inline"
       transform="translate(-216.28718,81.841079)"
       id="g7136">
      <g
         transform="matrix(0.66700989,0,0,0.66700989,85.370932,28.812754)"
         id="g7134">
        <rect
           inkscape:export-ydpi="300"
           inkscape:export-xdpi="300"
           inkscape:export-filename="/home/keyjoo/Desktop/mos-map-sda/png/orion_3-5.png"
           y="157.59496"
           x="218.08478"
           height="4.5987911"
           width="31.91614"
           id="rect7118"
           style="display:inline;opacity:1;fill:#ffffff;fill-opacity:1;stroke:none;stroke-width:0.26344866;stroke-linecap:round;stroke-linejoin:round;stroke-miterlimit:4;stroke-dasharray:none;stroke-dashoffset:0;stroke-opacity:1;paint-order:stroke markers fill" />
        <g
           id="g7132"
           transform="translate(13.944886,26.851586)">
          <text
             id="text7122"
             y="134.47159"
             x="206.63287"
             style="font-style:normal;font-weight:normal;font-size:3.75537324px;line-height:1.25;font-family:sans-serif;letter-spacing:0.20419842px;word-spacing:0px;fill:#d40000;fill-opacity:1;stroke:none;stroke-width:0.10059038"
             xml:space="preserve"
             inkscape:export-filename="/home/keyjoo/Desktop/mos-map-sda/png/orion_3-5.png"
             inkscape:export-xdpi="300"
             inkscape:export-ydpi="300"><tspan
               style="font-weight:bold;text-align:start;letter-spacing:0.02116667px;text-anchor:start;fill:#d40000;stroke-width:0.10059038"
               y="134.47159"
               x="206.63287"
               sodipodi:role="line"
               id="tspan7120">ЗЕЛЕНОГРАД</tspan></text>
          <g
             id="g7130"
             inkscape:export-filename="/home/keyjoo/Desktop/mos-map-sda/png/orion_3-5.png"
             inkscape:export-xdpi="300"
             inkscape:export-ydpi="300">
            <circle
               r="1.5511596"
               cy="132.26013"
               cx="204.20422"
               id="circle7124"
               style="opacity:1;fill:#d40000;fill-opacity:1;stroke:none;stroke-width:0.34177509;stroke-linecap:round;stroke-linejoin:round;stroke-miterlimit:4;stroke-dasharray:none;stroke-dashoffset:0;stroke-opacity:1;paint-order:stroke markers fill" />
            <path
               transform="matrix(0.55438962,0.40943768,-0.40943768,0.55438962,148.17564,-25.029292)"
               inkscape:transform-center-y="0.59525644"
               inkscape:transform-center-x="-0.22701353"
               d="m 203.55947,138.93934 c 5e-5,4.9e-4 -0.009,-0.007 -0.009,-0.008 -0.13489,-0.0624 -3.23871,-1.4944 -3.3735,-1.557 -4.4e-4,-2e-4 0.0108,-0.004 0.0112,-0.004 0.12147,-0.0856 2.91354,-2.05759 3.03515,-2.14303 3.9e-4,-2.8e-4 -0.002,0.0115 -0.002,0.0119 0.0134,0.14801 0.32516,3.552 0.33834,3.70003 z"
               inkscape:randomized="0"
               inkscape:rounded="0.04"
               inkscape:flatsided="false"
               sodipodi:arg2="0.95835871"
               sodipodi:arg1="0.95677729"
               sodipodi:r2="2.1403139"
               sodipodi:r1="2.1519012"
               sodipodi:cy="137.18051"
               sodipodi:cx="202.31964"
               sodipodi:sides="3"
               id="path7126"
               style="opacity:1;fill:#d40000;fill-opacity:1;stroke:none;stroke-width:0.11435395;stroke-linecap:round;stroke-linejoin:round;stroke-miterlimit:4;stroke-dasharray:none;stroke-dashoffset:0;stroke-opacity:1;paint-order:stroke markers fill"
               sodipodi:type="star" />
            <circle
               style="opacity:1;fill:#ffffff;fill-opacity:1;stroke:none;stroke-width:0.18443134;stroke-linecap:round;stroke-linejoin:round;stroke-miterlimit:4;stroke-dasharray:none;stroke-dashoffset:0;stroke-opacity:1;paint-order:stroke markers fill"
               id="circle7128"
               cx="204.21675"
               cy="132.28937"
               r="0.83704883" />
          </g>
        </g>
      </g>
    </g>
    <g
       inkscape:label="#Khimki"
       style="display:inline"
       transform="translate(-216.28718,87.975959)"
       id="g7156">
      <g
         transform="matrix(0.66700989,0,0,0.66700989,85.370932,28.812754)"
         id="g7154">
        <rect
           inkscape:export-ydpi="300"
           inkscape:export-xdpi="300"
           inkscape:export-filename="/home/keyjoo/Desktop/mos-map-sda/png/orion_3-5.png"
           y="157.59496"
           x="218.08478"
           height="4.5987911"
           width="19.803514"
           id="rect7138"
           style="display:inline;opacity:1;fill:#ffffff;fill-opacity:1;stroke:none;stroke-width:0.20752095;stroke-linecap:round;stroke-linejoin:round;stroke-miterlimit:4;stroke-dasharray:none;stroke-dashoffset:0;stroke-opacity:1;paint-order:stroke markers fill" />
        <g
           id="g7152"
           transform="translate(13.944886,26.851586)">
          <text
             id="text7142"
             y="134.47159"
             x="206.63287"
             style="font-style:normal;font-weight:normal;font-size:3.75537324px;line-height:1.25;font-family:sans-serif;letter-spacing:0.20419842px;word-spacing:0px;fill:#d40000;fill-opacity:1;stroke:none;stroke-width:0.10059038"
             xml:space="preserve"
             inkscape:export-filename="/home/keyjoo/Desktop/mos-map-sda/png/orion_3-5.png"
             inkscape:export-xdpi="300"
             inkscape:export-ydpi="300"><tspan
               style="font-weight:bold;text-align:start;letter-spacing:0.02116667px;text-anchor:start;fill:#d40000;stroke-width:0.10059038"
               y="134.47159"
               x="206.63287"
               sodipodi:role="line"
               id="tspan7140">ХИМКИ</tspan></text>
          <g
             id="g7150"
             inkscape:export-filename="/home/keyjoo/Desktop/mos-map-sda/png/orion_3-5.png"
             inkscape:export-xdpi="300"
             inkscape:export-ydpi="300">
            <circle
               r="1.5511596"
               cy="132.26013"
               cx="204.20422"
               id="circle7144"
               style="opacity:1;fill:#d40000;fill-opacity:1;stroke:none;stroke-width:0.34177509;stroke-linecap:round;stroke-linejoin:round;stroke-miterlimit:4;stroke-dasharray:none;stroke-dashoffset:0;stroke-opacity:1;paint-order:stroke markers fill" />
            <path
               transform="matrix(0.55438962,0.40943768,-0.40943768,0.55438962,148.17564,-25.029292)"
               inkscape:transform-center-y="0.59525644"
               inkscape:transform-center-x="-0.22701353"
               d="m 203.55947,138.93934 c 5e-5,4.9e-4 -0.009,-0.007 -0.009,-0.008 -0.13489,-0.0624 -3.23871,-1.4944 -3.3735,-1.557 -4.4e-4,-2e-4 0.0108,-0.004 0.0112,-0.004 0.12147,-0.0856 2.91354,-2.05759 3.03515,-2.14303 3.9e-4,-2.8e-4 -0.002,0.0115 -0.002,0.0119 0.0134,0.14801 0.32516,3.552 0.33834,3.70003 z"
               inkscape:randomized="0"
               inkscape:rounded="0.04"
               inkscape:flatsided="false"
               sodipodi:arg2="0.95835871"
               sodipodi:arg1="0.95677729"
               sodipodi:r2="2.1403139"
               sodipodi:r1="2.1519012"
               sodipodi:cy="137.18051"
               sodipodi:cx="202.31964"
               sodipodi:sides="3"
               id="path7146"
               style="opacity:1;fill:#d40000;fill-opacity:1;stroke:none;stroke-width:0.11435395;stroke-linecap:round;stroke-linejoin:round;stroke-miterlimit:4;stroke-dasharray:none;stroke-dashoffset:0;stroke-opacity:1;paint-order:stroke markers fill"
               sodipodi:type="star" />
            <circle
               style="opacity:1;fill:#ffffff;fill-opacity:1;stroke:none;stroke-width:0.18443134;stroke-linecap:round;stroke-linejoin:round;stroke-miterlimit:4;stroke-dasharray:none;stroke-dashoffset:0;stroke-opacity:1;paint-order:stroke markers fill"
               id="circle7148"
               cx="204.21675"
               cy="132.28937"
               r="0.83704883" />
          </g>
        </g>
      </g>
    </g>
    <rect
       style="clip-rule:evenodd;opacity:1;fill:#ffffe0;fill-opacity:1;fill-rule:evenodd;stroke:none;stroke-width:0.04931476;stroke-linecap:round;stroke-linejoin:round;stroke-miterlimit:4;stroke-dasharray:none;stroke-dashoffset:0;stroke-opacity:1;paint-order:stroke markers fill;image-rendering:optimizeQuality;shape-rendering:geometricPrecision;text-rendering:geometricPrecision"
       id="rect4857"
       width="7.3888063"
       height="7.3888063"
       x="-7.4200106"
       y="127.38634" />
    <rect
       y="134.77515"
       x="-7.4200106"
       height="7.3888063"
       width="7.3888063"
       id="rect4859"
       style="clip-rule:evenodd;opacity:1;fill:#ffe0e0;fill-opacity:1;fill-rule:evenodd;stroke:none;stroke-width:0.04931476;stroke-linecap:round;stroke-linejoin:round;stroke-miterlimit:4;stroke-dasharray:none;stroke-dashoffset:0;stroke-opacity:1;paint-order:stroke markers fill;image-rendering:optimizeQuality;shape-rendering:geometricPrecision;text-rendering:geometricPrecision" />
    <rect
       y="142.16396"
       x="-7.4200106"
       height="7.3888063"
       width="7.3888063"
       id="rect4861"
       style="clip-rule:evenodd;opacity:1;fill:#e0ffe0;fill-opacity:1;fill-rule:evenodd;stroke:none;stroke-width:0.04931476;stroke-linecap:round;stroke-linejoin:round;stroke-miterlimit:4;stroke-dasharray:none;stroke-dashoffset:0;stroke-opacity:1;paint-order:stroke markers fill;image-rendering:optimizeQuality;shape-rendering:geometricPrecision;text-rendering:geometricPrecision" />
    <rect
       style="clip-rule:evenodd;opacity:1;fill:#ffccaa;fill-opacity:1;fill-rule:evenodd;stroke:none;stroke-width:0.04931476;stroke-linecap:round;stroke-linejoin:round;stroke-miterlimit:4;stroke-dasharray:none;stroke-dashoffset:0;stroke-opacity:1;paint-order:stroke markers fill;image-rendering:optimizeQuality;shape-rendering:geometricPrecision;text-rendering:geometricPrecision"
       id="rect4863"
       width="7.3888063"
       height="7.3888063"
       x="-7.4200106"
       y="149.55276" />
    <rect
       y="156.94157"
       x="-7.4200106"
       height="7.3888063"
       width="7.3888063"
       id="rect4865"
       style="clip-rule:evenodd;opacity:1;fill:#e0e0ff;fill-opacity:1;fill-rule:evenodd;stroke:none;stroke-width:0.04931476;stroke-linecap:round;stroke-linejoin:round;stroke-miterlimit:4;stroke-dasharray:none;stroke-dashoffset:0;stroke-opacity:1;paint-order:stroke markers fill;image-rendering:optimizeQuality;shape-rendering:geometricPrecision;text-rendering:geometricPrecision" />
    <rect
       y="127.38634"
       x="-19.515247"
       height="7.3888063"
       width="7.3888063"
       id="rect4980"
       style="clip-rule:evenodd;opacity:1;fill:#afc6e9;fill-opacity:1;fill-rule:evenodd;stroke:none;stroke-width:0.04931476;stroke-linecap:round;stroke-linejoin:round;stroke-miterlimit:4;stroke-dasharray:none;stroke-dashoffset:0;stroke-opacity:1;paint-order:stroke markers fill;image-rendering:optimizeQuality;shape-rendering:geometricPrecision;text-rendering:geometricPrecision" />
    <rect
       style="clip-rule:evenodd;opacity:1;fill:#87aade;fill-opacity:1;fill-rule:evenodd;stroke:none;stroke-width:0.04931476;stroke-linecap:round;stroke-linejoin:round;stroke-miterlimit:4;stroke-dasharray:none;stroke-dashoffset:0;stroke-opacity:1;paint-order:stroke markers fill;image-rendering:optimizeQuality;shape-rendering:geometricPrecision;text-rendering:geometricPrecision"
       id="rect4982"
       width="7.3888063"
       height="7.3888063"
       x="-19.515247"
       y="138.93289" />
    <rect
       style="clip-rule:evenodd;opacity:1;fill:#5f8dd3;fill-opacity:1;fill-rule:evenodd;stroke:none;stroke-width:0.04931476;stroke-linecap:round;stroke-linejoin:round;stroke-miterlimit:4;stroke-dasharray:none;stroke-dashoffset:0;stroke-opacity:1;paint-order:stroke markers fill;image-rendering:optimizeQuality;shape-rendering:geometricPrecision;text-rendering:geometricPrecision"
       id="rect4984"
       width="7.3888063"
       height="7.3888063"
       x="-19.515247"
       y="146.3217" />
    <rect
       y="153.71051"
       x="-19.515247"
       height="7.3888063"
       width="7.3888063"
       id="rect4986"
       style="clip-rule:evenodd;opacity:1;fill:#3771c8;fill-opacity:1;fill-rule:evenodd;stroke:none;stroke-width:0.04931476;stroke-linecap:round;stroke-linejoin:round;stroke-miterlimit:4;stroke-dasharray:none;stroke-dashoffset:0;stroke-opacity:1;paint-order:stroke markers fill;image-rendering:optimizeQuality;shape-rendering:geometricPrecision;text-rendering:geometricPrecision" />
    <rect
       style="clip-rule:evenodd;opacity:1;fill:#2c5aa0;fill-opacity:1;fill-rule:evenodd;stroke:none;stroke-width:0.04931476;stroke-linecap:round;stroke-linejoin:round;stroke-miterlimit:4;stroke-dasharray:none;stroke-dashoffset:0;stroke-opacity:1;paint-order:stroke markers fill;image-rendering:optimizeQuality;shape-rendering:geometricPrecision;text-rendering:geometricPrecision"
       id="rect4988"
       width="7.3888063"
       height="7.3888063"
       x="-19.515247"
       y="161.09932" />
    <rect
       style="clip-rule:evenodd;opacity:1;fill:#d7e3f4;fill-opacity:1;fill-rule:evenodd;stroke:none;stroke-width:0.04931476;stroke-linecap:round;stroke-linejoin:round;stroke-miterlimit:4;stroke-dasharray:none;stroke-dashoffset:0;stroke-opacity:1;paint-order:stroke markers fill;image-rendering:optimizeQuality;shape-rendering:geometricPrecision;text-rendering:geometricPrecision"
       id="rect4990"
       width="7.3888063"
       height="7.3888063"
       x="-19.515247"
       y="119.99753" />
    <rect
       y="112.60872"
       x="-19.515247"
       height="7.3888063"
       width="7.3888063"
       id="rect4992"
       style="clip-rule:evenodd;opacity:1;fill:#cce5ff;fill-opacity:1;fill-rule:evenodd;stroke:none;stroke-width:0.04931476;stroke-linecap:round;stroke-linejoin:round;stroke-miterlimit:4;stroke-dasharray:none;stroke-dashoffset:0;stroke-opacity:1;paint-order:stroke markers fill;image-rendering:optimizeQuality;shape-rendering:geometricPrecision;text-rendering:geometricPrecision" />
  </g>
  <g
     inkscape:groupmode="layer"
     id="layer1"
     inkscape:label="Central districts"
     style="display:inline">
    <text
       xml:space="preserve"
       style="font-style:normal;font-weight:normal;font-size:3.33282065px;line-height:1.25;font-family:sans-serif;letter-spacing:0.18122213px;word-spacing:0px;display:inline;opacity:1;fill:#918a6f;fill-opacity:1;stroke:none;stroke-width:0.08927201"
       x="137.33026"
       y="64.132713"
       id="text6048"><tspan
         sodipodi:role="line"
         x="137.42087"
         y="64.132713"
         style="text-align:center;text-anchor:middle;fill:#918a6f;stroke-width:0.08927201"
         id="tspan6044">Центральный</tspan><tspan
         id="tspan6046"
         sodipodi:role="line"
         x="137.42087"
         y="68.298737"
         style="text-align:center;text-anchor:middle;fill:#918a6f;stroke-width:0.08927201">А.О.</tspan></text>
    <text
       xml:space="preserve"
       style="font-style:normal;font-weight:normal;font-size:1.18607068px;line-height:1.25;font-family:sans-serif;letter-spacing:0.06449259px;word-spacing:0px;display:inline;opacity:1;fill:#000000;fill-opacity:1;stroke:none;stroke-width:0.03176975"
       x="112.49227"
       y="65.512367"
       id="text5545"><tspan
         id="tspan5543"
         sodipodi:role="line"
         x="112.49227"
         y="65.512367"
         style="font-size:1.16210127px;fill:#6c6753;stroke-width:0.03176975">Арбат</tspan></text>
    <text
       id="text5265"
       y="102.40877"
       x="111.66207"
       style="font-style:normal;font-weight:normal;font-size:1.18607068px;line-height:1.25;font-family:sans-serif;letter-spacing:0.06449259px;word-spacing:0px;display:inline;opacity:1;fill:#000000;fill-opacity:1;stroke:none;stroke-width:0.03176975"
       xml:space="preserve"
       transform="rotate(-19.541648)"><tspan
         style="font-size:1.16210127px;fill:#6c6753;stroke-width:0.03176975"
         y="102.40877"
         x="111.66207"
         sodipodi:role="line"
         id="tspan5263">Басманный</tspan></text>
    <text
       id="text5269"
       y="-84.36882"
       x="121.32449"
       style="font-style:normal;font-weight:normal;font-size:1.18607068px;line-height:1.25;font-family:sans-serif;letter-spacing:0.06449259px;word-spacing:0px;display:inline;opacity:1;fill:#000000;fill-opacity:1;stroke:none;stroke-width:0.03176975"
       xml:space="preserve"
       transform="rotate(63.531254)"><tspan
         style="font-size:1.16210127px;fill:#6c6753;stroke-width:0.03176975"
         y="-84.36882"
         x="121.32449"
         sodipodi:role="line"
         id="tspan5267">Замоскворечье</tspan></text>
    <text
       id="text5273"
       y="143.69519"
       x="21.150875"
       style="font-style:normal;font-weight:normal;font-size:1.18607068px;line-height:1.25;font-family:sans-serif;letter-spacing:0.06449259px;word-spacing:0px;display:inline;opacity:1;fill:#000000;fill-opacity:1;stroke:none;stroke-width:0.03176975"
       xml:space="preserve"
       transform="rotate(-47.606443)"><tspan
         style="font-size:1.16210127px;fill:#6c6753;stroke-width:0.03176975"
         y="143.69519"
         x="21.150875"
         sodipodi:role="line"
         id="tspan5271">	Якиманка</tspan></text>
    <text
       transform="rotate(-47.606443)"
       xml:space="preserve"
       style="font-style:normal;font-weight:normal;font-size:1.18607068px;line-height:1.25;font-family:sans-serif;letter-spacing:0.06449259px;word-spacing:0px;display:inline;opacity:1;fill:#000000;fill-opacity:1;stroke:none;stroke-width:0.03176975"
       x="12.645859"
       y="136.46465"
       id="text5277"><tspan
         id="tspan5275"
         sodipodi:role="line"
         x="12.645859"
         y="136.46465"
         style="font-size:1.16210127px;fill:#6c6753;stroke-width:0.03176975">Хамовники</tspan></text>
    <text
       id="text5281"
       y="83.332512"
       x="82.015701"
       style="font-style:normal;font-weight:normal;font-size:1.18607068px;line-height:1.25;font-family:sans-serif;letter-spacing:0.06449259px;word-spacing:0px;display:inline;opacity:1;fill:#000000;fill-opacity:1;stroke:none;stroke-width:0.03176975"
       xml:space="preserve"
       transform="rotate(-12.631409)"><tspan
         style="font-size:1.16210127px;fill:#6c6753;stroke-width:0.03176975"
         y="83.332512"
         x="82.015701"
         sodipodi:role="line"
         id="tspan5279">Пресненский</tspan></text>
    <text
       transform="rotate(47.298396)"
       xml:space="preserve"
       style="font-style:normal;font-weight:normal;font-size:1.18607068px;line-height:1.25;font-family:sans-serif;letter-spacing:0.06449259px;word-spacing:0px;display:inline;opacity:1;fill:#000000;fill-opacity:1;stroke:none;stroke-width:0.03176975"
       x="118.70391"
       y="-52.95229"
       id="text5285"><tspan
         id="tspan5283"
         sodipodi:role="line"
         x="118.70391"
         y="-52.95229"
         style="font-size:1.16210127px;fill:#6c6753;stroke-width:0.03176975">Тверской</tspan></text>
    <text
       id="text5289"
       y="-82.167946"
       x="107.00938"
       style="font-style:normal;font-weight:normal;font-size:1.18607068px;line-height:1.25;font-family:sans-serif;letter-spacing:0.06449259px;word-spacing:0px;display:inline;opacity:1;fill:#000000;fill-opacity:1;stroke:none;stroke-width:0.03176975"
       xml:space="preserve"
       transform="rotate(56.431209)"><tspan
         style="font-size:1.16210127px;fill:#6c6753;stroke-width:0.03176975"
         y="-82.167946"
         x="107.00938"
         sodipodi:role="line"
         id="tspan5287">Мещанский</tspan></text>
    <text
       transform="rotate(-30.602674)"
       xml:space="preserve"
       style="font-style:normal;font-weight:normal;font-size:1.18607068px;line-height:1.25;font-family:sans-serif;letter-spacing:0.06449259px;word-spacing:0px;display:inline;opacity:1;fill:#000000;fill-opacity:1;stroke:none;stroke-width:0.03176975"
       x="89.160019"
       y="114.25845"
       id="text5293"><tspan
         id="tspan5291"
         sodipodi:role="line"
         x="89.160019"
         y="114.25845"
         style="font-size:1.16210127px;fill:#6c6753;stroke-width:0.03176975">Красносельский</tspan></text>
    <text
       id="text5297"
       y="-18.35664"
       x="154.56334"
       style="font-style:normal;font-weight:normal;font-size:1.18607068px;line-height:1.25;font-family:sans-serif;letter-spacing:0.06449259px;word-spacing:0px;display:inline;opacity:1;fill:#000000;fill-opacity:1;stroke:none;stroke-width:0.03176975"
       xml:space="preserve"
       transform="rotate(33.284773)"><tspan
         style="font-size:1.16210127px;fill:#6c6753;stroke-width:0.03176975"
         y="-18.35664"
         x="154.56334"
         sodipodi:role="line"
         id="tspan5295">Таганский</tspan></text>
    <text
       id="text6936"
       y="171.01218"
       x="164.74326"
       style="font-style:normal;font-weight:normal;font-size:3.64382648px;line-height:1.25;font-family:sans-serif;letter-spacing:0.19813305px;word-spacing:0px;fill:#000000;fill-opacity:1;stroke:none;stroke-width:0.09760249"
       xml:space="preserve"
       transform="rotate(-11.014368)"><tspan
         id="tspan6934"
         style="font-weight:bold;font-size:3.04252815px;letter-spacing:0.06541434px;fill:#918a6f;stroke-width:0.09760249"
         y="171.01218"
         x="164.74326"
         sodipodi:role="line">Дзержинский</tspan></text>
  </g>
</svg>
