<?xml version="1.0" encoding="UTF-8" standalone="no"?>
<svg
   xmlns:dc="http://purl.org/dc/elements/1.1/"
   xmlns:cc="http://creativecommons.org/ns#"
   xmlns:rdf="http://www.w3.org/1999/02/22-rdf-syntax-ns#"
   xmlns:svg="http://www.w3.org/2000/svg"
   xmlns="http://www.w3.org/2000/svg"
   xmlns:sodipodi="http://sodipodi.sourceforge.net/DTD/sodipodi-0.dtd"
   xmlns:inkscape="http://www.inkscape.org/namespaces/inkscape"
   viewBox="0 0 148.00011 146.6"
   version="1.1"
   id="svg9"
   sodipodi:docname="adventist-symbol.svg"
   width="148.00011"
   height="142.00008"
   inkscape:version="0.92.3 (2405546, 2018-03-11)">
  <metadata
     id="metadata13">
    <rdf:RDF>
      <cc:Work
         rdf:about="">
        <dc:format>image/svg+xml</dc:format>
        <dc:type
           rdf:resource="http://purl.org/dc/dcmitype/StillImage" />
        <dc:title></dc:title>
      </cc:Work>
    </rdf:RDF>
  </metadata>
  <sodipodi:namedview
     pagecolor="#ffffff"
     bordercolor="#666666"
     borderopacity="1"
     objecttolerance="10"
     gridtolerance="10"
     guidetolerance="10"
     inkscape:pageopacity="0"
     inkscape:pageshadow="2"
     inkscape:window-width="1595"
     inkscape:window-height="904"
     id="namedview11"
     showgrid="false"
     fit-margin-bottom="0"
     fit-margin-top="9"
     fit-margin-left="0"
     fit-margin-right="0"
     viewbox-height="146.6"
     inkscape:zoom="2.247619"
     inkscape:cx="-15.371622"
     inkscape:cy="-6.5761356"
     inkscape:window-x="0"
     inkscape:window-y="27"
     inkscape:window-maximized="0"
     inkscape:current-layer="svg9" />
  <defs
     id="defs3">
    <path
       id="a"
       d="M 0,210 H 210 V 0 H 0 Z"
       inkscape:connector-curvature="0" />
  </defs>
  <g
     id="g7"
     style="fill:none;fill-rule:evenodd"
     transform="translate(-30.00011,-37.99975)">
    <path
       d="m 106.924,171.313 c 0,0.54 0.62,0.543 0.731,0 0.824,-3.998 2.075,-6.663 4.03,-9.25 l -4.397,0.003 c -0.201,0 -0.364,0.162 -0.364,0.363 z m 31.611,-55.503 c 0.05,5.78 -1.61,10.747 -12.15,21.297 l -8.336,8.338 c -3.794,3.797 -7.205,7.264 -9.222,10.73 h 8.233 l 0.974,-0.975 11.96,-11.984 c 9.96,-9.97 11.349,-20.516 9.223,-27.395 -0.181,-0.584 -0.687,-0.623 -0.682,-0.01 z m -10.496,35.265 -9.99,10.008 c -6.047,6.053 -11.125,11.269 -11.125,16.973 l 0.006,1.588 c 0,0.43 0.536,0.499 0.7,0.048 1.868,-5.107 8.106,-10.557 19.548,-8.625 0,0 49.849,8.622 50.267,8.659 0.487,0.043 0.728,-0.437 0.414,-0.81 -0.189,-0.225 -23.2,-23.258 -23.2,-23.258 z m -36.062,10.988 a 0.364,0.364 0 0 1 -0.364,-0.364 v -5.163 c 0,-0.202 0.163,-0.364 0.364,-0.364 l 8.724,0.002 c 0.201,0 0.364,-0.163 0.364,-0.364 -0.023,-4.637 -3.515,-7.788 -17.508,-5.35 l -30.215,5.198 c 0,0 -23.012,23.033 -23.2,23.258 -0.315,0.373 -0.074,0.853 0.413,0.81 0.42,-0.037 50.267,-8.66 50.267,-8.66 11.443,-1.931 17.681,3.52 19.548,8.626 0.164,0.45 0.701,0.383 0.701,-0.048 l 0.001,-17.218 c 0,-0.2 -0.163,-0.363 -0.364,-0.363 z M 78.049,89.903 c -9.96,9.969 -11.349,20.516 -9.222,27.395 0.18,0.584 0.686,0.623 0.68,0.01 -0.05,-5.78 1.612,-10.746 12.151,-21.296 l 22.721,-22.735 c 6.047,-6.054 11.125,-11.27 11.125,-16.973 v -8.897 c 0,-0.542 -0.62,-0.544 -0.732,0 -1.494,7.26 -4.395,10.125 -10.378,16.113 L 78.05,89.902 Z M 115.526,62.97 c 0,-0.54 -0.62,-0.543 -0.732,0 -1.494,7.261 -4.388,10.17 -10.37,16.16 L 80.56,102.993 c -11.58,11.592 -13.584,22.81 -7.694,30.02 0.393,0.481 0.815,0.192 0.56,-0.388 -3.895,-8.819 5.443,-18.17 9.889,-22.62 L 104.401,88.9 c 6.047,-6.053 11.125,-11.269 11.125,-16.973 z m -34.311,55.008 c -11.581,11.592 -6.256,22.787 0.5,25.87 0.592,0.27 0.828,-0.211 0.374,-0.603 -5.416,-4.699 -3.772,-12.6 3.04,-19.418 l 19.248,-19.267 c 6.047,-6.053 11.124,-11.268 11.124,-16.972 v -8.896 c 0,-0.54 -0.62,-0.543 -0.73,0 -1.495,7.259 -4.39,10.112 -10.373,16.1 z m 25.688,37.771 c 0,0.541 0.62,0.543 0.73,0 1.496,-7.259 4.39,-10.17 10.372,-16.158 l 9.479,-9.468 c 11.58,-11.59 13.583,-22.809 7.693,-30.018 -0.393,-0.481 -0.815,-0.193 -0.558,0.387 3.893,8.819 -5.444,18.169 -9.89,22.62 l -6.701,6.709 c -6.048,6.052 -11.125,11.267 -11.125,16.971 z m 11.128,-31.822 c -5.983,5.988 -8.879,8.841 -10.373,16.101 -0.112,0.544 -0.731,0.542 -0.731,0 v -8.896 c 0,-5.703 5.077,-10.92 11.125,-16.972 l 4.862,-4.868 c 6.813,-6.82 8.457,-14.719 3.04,-19.418 -0.453,-0.392 -0.217,-0.874 0.376,-0.603 6.755,3.082 12.08,14.277 0.498,25.87 z m 56.364,39.421 c 0.496,0 0.792,-0.277 0.792,-0.678 0,-0.447 -0.248,-0.64 -0.801,-0.64 h -0.468 v 1.318 z m -1.2,-1.927 h 1.22 c 1.039,0 1.506,0.41 1.506,1.231 0,0.6 -0.363,0.934 -0.744,1.087 l 1.107,1.85 h -0.82 l -0.955,-1.65 h -0.59 v 1.65 h -0.725 v -4.168 z m 4.262,2.079 c 0,-1.65 -1.231,-2.995 -2.957,-2.995 -1.726,0 -2.966,1.25 -2.966,2.995 0,1.65 1.24,2.995 2.966,2.995 1.632,0 2.957,-1.25 2.957,-2.995 z m -6.457,0 c 0,-2.03 1.47,-3.5 3.5,-3.5 1.936,0 3.5,1.47 3.5,3.5 0,2.032 -1.468,3.5 -3.5,3.5 -2.03,0 -3.5,-1.468 -3.5,-3.5 z"
       id="path5"
       inkscape:connector-curvature="0"
       style="fill:#d0021b" />
  </g>
</svg>
